M48
METRIC,LZ,000.000
;FILE_FORMAT=3:3
;TYPE=PLATED
;Layer: PTH_Through
;EasyEDA v6.5.1, 2022-05-20 13:09:05
;9a472788fb3748f5b1af1517000a09b8,10
;Gerber Generator version 0.2
;Holesize 1 = 0.305 mm
T01C0.305
;Holesize 2 = 0.600 mm
T02C0.600
;Holesize 3 = 0.800 mm
T03C0.800
;Holesize 4 = 0.889 mm
T04C0.889
;Holesize 5 = 0.915 mm
T05C0.915
;Holesize 6 = 1.000 mm
T06C1.000
;Holesize 7 = 1.101 mm
T07C1.101
%
G05
G90
T01
X019050Y-002492
X013462Y022860
X040640Y-027940
X040640Y-008890
X010160Y046863
X025400Y041148
T02
X-036195Y015237G85X-036195Y015243
X-034945Y015237G85X-034945Y015243
T03
X-029464Y-006604
X-029464Y006604
X-052324Y-004064
X-052324Y004064
X-052324Y-006604
X-052324Y006604
T04
X-019500Y042310
X-019500Y039770
X-019500Y037230
X-019500Y034690
X022860Y-048260
X016002Y028448
X013462Y028448
X016002Y030988
X013462Y030988
X016002Y033528
X013462Y033528
X016002Y036068
X013462Y036068
X016002Y038608
X013462Y038608
X016002Y041148
X013462Y041148
X016002Y043688
X013462Y043688
T05
X031750Y024130
X031750Y021590
X031750Y019050
X031750Y016510
X031750Y013970
X031750Y011430
X031750Y008890
X031750Y006350
X031750Y003810
X031750Y001270
X031750Y-001270
X031750Y-003810
X031750Y-006350
X031750Y-008890
X031750Y-011430
X031750Y-013970
X031750Y-016510
X031750Y-019050
X031750Y-021590
X031750Y-024130
X049530Y-024130
X049530Y-021590
X049530Y-019050
X049530Y-016510
X049530Y-013970
X049530Y-011430
X049530Y-008890
X049530Y-006350
X049530Y-003810
X049530Y-001270
X049530Y001270
X049530Y003810
X049530Y006350
X049530Y008890
X049530Y011430
X049530Y013970
X049530Y016510
X049530Y019050
X049530Y021590
X049530Y024130
X027940Y-033020
T06
X038100Y023876
X040640Y023876
X043180Y023876
T07
X-032004Y-013970
X-029464Y-013970
X-043942Y-011430
X-041402Y-011430
M30
