G04 Layer: BottomSolderMaskLayer*
G04 EasyEDA v6.5.1, 2022-05-20 13:09:05*
G04 9a472788fb3748f5b1af1517000a09b8,10*
G04 Gerber Generator version 0.2*
G04 Scale: 100 percent, Rotated: No, Reflected: No *
G04 Dimensions in millimeters *
G04 leading zeros omitted , absolute positions ,4 integer and 5 decimal *
%FSLAX45Y45*%
%MOMM*%

%ADD32C,1.1532*%
%ADD33R,1.6764X1.6764*%
%ADD34C,1.6764*%
%ADD37C,1.8016*%
%ADD42C,1.7272*%
%ADD43C,1.8032*%
%ADD44C,0.8128*%

%LPD*%
D32*
X-3494506Y1539001D02*
G01*
X-3494506Y1508998D01*
G36*
X-2033778Y4147057D02*
G01*
X-2033778Y4314697D01*
X-1866137Y4314697D01*
X-1866137Y4147057D01*
G37*
D34*
G01*
X-1950008Y3977004D03*
G01*
X-1950008Y3723004D03*
G01*
X-1950008Y3469004D03*
G36*
X-3290570Y-1480820D02*
G01*
X-3290570Y-1313179D01*
X-3110229Y-1313179D01*
X-3110229Y-1480820D01*
G37*
D37*
G01*
X-2946400Y-1397000D03*
G36*
X2202179Y-4909820D02*
G01*
X2202179Y-4742179D01*
X2369820Y-4742179D01*
X2369820Y-4909820D01*
G37*
G36*
X-3056636Y-770636D02*
G01*
X-3056636Y-550163D01*
X-2836163Y-550163D01*
X-2836163Y-770636D01*
G37*
G36*
X-3056636Y550163D02*
G01*
X-3056636Y770636D01*
X-2836163Y770636D01*
X-2836163Y550163D01*
G37*
G36*
X-5342636Y-516636D02*
G01*
X-5342636Y-296163D01*
X-5122163Y-296163D01*
X-5122163Y-516636D01*
G37*
G36*
X-5342636Y296163D02*
G01*
X-5342636Y516636D01*
X-5122163Y516636D01*
X-5122163Y296163D01*
G37*
G36*
X-5342636Y-770636D02*
G01*
X-5342636Y-550163D01*
X-5122163Y-550163D01*
X-5122163Y-770636D01*
G37*
G36*
X-5342636Y550163D02*
G01*
X-5342636Y770636D01*
X-5122163Y770636D01*
X-5122163Y550163D01*
G37*
D33*
G01*
X1600200Y2844800D03*
D34*
G01*
X1346200Y2844800D03*
G01*
X1600200Y3098800D03*
G01*
X1346200Y3098800D03*
G01*
X1600200Y3352800D03*
G01*
X1346200Y3352800D03*
G01*
X1600200Y3606800D03*
G01*
X1346200Y3606800D03*
G01*
X1600200Y3860800D03*
G01*
X1346200Y3860800D03*
G01*
X1600200Y4114800D03*
G01*
X1346200Y4114800D03*
G01*
X1600200Y4368800D03*
G01*
X1346200Y4368800D03*
G36*
X-3677157Y1451355D02*
G01*
X-3677157Y1596644D01*
X-3561842Y1596644D01*
X-3561842Y1451355D01*
G37*
G36*
X-4484370Y-1226820D02*
G01*
X-4484370Y-1059179D01*
X-4304029Y-1059179D01*
X-4304029Y-1226820D01*
G37*
D37*
G01*
X-4140200Y-1143000D03*
D42*
G01*
X3175000Y2413000D03*
G01*
X3175000Y2159000D03*
G01*
X3175000Y1905000D03*
G01*
X3175000Y1651000D03*
G01*
X3175000Y1397000D03*
G01*
X3175000Y1143000D03*
G01*
X3175000Y889000D03*
G01*
X3175000Y635000D03*
G01*
X3175000Y381000D03*
G01*
X3175000Y127000D03*
G01*
X3175000Y-127000D03*
G01*
X3175000Y-381000D03*
G01*
X3175000Y-635000D03*
G01*
X3175000Y-889000D03*
G01*
X3175000Y-1143000D03*
G01*
X3175000Y-1397000D03*
G01*
X3175000Y-1651000D03*
G01*
X3175000Y-1905000D03*
G01*
X3175000Y-2159000D03*
G01*
X3175000Y-2413000D03*
G01*
X4953000Y-2413000D03*
G01*
X4953000Y-2159000D03*
G01*
X4953000Y-1905000D03*
G01*
X4953000Y-1651000D03*
G01*
X4953000Y-1397000D03*
G01*
X4953000Y-1143000D03*
G01*
X4953000Y-889000D03*
G01*
X4953000Y-635000D03*
G01*
X4953000Y-381000D03*
G01*
X4953000Y-127000D03*
G01*
X4953000Y127000D03*
G01*
X4953000Y381000D03*
G01*
X4953000Y635000D03*
G01*
X4953000Y889000D03*
G01*
X4953000Y1143000D03*
G01*
X4953000Y1397000D03*
G01*
X4953000Y1651000D03*
G01*
X4953000Y1905000D03*
G01*
X4953000Y2159000D03*
G01*
X4953000Y2413000D03*
D43*
G01*
X3810000Y2387600D03*
G01*
X4064000Y2387600D03*
G01*
X4318000Y2387600D03*
D42*
G01*
X2794000Y-3302000D03*
D44*
G01*
X1905000Y-249173D03*
G01*
X1346200Y2286000D03*
G01*
X4064000Y-2794000D03*
G01*
X4064000Y-889000D03*
G01*
X1016000Y4686300D03*
G01*
X2540000Y4114800D03*
M02*
