G04 Layer: BottomLayer*
G04 EasyEDA v6.5.1, 2022-05-20 13:09:05*
G04 9a472788fb3748f5b1af1517000a09b8,10*
G04 Gerber Generator version 0.2*
G04 Scale: 100 percent, Rotated: No, Reflected: No *
G04 Dimensions in millimeters *
G04 leading zeros omitted , absolute positions ,4 integer and 5 decimal *
%FSLAX45Y45*%
%MOMM*%

%ADD11C,0.5000*%
%ADD15R,1.5748X1.5748*%
%ADD16C,1.5748*%
%ADD18C,1.7000*%
%ADD19R,2.0000X2.0000*%
%ADD21C,1.5240*%
%ADD22C,1.6000*%
%ADD23C,0.6096*%
%ADD24C,0.9500*%

%LPD*%
G36*
X-101Y-5949492D02*
G01*
X-110032Y-5948476D01*
X-219913Y-5945428D01*
X-329742Y-5940348D01*
X-439470Y-5933236D01*
X-549046Y-5924143D01*
X-658418Y-5912967D01*
X-767588Y-5899810D01*
X-876452Y-5884621D01*
X-985062Y-5867400D01*
X-1093317Y-5848197D01*
X-1201216Y-5827014D01*
X-1308658Y-5803798D01*
X-1415694Y-5778601D01*
X-1522222Y-5751474D01*
X-1628241Y-5722366D01*
X-1733702Y-5691276D01*
X-1838604Y-5658307D01*
X-1942846Y-5623356D01*
X-2046427Y-5586476D01*
X-2149297Y-5547715D01*
X-2251456Y-5507075D01*
X-2352852Y-5464505D01*
X-2453386Y-5420106D01*
X-2553157Y-5373827D01*
X-2652014Y-5325719D01*
X-2749956Y-5275834D01*
X-2846984Y-5224119D01*
X-2943047Y-5170627D01*
X-3038094Y-5115356D01*
X-3132074Y-5058308D01*
X-3225038Y-4999583D01*
X-3316884Y-4939131D01*
X-3407562Y-4877003D01*
X-3497122Y-4813198D01*
X-3585464Y-4747768D01*
X-3672586Y-4680712D01*
X-3758437Y-4612030D01*
X-3843020Y-4541774D01*
X-3926281Y-4469993D01*
X-4008221Y-4396689D01*
X-4088790Y-4321860D01*
X-4167936Y-4245559D01*
X-4245711Y-4167835D01*
X-4322013Y-4088637D01*
X-4396790Y-4008069D01*
X-4470095Y-3926179D01*
X-4541926Y-3842867D01*
X-4612132Y-3758285D01*
X-4680813Y-3672433D01*
X-4747869Y-3585311D01*
X-4813300Y-3496970D01*
X-4877104Y-3407410D01*
X-4939233Y-3316732D01*
X-4999685Y-3224885D01*
X-5058410Y-3131921D01*
X-5115458Y-3037941D01*
X-5170678Y-2942894D01*
X-5224221Y-2846832D01*
X-5275935Y-2749804D01*
X-5325821Y-2651861D01*
X-5373928Y-2552954D01*
X-5420156Y-2453233D01*
X-5464606Y-2352649D01*
X-5507126Y-2251252D01*
X-5547766Y-2149144D01*
X-5586577Y-2046224D01*
X-5623407Y-1942642D01*
X-5658358Y-1838401D01*
X-5691378Y-1733550D01*
X-5722416Y-1628089D01*
X-5751525Y-1522069D01*
X-5778652Y-1415491D01*
X-5803849Y-1308506D01*
X-5827014Y-1201013D01*
X-5848248Y-1093114D01*
X-5867450Y-984859D01*
X-5884621Y-876300D01*
X-5899810Y-767384D01*
X-5912967Y-658215D01*
X-5924143Y-548843D01*
X-5933287Y-439267D01*
X-5940399Y-329590D01*
X-5945428Y-219760D01*
X-5948476Y-109829D01*
X-5949492Y101D01*
X-5948476Y110032D01*
X-5945428Y219913D01*
X-5940348Y329742D01*
X-5933236Y439470D01*
X-5924143Y549046D01*
X-5912967Y658418D01*
X-5899810Y767588D01*
X-5884621Y876452D01*
X-5867400Y985062D01*
X-5848197Y1093317D01*
X-5827014Y1201216D01*
X-5803798Y1308658D01*
X-5778601Y1415694D01*
X-5751474Y1522222D01*
X-5722366Y1628241D01*
X-5691276Y1733702D01*
X-5658307Y1838604D01*
X-5623356Y1942846D01*
X-5586476Y2046427D01*
X-5547715Y2149297D01*
X-5507075Y2251456D01*
X-5464505Y2352852D01*
X-5420106Y2453386D01*
X-5373827Y2553157D01*
X-5325719Y2652014D01*
X-5275834Y2749956D01*
X-5224119Y2846984D01*
X-5170627Y2943047D01*
X-5115356Y3038094D01*
X-5058308Y3132074D01*
X-4999583Y3225038D01*
X-4939131Y3316884D01*
X-4877003Y3407562D01*
X-4813198Y3497122D01*
X-4747768Y3585464D01*
X-4680712Y3672586D01*
X-4612030Y3758437D01*
X-4541774Y3843020D01*
X-4469993Y3926281D01*
X-4396689Y4008221D01*
X-4321860Y4088790D01*
X-4245559Y4167936D01*
X-4167835Y4245711D01*
X-4088637Y4322013D01*
X-4008069Y4396790D01*
X-3926179Y4470095D01*
X-3842867Y4541926D01*
X-3758285Y4612132D01*
X-3672433Y4680813D01*
X-3585311Y4747869D01*
X-3496970Y4813300D01*
X-3407410Y4877104D01*
X-3316732Y4939233D01*
X-3224885Y4999685D01*
X-3131921Y5058410D01*
X-3037941Y5115458D01*
X-2942894Y5170678D01*
X-2846832Y5224221D01*
X-2749804Y5275935D01*
X-2651861Y5325821D01*
X-2552954Y5373928D01*
X-2453233Y5420156D01*
X-2352649Y5464606D01*
X-2251252Y5507126D01*
X-2149144Y5547766D01*
X-2046224Y5586577D01*
X-1942642Y5623407D01*
X-1838401Y5658358D01*
X-1733550Y5691378D01*
X-1628089Y5722416D01*
X-1522069Y5751525D01*
X-1415491Y5778652D01*
X-1308506Y5803849D01*
X-1201013Y5827014D01*
X-1093114Y5848248D01*
X-984859Y5867450D01*
X-876300Y5884621D01*
X-767384Y5899810D01*
X-658215Y5912967D01*
X-548843Y5924143D01*
X-439267Y5933287D01*
X-329590Y5940399D01*
X-219760Y5945428D01*
X-109829Y5948476D01*
X101Y5949492D01*
X110032Y5948476D01*
X219913Y5945428D01*
X329742Y5940348D01*
X439470Y5933236D01*
X549046Y5924143D01*
X658418Y5912967D01*
X767588Y5899810D01*
X876452Y5884621D01*
X985062Y5867400D01*
X1093317Y5848197D01*
X1201216Y5827014D01*
X1308658Y5803798D01*
X1415694Y5778601D01*
X1522222Y5751474D01*
X1628241Y5722366D01*
X1733702Y5691276D01*
X1838604Y5658307D01*
X1942846Y5623356D01*
X2046427Y5586476D01*
X2149297Y5547715D01*
X2251456Y5507075D01*
X2352852Y5464505D01*
X2453386Y5420106D01*
X2553157Y5373827D01*
X2652014Y5325719D01*
X2749956Y5275834D01*
X2846984Y5224119D01*
X2943047Y5170627D01*
X3038094Y5115356D01*
X3132074Y5058308D01*
X3225038Y4999583D01*
X3316884Y4939131D01*
X3407562Y4877003D01*
X3497122Y4813198D01*
X3585464Y4747768D01*
X3672586Y4680712D01*
X3758437Y4612030D01*
X3843020Y4541774D01*
X3926281Y4469993D01*
X4008221Y4396689D01*
X4088790Y4321860D01*
X4167936Y4245559D01*
X4245711Y4167835D01*
X4322013Y4088637D01*
X4396790Y4008069D01*
X4470095Y3926179D01*
X4541926Y3842867D01*
X4612132Y3758285D01*
X4680813Y3672433D01*
X4747869Y3585311D01*
X4813300Y3496970D01*
X4877104Y3407410D01*
X4939233Y3316732D01*
X4999685Y3224885D01*
X5058410Y3131921D01*
X5115458Y3037941D01*
X5170678Y2942894D01*
X5224221Y2846832D01*
X5275935Y2749804D01*
X5325821Y2651861D01*
X5373928Y2552954D01*
X5420156Y2453233D01*
X5464606Y2352649D01*
X5507126Y2251252D01*
X5547766Y2149144D01*
X5586577Y2046224D01*
X5623407Y1942642D01*
X5658358Y1838401D01*
X5691378Y1733550D01*
X5722416Y1628089D01*
X5751525Y1522069D01*
X5778652Y1415491D01*
X5803849Y1308506D01*
X5827014Y1201013D01*
X5848248Y1093114D01*
X5867450Y984859D01*
X5884621Y876300D01*
X5899810Y767384D01*
X5912967Y658215D01*
X5924143Y548843D01*
X5933287Y439267D01*
X5940399Y329590D01*
X5945428Y219760D01*
X5948476Y109829D01*
X5949492Y-101D01*
X5948476Y-110032D01*
X5945428Y-219913D01*
X5940348Y-329742D01*
X5933236Y-439470D01*
X5924143Y-549046D01*
X5912967Y-658418D01*
X5899810Y-767588D01*
X5884621Y-876452D01*
X5867400Y-985062D01*
X5848197Y-1093317D01*
X5827014Y-1201216D01*
X5803798Y-1308658D01*
X5778601Y-1415694D01*
X5751474Y-1522222D01*
X5722366Y-1628241D01*
X5691276Y-1733702D01*
X5658307Y-1838604D01*
X5623356Y-1942846D01*
X5586476Y-2046427D01*
X5547715Y-2149297D01*
X5507075Y-2251456D01*
X5464505Y-2352852D01*
X5420106Y-2453386D01*
X5373827Y-2553157D01*
X5325719Y-2652014D01*
X5275834Y-2749956D01*
X5224119Y-2846984D01*
X5170627Y-2943047D01*
X5115356Y-3038094D01*
X5058308Y-3132074D01*
X4999583Y-3225038D01*
X4939131Y-3316884D01*
X4877003Y-3407562D01*
X4813198Y-3497122D01*
X4747768Y-3585464D01*
X4680712Y-3672586D01*
X4612030Y-3758437D01*
X4541774Y-3843020D01*
X4469993Y-3926281D01*
X4396689Y-4008221D01*
X4321860Y-4088790D01*
X4245559Y-4167936D01*
X4167835Y-4245711D01*
X4088637Y-4322013D01*
X4008069Y-4396790D01*
X3926179Y-4470095D01*
X3842867Y-4541926D01*
X3758285Y-4612132D01*
X3672433Y-4680813D01*
X3585311Y-4747869D01*
X3496970Y-4813300D01*
X3407410Y-4877104D01*
X3316732Y-4939233D01*
X3224885Y-4999685D01*
X3131921Y-5058410D01*
X3037941Y-5115458D01*
X2942894Y-5170678D01*
X2846832Y-5224221D01*
X2749804Y-5275935D01*
X2651861Y-5325821D01*
X2552954Y-5373928D01*
X2453233Y-5420156D01*
X2352649Y-5464606D01*
X2251252Y-5507126D01*
X2149144Y-5547766D01*
X2046224Y-5586577D01*
X1942642Y-5623407D01*
X1838401Y-5658358D01*
X1733550Y-5691378D01*
X1628089Y-5722416D01*
X1522069Y-5751525D01*
X1415491Y-5778652D01*
X1308506Y-5803849D01*
X1201013Y-5827014D01*
X1093114Y-5848248D01*
X984859Y-5867450D01*
X876300Y-5884621D01*
X767384Y-5899810D01*
X658215Y-5912967D01*
X548843Y-5924143D01*
X439267Y-5933287D01*
X329590Y-5940399D01*
X219760Y-5945428D01*
X109829Y-5948476D01*
G37*

%LPC*%
G36*
X-5791Y5185562D02*
G01*
X17322Y5186070D01*
X40233Y5188458D01*
X62890Y5192776D01*
X85140Y5198973D01*
X106781Y5207050D01*
X127609Y5216855D01*
X147624Y5228386D01*
X166573Y5241544D01*
X184353Y5256276D01*
X200812Y5272430D01*
X215900Y5289854D01*
X229463Y5308549D01*
X241401Y5328259D01*
X251663Y5348935D01*
X260146Y5370423D01*
X266852Y5392470D01*
X271627Y5415076D01*
X274523Y5437936D01*
X275488Y5461000D01*
X274523Y5484063D01*
X271627Y5506923D01*
X266852Y5529529D01*
X260146Y5551576D01*
X251663Y5573064D01*
X241401Y5593740D01*
X229463Y5613450D01*
X215900Y5632145D01*
X200812Y5649569D01*
X184353Y5665724D01*
X166573Y5680456D01*
X147624Y5693613D01*
X127609Y5705144D01*
X106781Y5714949D01*
X85140Y5723026D01*
X62890Y5729224D01*
X40233Y5733542D01*
X17322Y5735929D01*
X-5791Y5736437D01*
X-28803Y5734964D01*
X-51612Y5731611D01*
X-74066Y5726328D01*
X-96012Y5719216D01*
X-117297Y5710275D01*
X-137769Y5699607D01*
X-157226Y5687212D01*
X-175615Y5673293D01*
X-192735Y5657850D01*
X-208534Y5641035D01*
X-222859Y5622950D01*
X-235661Y5603697D01*
X-246786Y5583478D01*
X-256133Y5562396D01*
X-263753Y5540603D01*
X-269494Y5518302D01*
X-273304Y5495544D01*
X-275234Y5472531D01*
X-275234Y5449468D01*
X-273304Y5426456D01*
X-269494Y5403697D01*
X-263753Y5381396D01*
X-256133Y5359603D01*
X-246786Y5338521D01*
X-235661Y5318302D01*
X-222859Y5299049D01*
X-208534Y5280964D01*
X-192735Y5264150D01*
X-175615Y5248706D01*
X-157226Y5234787D01*
X-137769Y5222392D01*
X-117297Y5211724D01*
X-96012Y5202783D01*
X-74066Y5195671D01*
X-51612Y5190388D01*
X-28803Y5187035D01*
G37*
G36*
X-3545738Y-3705453D02*
G01*
X-3528669Y-3704031D01*
X-3511854Y-3700729D01*
X-3495497Y-3695598D01*
X-3479800Y-3688740D01*
X-3464966Y-3680155D01*
X-3451148Y-3670046D01*
X-3438550Y-3658412D01*
X-3427323Y-3645509D01*
X-3417519Y-3631437D01*
X-3409391Y-3616350D01*
X-3402939Y-3600500D01*
X-3398265Y-3583990D01*
X-3395472Y-3567125D01*
X-3394506Y-3550005D01*
X-3395472Y-3532886D01*
X-3398265Y-3516020D01*
X-3402939Y-3499510D01*
X-3409391Y-3483660D01*
X-3417519Y-3468573D01*
X-3427323Y-3454501D01*
X-3438550Y-3441598D01*
X-3451148Y-3429965D01*
X-3464966Y-3419856D01*
X-3479800Y-3411270D01*
X-3495497Y-3404412D01*
X-3511854Y-3399282D01*
X-3528669Y-3395979D01*
X-3545738Y-3394557D01*
X-3562858Y-3395065D01*
X-3579825Y-3397402D01*
X-3596436Y-3401618D01*
X-3612438Y-3407613D01*
X-3627729Y-3415334D01*
X-3642106Y-3424732D01*
X-3655314Y-3435604D01*
X-3667251Y-3447897D01*
X-3677767Y-3461410D01*
X-3686759Y-3475990D01*
X-3694074Y-3491484D01*
X-3699611Y-3507689D01*
X-3703370Y-3524402D01*
X-3705250Y-3541420D01*
X-3705250Y-3558590D01*
X-3703370Y-3575608D01*
X-3699611Y-3592322D01*
X-3694074Y-3608527D01*
X-3686759Y-3624021D01*
X-3677767Y-3638600D01*
X-3667251Y-3652113D01*
X-3655314Y-3664407D01*
X-3642106Y-3675278D01*
X-3627729Y-3684676D01*
X-3612438Y-3692398D01*
X-3596436Y-3698392D01*
X-3579825Y-3702608D01*
X-3562858Y-3704945D01*
G37*
G36*
X3554272Y-3705453D02*
G01*
X3571341Y-3704031D01*
X3588156Y-3700729D01*
X3604514Y-3695598D01*
X3620211Y-3688740D01*
X3635044Y-3680155D01*
X3648862Y-3670046D01*
X3661460Y-3658412D01*
X3672687Y-3645509D01*
X3682492Y-3631437D01*
X3690620Y-3616350D01*
X3697071Y-3600500D01*
X3701745Y-3583990D01*
X3704539Y-3567125D01*
X3705504Y-3550005D01*
X3704539Y-3532886D01*
X3701745Y-3516020D01*
X3697071Y-3499510D01*
X3690620Y-3483660D01*
X3682492Y-3468573D01*
X3672687Y-3454501D01*
X3661460Y-3441598D01*
X3648862Y-3429965D01*
X3635044Y-3419856D01*
X3620211Y-3411270D01*
X3604514Y-3404412D01*
X3588156Y-3399282D01*
X3571341Y-3395979D01*
X3554272Y-3394557D01*
X3537153Y-3395065D01*
X3520186Y-3397402D01*
X3503574Y-3401618D01*
X3487572Y-3407613D01*
X3472281Y-3415334D01*
X3457905Y-3424732D01*
X3444697Y-3435604D01*
X3432759Y-3447897D01*
X3422243Y-3461410D01*
X3413251Y-3475990D01*
X3405936Y-3491484D01*
X3400399Y-3507689D01*
X3396640Y-3524402D01*
X3394760Y-3541420D01*
X3394760Y-3558590D01*
X3396640Y-3575608D01*
X3400399Y-3592322D01*
X3405936Y-3608527D01*
X3413251Y-3624021D01*
X3422243Y-3638600D01*
X3432759Y-3652113D01*
X3444697Y-3664407D01*
X3457905Y-3675278D01*
X3472281Y-3684676D01*
X3487572Y-3692398D01*
X3503574Y-3698392D01*
X3520186Y-3702608D01*
X3537153Y-3704945D01*
G37*
G36*
X2787192Y-3403447D02*
G01*
X2800807Y-3403447D01*
X2814269Y-3401618D01*
X2827375Y-3398062D01*
X2839872Y-3392728D01*
X2851556Y-3385820D01*
X2862224Y-3377387D01*
X2871622Y-3367633D01*
X2879699Y-3356711D01*
X2886252Y-3344824D01*
X2891129Y-3332124D01*
X2894279Y-3318916D01*
X2895600Y-3305403D01*
X2895193Y-3291840D01*
X2892907Y-3278428D01*
X2888894Y-3265474D01*
X2883154Y-3253130D01*
X2875838Y-3241700D01*
X2867101Y-3231337D01*
X2856992Y-3222193D01*
X2845816Y-3214522D01*
X2833674Y-3208375D01*
X2820873Y-3203956D01*
X2807563Y-3201212D01*
X2794000Y-3200298D01*
X2780436Y-3201212D01*
X2767126Y-3203956D01*
X2754325Y-3208375D01*
X2742184Y-3214522D01*
X2731008Y-3222193D01*
X2720898Y-3231337D01*
X2712161Y-3241700D01*
X2704846Y-3253130D01*
X2699105Y-3265474D01*
X2695092Y-3278428D01*
X2692857Y-3291840D01*
X2692400Y-3305403D01*
X2693720Y-3318916D01*
X2696870Y-3332124D01*
X2701747Y-3344824D01*
X2708300Y-3356711D01*
X2716377Y-3367633D01*
X2725775Y-3377387D01*
X2736443Y-3385820D01*
X2748127Y-3392728D01*
X2760624Y-3398062D01*
X2773730Y-3401618D01*
G37*
G36*
X4064000Y-2849930D02*
G01*
X4073702Y-2849118D01*
X4083151Y-2846578D01*
X4091990Y-2842463D01*
X4099966Y-2836875D01*
X4106875Y-2829966D01*
X4112463Y-2821990D01*
X4116578Y-2813151D01*
X4119118Y-2803702D01*
X4119930Y-2794000D01*
X4119118Y-2784297D01*
X4116578Y-2774848D01*
X4115460Y-2772460D01*
X4114495Y-2768193D01*
X4114495Y-914806D01*
X4115460Y-910539D01*
X4116578Y-908151D01*
X4119118Y-898702D01*
X4119930Y-889000D01*
X4119118Y-879297D01*
X4116578Y-869848D01*
X4112463Y-861009D01*
X4106875Y-853033D01*
X4099966Y-846124D01*
X4091990Y-840536D01*
X4083151Y-836421D01*
X4073702Y-833882D01*
X4064000Y-833069D01*
X4054297Y-833882D01*
X4044848Y-836421D01*
X4036009Y-840536D01*
X4028033Y-846124D01*
X4021124Y-853033D01*
X4015536Y-861009D01*
X4011422Y-869848D01*
X4008882Y-879297D01*
X4008069Y-889000D01*
X4008882Y-898702D01*
X4011422Y-908151D01*
X4012539Y-910539D01*
X4013504Y-914806D01*
X4013504Y-2768193D01*
X4012539Y-2772460D01*
X4011422Y-2774848D01*
X4008882Y-2784297D01*
X4008069Y-2794000D01*
X4008882Y-2803702D01*
X4011422Y-2813151D01*
X4015536Y-2821990D01*
X4021124Y-2829966D01*
X4028033Y-2836875D01*
X4036009Y-2842463D01*
X4044848Y-2846578D01*
X4054297Y-2849118D01*
G37*
G36*
X4946192Y-2514447D02*
G01*
X4959807Y-2514447D01*
X4973269Y-2512618D01*
X4986375Y-2509062D01*
X4998872Y-2503728D01*
X5010556Y-2496820D01*
X5021224Y-2488387D01*
X5030622Y-2478633D01*
X5038699Y-2467711D01*
X5045252Y-2455824D01*
X5050129Y-2443124D01*
X5053279Y-2429916D01*
X5054600Y-2416403D01*
X5054193Y-2402840D01*
X5051907Y-2389428D01*
X5047894Y-2376474D01*
X5042154Y-2364130D01*
X5034838Y-2352700D01*
X5026101Y-2342337D01*
X5015992Y-2333193D01*
X5004816Y-2325522D01*
X4992674Y-2319375D01*
X4979873Y-2314956D01*
X4966563Y-2312212D01*
X4953000Y-2311298D01*
X4939436Y-2312212D01*
X4926126Y-2314956D01*
X4913325Y-2319375D01*
X4901184Y-2325522D01*
X4890008Y-2333193D01*
X4879898Y-2342337D01*
X4871161Y-2352700D01*
X4863846Y-2364130D01*
X4858105Y-2376474D01*
X4854092Y-2389428D01*
X4851857Y-2402840D01*
X4851400Y-2416403D01*
X4852720Y-2429916D01*
X4855870Y-2443124D01*
X4860747Y-2455824D01*
X4867300Y-2467711D01*
X4875377Y-2478633D01*
X4884775Y-2488387D01*
X4895443Y-2496820D01*
X4907127Y-2503728D01*
X4919624Y-2509062D01*
X4932730Y-2512618D01*
G37*
G36*
X3168192Y-2514447D02*
G01*
X3181807Y-2514447D01*
X3195269Y-2512618D01*
X3208375Y-2509062D01*
X3220872Y-2503728D01*
X3232556Y-2496820D01*
X3243224Y-2488387D01*
X3252622Y-2478633D01*
X3260699Y-2467711D01*
X3267252Y-2455824D01*
X3272129Y-2443124D01*
X3275279Y-2429916D01*
X3276600Y-2416403D01*
X3276193Y-2402840D01*
X3273907Y-2389428D01*
X3269894Y-2376474D01*
X3264153Y-2364130D01*
X3256838Y-2352700D01*
X3248101Y-2342337D01*
X3237992Y-2333193D01*
X3226816Y-2325522D01*
X3214674Y-2319375D01*
X3201873Y-2314956D01*
X3188563Y-2312212D01*
X3175000Y-2311298D01*
X3161436Y-2312212D01*
X3148126Y-2314956D01*
X3135325Y-2319375D01*
X3123184Y-2325522D01*
X3112008Y-2333193D01*
X3101898Y-2342337D01*
X3093161Y-2352700D01*
X3085846Y-2364130D01*
X3080105Y-2376474D01*
X3076092Y-2389428D01*
X3073857Y-2402840D01*
X3073400Y-2416403D01*
X3074720Y-2429916D01*
X3077870Y-2443124D01*
X3082747Y-2455824D01*
X3089300Y-2467711D01*
X3097377Y-2478633D01*
X3106775Y-2488387D01*
X3117443Y-2496820D01*
X3129127Y-2503728D01*
X3141624Y-2509062D01*
X3154730Y-2512618D01*
G37*
G36*
X4946192Y-2260447D02*
G01*
X4959807Y-2260447D01*
X4973269Y-2258618D01*
X4986375Y-2255062D01*
X4998872Y-2249728D01*
X5010556Y-2242820D01*
X5021224Y-2234387D01*
X5030622Y-2224633D01*
X5038699Y-2213711D01*
X5045252Y-2201824D01*
X5050129Y-2189124D01*
X5053279Y-2175916D01*
X5054600Y-2162403D01*
X5054193Y-2148840D01*
X5051907Y-2135428D01*
X5047894Y-2122474D01*
X5042154Y-2110130D01*
X5034838Y-2098700D01*
X5026101Y-2088337D01*
X5015992Y-2079193D01*
X5004816Y-2071522D01*
X4992674Y-2065375D01*
X4979873Y-2060956D01*
X4966563Y-2058212D01*
X4953000Y-2057298D01*
X4939436Y-2058212D01*
X4926126Y-2060956D01*
X4913325Y-2065375D01*
X4901184Y-2071522D01*
X4890008Y-2079193D01*
X4879898Y-2088337D01*
X4871161Y-2098700D01*
X4863846Y-2110130D01*
X4858105Y-2122474D01*
X4854092Y-2135428D01*
X4851857Y-2148840D01*
X4851400Y-2162403D01*
X4852720Y-2175916D01*
X4855870Y-2189124D01*
X4860747Y-2201824D01*
X4867300Y-2213711D01*
X4875377Y-2224633D01*
X4884775Y-2234387D01*
X4895443Y-2242820D01*
X4907127Y-2249728D01*
X4919624Y-2255062D01*
X4932730Y-2258618D01*
G37*
G36*
X3168192Y-2260447D02*
G01*
X3181807Y-2260447D01*
X3195269Y-2258618D01*
X3208375Y-2255062D01*
X3220872Y-2249728D01*
X3232556Y-2242820D01*
X3243224Y-2234387D01*
X3252622Y-2224633D01*
X3260699Y-2213711D01*
X3267252Y-2201824D01*
X3272129Y-2189124D01*
X3275279Y-2175916D01*
X3276600Y-2162403D01*
X3276193Y-2148840D01*
X3273907Y-2135428D01*
X3269894Y-2122474D01*
X3264153Y-2110130D01*
X3256838Y-2098700D01*
X3248101Y-2088337D01*
X3237992Y-2079193D01*
X3226816Y-2071522D01*
X3214674Y-2065375D01*
X3201873Y-2060956D01*
X3188563Y-2058212D01*
X3175000Y-2057298D01*
X3161436Y-2058212D01*
X3148126Y-2060956D01*
X3135325Y-2065375D01*
X3123184Y-2071522D01*
X3112008Y-2079193D01*
X3101898Y-2088337D01*
X3093161Y-2098700D01*
X3085846Y-2110130D01*
X3080105Y-2122474D01*
X3076092Y-2135428D01*
X3073857Y-2148840D01*
X3073400Y-2162403D01*
X3074720Y-2175916D01*
X3077870Y-2189124D01*
X3082747Y-2201824D01*
X3089300Y-2213711D01*
X3097377Y-2224633D01*
X3106775Y-2234387D01*
X3117443Y-2242820D01*
X3129127Y-2249728D01*
X3141624Y-2255062D01*
X3154730Y-2258618D01*
G37*
G36*
X3219450Y-1996338D02*
G01*
X3220872Y-1995728D01*
X3232556Y-1988820D01*
X3243224Y-1980387D01*
X3252622Y-1970633D01*
X3260699Y-1959711D01*
X3266338Y-1949450D01*
X3219450Y-1949450D01*
G37*
G36*
X4908550Y-1996338D02*
G01*
X4908550Y-1949450D01*
X4861661Y-1949450D01*
X4867300Y-1959711D01*
X4875377Y-1970633D01*
X4884775Y-1980387D01*
X4895443Y-1988820D01*
X4907127Y-1995728D01*
G37*
G36*
X4997450Y-1996338D02*
G01*
X4998872Y-1995728D01*
X5010556Y-1988820D01*
X5021224Y-1980387D01*
X5030622Y-1970633D01*
X5038699Y-1959711D01*
X5044338Y-1949450D01*
X4997450Y-1949450D01*
G37*
G36*
X3130550Y-1996338D02*
G01*
X3130550Y-1949450D01*
X3083661Y-1949450D01*
X3089300Y-1959711D01*
X3097377Y-1970633D01*
X3106775Y-1980387D01*
X3117443Y-1988820D01*
X3129127Y-1995728D01*
G37*
G36*
X3083763Y-1860550D02*
G01*
X3130550Y-1860550D01*
X3130550Y-1813814D01*
X3123184Y-1817522D01*
X3112008Y-1825193D01*
X3101898Y-1834337D01*
X3093161Y-1844700D01*
X3085846Y-1856130D01*
G37*
G36*
X3219450Y-1860550D02*
G01*
X3266236Y-1860550D01*
X3264153Y-1856130D01*
X3256838Y-1844700D01*
X3248101Y-1834337D01*
X3237992Y-1825193D01*
X3226816Y-1817522D01*
X3219450Y-1813814D01*
G37*
G36*
X4861763Y-1860550D02*
G01*
X4908550Y-1860550D01*
X4908550Y-1813814D01*
X4901184Y-1817522D01*
X4890008Y-1825193D01*
X4879898Y-1834337D01*
X4871161Y-1844700D01*
X4863846Y-1856130D01*
G37*
G36*
X4997450Y-1860550D02*
G01*
X5044236Y-1860550D01*
X5042154Y-1856130D01*
X5034838Y-1844700D01*
X5026101Y-1834337D01*
X5015992Y-1825193D01*
X5004816Y-1817522D01*
X4997450Y-1813814D01*
G37*
G36*
X4946192Y-1752447D02*
G01*
X4959807Y-1752447D01*
X4973269Y-1750618D01*
X4986375Y-1747062D01*
X4998872Y-1741728D01*
X5010556Y-1734820D01*
X5021224Y-1726387D01*
X5030622Y-1716633D01*
X5038699Y-1705711D01*
X5045252Y-1693824D01*
X5050129Y-1681124D01*
X5053279Y-1667916D01*
X5054600Y-1654403D01*
X5054193Y-1640839D01*
X5051907Y-1627428D01*
X5047894Y-1614474D01*
X5042154Y-1602130D01*
X5034838Y-1590700D01*
X5026101Y-1580337D01*
X5015992Y-1571193D01*
X5004816Y-1563522D01*
X4992674Y-1557375D01*
X4979873Y-1552956D01*
X4966563Y-1550212D01*
X4953000Y-1549298D01*
X4939436Y-1550212D01*
X4926126Y-1552956D01*
X4913325Y-1557375D01*
X4901184Y-1563522D01*
X4890008Y-1571193D01*
X4879898Y-1580337D01*
X4871161Y-1590700D01*
X4863846Y-1602130D01*
X4858105Y-1614474D01*
X4854092Y-1627428D01*
X4851857Y-1640839D01*
X4851400Y-1654403D01*
X4852720Y-1667916D01*
X4855870Y-1681124D01*
X4860747Y-1693824D01*
X4867300Y-1705711D01*
X4875377Y-1716633D01*
X4884775Y-1726387D01*
X4895443Y-1734820D01*
X4907127Y-1741728D01*
X4919624Y-1747062D01*
X4932730Y-1750618D01*
G37*
G36*
X3168192Y-1752447D02*
G01*
X3181807Y-1752447D01*
X3195269Y-1750618D01*
X3208375Y-1747062D01*
X3220872Y-1741728D01*
X3232556Y-1734820D01*
X3243224Y-1726387D01*
X3252622Y-1716633D01*
X3260699Y-1705711D01*
X3267252Y-1693824D01*
X3272129Y-1681124D01*
X3275279Y-1667916D01*
X3276600Y-1654403D01*
X3276193Y-1640839D01*
X3273907Y-1627428D01*
X3269894Y-1614474D01*
X3264153Y-1602130D01*
X3256838Y-1590700D01*
X3248101Y-1580337D01*
X3237992Y-1571193D01*
X3226816Y-1563522D01*
X3214674Y-1557375D01*
X3201873Y-1552956D01*
X3188563Y-1550212D01*
X3175000Y-1549298D01*
X3161436Y-1550212D01*
X3148126Y-1552956D01*
X3135325Y-1557375D01*
X3123184Y-1563522D01*
X3112008Y-1571193D01*
X3101898Y-1580337D01*
X3093161Y-1590700D01*
X3085846Y-1602130D01*
X3080105Y-1614474D01*
X3076092Y-1627428D01*
X3073857Y-1640839D01*
X3073400Y-1654403D01*
X3074720Y-1667916D01*
X3077870Y-1681124D01*
X3082747Y-1693824D01*
X3089300Y-1705711D01*
X3097377Y-1716633D01*
X3106775Y-1726387D01*
X3117443Y-1734820D01*
X3129127Y-1741728D01*
X3141624Y-1747062D01*
X3154730Y-1750618D01*
G37*
G36*
X-2942844Y-1507439D02*
G01*
X-2928772Y-1506067D01*
X-2914954Y-1502918D01*
X-2901696Y-1498041D01*
X-2889148Y-1491488D01*
X-2877515Y-1483360D01*
X-2867050Y-1473860D01*
X-2857855Y-1463090D01*
X-2850134Y-1451203D01*
X-2843987Y-1438452D01*
X-2839516Y-1425041D01*
X-2836824Y-1411122D01*
X-2835910Y-1397000D01*
X-2836824Y-1382877D01*
X-2839516Y-1368958D01*
X-2843987Y-1355547D01*
X-2850134Y-1342796D01*
X-2857855Y-1330909D01*
X-2867050Y-1320139D01*
X-2877515Y-1310640D01*
X-2893314Y-1299565D01*
X-2895244Y-1296466D01*
X-2895904Y-1292809D01*
X-2895904Y-796086D01*
X-2895142Y-792175D01*
X-2892907Y-788873D01*
X-2889605Y-786688D01*
X-2885744Y-785926D01*
X-2846984Y-785926D01*
X-2840736Y-785215D01*
X-2835351Y-783336D01*
X-2830525Y-780288D01*
X-2826512Y-776274D01*
X-2823464Y-771448D01*
X-2821584Y-766064D01*
X-2820873Y-759815D01*
X-2820873Y-560984D01*
X-2821584Y-554736D01*
X-2823464Y-549351D01*
X-2826512Y-544525D01*
X-2830525Y-540512D01*
X-2835351Y-537464D01*
X-2840736Y-535584D01*
X-2846984Y-534924D01*
X-3045815Y-534924D01*
X-3052064Y-535584D01*
X-3057448Y-537464D01*
X-3062274Y-540512D01*
X-3066288Y-544525D01*
X-3069336Y-549351D01*
X-3071215Y-554736D01*
X-3071876Y-560984D01*
X-3071876Y-759815D01*
X-3071215Y-766064D01*
X-3069336Y-771448D01*
X-3066288Y-776274D01*
X-3062274Y-780288D01*
X-3057448Y-783336D01*
X-3052064Y-785215D01*
X-3045815Y-785926D01*
X-3007055Y-785926D01*
X-3003194Y-786688D01*
X-2999892Y-788873D01*
X-2997657Y-792175D01*
X-2996895Y-796086D01*
X-2996895Y-1292961D01*
X-2997504Y-1296365D01*
X-2999181Y-1299362D01*
X-3001772Y-1301648D01*
X-3009595Y-1306372D01*
X-3020669Y-1315212D01*
X-3030524Y-1325372D01*
X-3039008Y-1336751D01*
X-3045917Y-1349044D01*
X-3051251Y-1362202D01*
X-3054858Y-1375867D01*
X-3056636Y-1389938D01*
X-3056636Y-1404061D01*
X-3054858Y-1418132D01*
X-3051251Y-1431798D01*
X-3045917Y-1444955D01*
X-3039008Y-1457248D01*
X-3030524Y-1468628D01*
X-3020669Y-1478788D01*
X-3009595Y-1487627D01*
X-2997504Y-1494942D01*
X-2984550Y-1500682D01*
X-2970987Y-1504696D01*
X-2957017Y-1506982D01*
G37*
G36*
X-3151530Y-1501241D02*
G01*
X-3115970Y-1501241D01*
X-3109722Y-1500530D01*
X-3104388Y-1498650D01*
X-3099562Y-1495602D01*
X-3095498Y-1491589D01*
X-3092500Y-1486763D01*
X-3090621Y-1481378D01*
X-3089910Y-1475181D01*
X-3089910Y-1442720D01*
X-3151530Y-1442720D01*
G37*
G36*
X-3284829Y-1501241D02*
G01*
X-3249269Y-1501241D01*
X-3249269Y-1442720D01*
X-3310890Y-1442720D01*
X-3310890Y-1475181D01*
X-3310178Y-1481378D01*
X-3308299Y-1486763D01*
X-3305301Y-1491589D01*
X-3301237Y-1495602D01*
X-3296412Y-1498650D01*
X-3291078Y-1500530D01*
G37*
G36*
X4946192Y-1498447D02*
G01*
X4959807Y-1498447D01*
X4973269Y-1496618D01*
X4986375Y-1493062D01*
X4998872Y-1487728D01*
X5010556Y-1480820D01*
X5021224Y-1472387D01*
X5030622Y-1462633D01*
X5038699Y-1451711D01*
X5045252Y-1439824D01*
X5050129Y-1427124D01*
X5053279Y-1413916D01*
X5054600Y-1400403D01*
X5054193Y-1386840D01*
X5051907Y-1373428D01*
X5047894Y-1360474D01*
X5042154Y-1348130D01*
X5034838Y-1336700D01*
X5026101Y-1326337D01*
X5015992Y-1317193D01*
X5004816Y-1309522D01*
X4992674Y-1303375D01*
X4979873Y-1298956D01*
X4966563Y-1296212D01*
X4953000Y-1295298D01*
X4939436Y-1296212D01*
X4926126Y-1298956D01*
X4913325Y-1303375D01*
X4901184Y-1309522D01*
X4890008Y-1317193D01*
X4879898Y-1326337D01*
X4871161Y-1336700D01*
X4863846Y-1348130D01*
X4858105Y-1360474D01*
X4854092Y-1373428D01*
X4851857Y-1386840D01*
X4851400Y-1400403D01*
X4852720Y-1413916D01*
X4855870Y-1427124D01*
X4860747Y-1439824D01*
X4867300Y-1451711D01*
X4875377Y-1462633D01*
X4884775Y-1472387D01*
X4895443Y-1480820D01*
X4907127Y-1487728D01*
X4919624Y-1493062D01*
X4932730Y-1496618D01*
G37*
G36*
X3168192Y-1498447D02*
G01*
X3181807Y-1498447D01*
X3195269Y-1496618D01*
X3208375Y-1493062D01*
X3220872Y-1487728D01*
X3232556Y-1480820D01*
X3243224Y-1472387D01*
X3252622Y-1462633D01*
X3260699Y-1451711D01*
X3267252Y-1439824D01*
X3272129Y-1427124D01*
X3275279Y-1413916D01*
X3276600Y-1400403D01*
X3276193Y-1386840D01*
X3273907Y-1373428D01*
X3269894Y-1360474D01*
X3264153Y-1348130D01*
X3256838Y-1336700D01*
X3248101Y-1326337D01*
X3237992Y-1317193D01*
X3226816Y-1309522D01*
X3214674Y-1303375D01*
X3201873Y-1298956D01*
X3188563Y-1296212D01*
X3175000Y-1295298D01*
X3161436Y-1296212D01*
X3148126Y-1298956D01*
X3135325Y-1303375D01*
X3123184Y-1309522D01*
X3112008Y-1317193D01*
X3101898Y-1326337D01*
X3093161Y-1336700D01*
X3085846Y-1348130D01*
X3080105Y-1360474D01*
X3076092Y-1373428D01*
X3073857Y-1386840D01*
X3073400Y-1400403D01*
X3074720Y-1413916D01*
X3077870Y-1427124D01*
X3082747Y-1439824D01*
X3089300Y-1451711D01*
X3097377Y-1462633D01*
X3106775Y-1472387D01*
X3117443Y-1480820D01*
X3129127Y-1487728D01*
X3141624Y-1493062D01*
X3154730Y-1496618D01*
G37*
G36*
X-3151530Y-1351280D02*
G01*
X-3089910Y-1351280D01*
X-3089910Y-1318818D01*
X-3090621Y-1312621D01*
X-3092500Y-1307236D01*
X-3095498Y-1302410D01*
X-3099562Y-1298397D01*
X-3104388Y-1295349D01*
X-3109722Y-1293469D01*
X-3115970Y-1292758D01*
X-3151530Y-1292758D01*
G37*
G36*
X-3310890Y-1351280D02*
G01*
X-3249269Y-1351280D01*
X-3249269Y-1292758D01*
X-3284829Y-1292758D01*
X-3291078Y-1293469D01*
X-3296412Y-1295349D01*
X-3301237Y-1298397D01*
X-3305301Y-1302410D01*
X-3308299Y-1307236D01*
X-3310178Y-1312621D01*
X-3310890Y-1318818D01*
G37*
G36*
X-4136644Y-1253439D02*
G01*
X-4122572Y-1252067D01*
X-4108754Y-1248918D01*
X-4095496Y-1244041D01*
X-4082948Y-1237488D01*
X-4071315Y-1229360D01*
X-4060850Y-1219860D01*
X-4051655Y-1209090D01*
X-4043934Y-1197203D01*
X-4037787Y-1184452D01*
X-4033316Y-1171041D01*
X-4030624Y-1157122D01*
X-4029710Y-1143000D01*
X-4030624Y-1128877D01*
X-4033316Y-1114958D01*
X-4037787Y-1101547D01*
X-4043934Y-1088796D01*
X-4051655Y-1076909D01*
X-4060850Y-1066139D01*
X-4071315Y-1056640D01*
X-4082948Y-1048512D01*
X-4095496Y-1041958D01*
X-4108754Y-1037082D01*
X-4122572Y-1033932D01*
X-4136644Y-1032560D01*
X-4150817Y-1033018D01*
X-4164787Y-1035303D01*
X-4178350Y-1039317D01*
X-4191304Y-1045057D01*
X-4203395Y-1052372D01*
X-4214469Y-1061212D01*
X-4224324Y-1071372D01*
X-4232808Y-1082751D01*
X-4239717Y-1095044D01*
X-4245051Y-1108202D01*
X-4248658Y-1121867D01*
X-4250436Y-1135938D01*
X-4250436Y-1150061D01*
X-4248658Y-1164132D01*
X-4245051Y-1177798D01*
X-4239717Y-1190955D01*
X-4232808Y-1203248D01*
X-4224324Y-1214628D01*
X-4214469Y-1224788D01*
X-4203395Y-1233627D01*
X-4191304Y-1240942D01*
X-4178350Y-1246682D01*
X-4164787Y-1250696D01*
X-4150817Y-1252982D01*
G37*
G36*
X-4478629Y-1247241D02*
G01*
X-4309770Y-1247241D01*
X-4303522Y-1246530D01*
X-4298188Y-1244650D01*
X-4293362Y-1241602D01*
X-4289298Y-1237589D01*
X-4286300Y-1232763D01*
X-4284421Y-1227378D01*
X-4283710Y-1221181D01*
X-4283710Y-1064818D01*
X-4284421Y-1058621D01*
X-4286300Y-1053236D01*
X-4289298Y-1048410D01*
X-4293362Y-1044397D01*
X-4298188Y-1041349D01*
X-4303522Y-1039469D01*
X-4309770Y-1038758D01*
X-4478629Y-1038758D01*
X-4484878Y-1039469D01*
X-4490212Y-1041349D01*
X-4495038Y-1044397D01*
X-4499102Y-1048410D01*
X-4502099Y-1053236D01*
X-4503978Y-1058621D01*
X-4504690Y-1064818D01*
X-4504690Y-1221181D01*
X-4503978Y-1227378D01*
X-4502099Y-1232763D01*
X-4499102Y-1237589D01*
X-4495038Y-1241602D01*
X-4490212Y-1244650D01*
X-4484878Y-1246530D01*
G37*
G36*
X4946192Y-1244447D02*
G01*
X4959807Y-1244447D01*
X4973269Y-1242618D01*
X4986375Y-1239062D01*
X4998872Y-1233728D01*
X5010556Y-1226820D01*
X5021224Y-1218387D01*
X5030622Y-1208633D01*
X5038699Y-1197711D01*
X5045252Y-1185824D01*
X5050129Y-1173124D01*
X5053279Y-1159916D01*
X5054600Y-1146403D01*
X5054193Y-1132840D01*
X5051907Y-1119428D01*
X5047894Y-1106474D01*
X5042154Y-1094130D01*
X5034838Y-1082700D01*
X5026101Y-1072337D01*
X5015992Y-1063193D01*
X5004816Y-1055522D01*
X4992674Y-1049375D01*
X4979873Y-1044956D01*
X4966563Y-1042212D01*
X4953000Y-1041298D01*
X4939436Y-1042212D01*
X4926126Y-1044956D01*
X4913325Y-1049375D01*
X4901184Y-1055522D01*
X4890008Y-1063193D01*
X4879898Y-1072337D01*
X4871161Y-1082700D01*
X4863846Y-1094130D01*
X4858105Y-1106474D01*
X4854092Y-1119428D01*
X4851857Y-1132840D01*
X4851400Y-1146403D01*
X4852720Y-1159916D01*
X4855870Y-1173124D01*
X4860747Y-1185824D01*
X4867300Y-1197711D01*
X4875377Y-1208633D01*
X4884775Y-1218387D01*
X4895443Y-1226820D01*
X4907127Y-1233728D01*
X4919624Y-1239062D01*
X4932730Y-1242618D01*
G37*
G36*
X3168192Y-1244447D02*
G01*
X3181807Y-1244447D01*
X3195269Y-1242618D01*
X3208375Y-1239062D01*
X3220872Y-1233728D01*
X3232556Y-1226820D01*
X3243224Y-1218387D01*
X3252622Y-1208633D01*
X3260699Y-1197711D01*
X3267252Y-1185824D01*
X3272129Y-1173124D01*
X3275279Y-1159916D01*
X3276600Y-1146403D01*
X3276193Y-1132840D01*
X3273907Y-1119428D01*
X3269894Y-1106474D01*
X3264153Y-1094130D01*
X3256838Y-1082700D01*
X3248101Y-1072337D01*
X3237992Y-1063193D01*
X3226816Y-1055522D01*
X3214674Y-1049375D01*
X3201873Y-1044956D01*
X3188563Y-1042212D01*
X3175000Y-1041298D01*
X3161436Y-1042212D01*
X3148126Y-1044956D01*
X3135325Y-1049375D01*
X3123184Y-1055522D01*
X3112008Y-1063193D01*
X3101898Y-1072337D01*
X3093161Y-1082700D01*
X3085846Y-1094130D01*
X3080105Y-1106474D01*
X3076092Y-1119428D01*
X3073857Y-1132840D01*
X3073400Y-1146403D01*
X3074720Y-1159916D01*
X3077870Y-1173124D01*
X3082747Y-1185824D01*
X3089300Y-1197711D01*
X3097377Y-1208633D01*
X3106775Y-1218387D01*
X3117443Y-1226820D01*
X3129127Y-1233728D01*
X3141624Y-1239062D01*
X3154730Y-1242618D01*
G37*
G36*
X4946192Y-990447D02*
G01*
X4959807Y-990447D01*
X4973269Y-988618D01*
X4986375Y-985062D01*
X4998872Y-979728D01*
X5010556Y-972819D01*
X5021224Y-964387D01*
X5030622Y-954633D01*
X5038699Y-943711D01*
X5045252Y-931824D01*
X5050129Y-919124D01*
X5053279Y-905916D01*
X5054600Y-892403D01*
X5054193Y-878840D01*
X5051907Y-865428D01*
X5047894Y-852474D01*
X5042154Y-840130D01*
X5034838Y-828700D01*
X5026101Y-818337D01*
X5015992Y-809193D01*
X5004816Y-801522D01*
X4992674Y-795375D01*
X4979873Y-790956D01*
X4966563Y-788212D01*
X4953000Y-787298D01*
X4939436Y-788212D01*
X4926126Y-790956D01*
X4913325Y-795375D01*
X4901184Y-801522D01*
X4890008Y-809193D01*
X4879898Y-818337D01*
X4871161Y-828700D01*
X4863846Y-840130D01*
X4858105Y-852474D01*
X4854092Y-865428D01*
X4851857Y-878840D01*
X4851400Y-892403D01*
X4852720Y-905916D01*
X4855870Y-919124D01*
X4860747Y-931824D01*
X4867300Y-943711D01*
X4875377Y-954633D01*
X4884775Y-964387D01*
X4895443Y-972819D01*
X4907127Y-979728D01*
X4919624Y-985062D01*
X4932730Y-988618D01*
G37*
G36*
X3168192Y-990447D02*
G01*
X3181807Y-990447D01*
X3195269Y-988618D01*
X3208375Y-985062D01*
X3220872Y-979728D01*
X3232556Y-972819D01*
X3243224Y-964387D01*
X3252622Y-954633D01*
X3260699Y-943711D01*
X3267252Y-931824D01*
X3272129Y-919124D01*
X3275279Y-905916D01*
X3276600Y-892403D01*
X3276193Y-878840D01*
X3273907Y-865428D01*
X3269894Y-852474D01*
X3264153Y-840130D01*
X3256838Y-828700D01*
X3248101Y-818337D01*
X3237992Y-809193D01*
X3226816Y-801522D01*
X3214674Y-795375D01*
X3201873Y-790956D01*
X3188563Y-788212D01*
X3175000Y-787298D01*
X3161436Y-788212D01*
X3148126Y-790956D01*
X3135325Y-795375D01*
X3123184Y-801522D01*
X3112008Y-809193D01*
X3101898Y-818337D01*
X3093161Y-828700D01*
X3085846Y-840130D01*
X3080105Y-852474D01*
X3076092Y-865428D01*
X3073857Y-878840D01*
X3073400Y-892403D01*
X3074720Y-905916D01*
X3077870Y-919124D01*
X3082747Y-931824D01*
X3089300Y-943711D01*
X3097377Y-954633D01*
X3106775Y-964387D01*
X3117443Y-972819D01*
X3129127Y-979728D01*
X3141624Y-985062D01*
X3154730Y-988618D01*
G37*
G36*
X-5331815Y-785926D02*
G01*
X-5132984Y-785926D01*
X-5126736Y-785215D01*
X-5121351Y-783336D01*
X-5116525Y-780288D01*
X-5112512Y-776274D01*
X-5109464Y-771448D01*
X-5107584Y-766064D01*
X-5106873Y-759815D01*
X-5106873Y-560984D01*
X-5107584Y-554736D01*
X-5109464Y-549351D01*
X-5112512Y-544525D01*
X-5116474Y-540562D01*
X-5118658Y-537311D01*
X-5119420Y-533400D01*
X-5118658Y-529488D01*
X-5116474Y-526237D01*
X-5112512Y-522274D01*
X-5109464Y-517448D01*
X-5107584Y-512064D01*
X-5106873Y-505815D01*
X-5106873Y-466902D01*
X-5106111Y-463042D01*
X-5103926Y-459740D01*
X-5100624Y-457504D01*
X-5096764Y-456742D01*
X-3494938Y-454863D01*
X-3485794Y-454050D01*
X-3477260Y-451764D01*
X-3469284Y-448056D01*
X-3462070Y-443026D01*
X-3455873Y-436829D01*
X-3450844Y-429615D01*
X-3447135Y-421640D01*
X-3444849Y-413105D01*
X-3444036Y-403910D01*
X-3444036Y1452118D01*
X-3443427Y1455521D01*
X-3441801Y1458518D01*
X-3434181Y1467916D01*
X-3428746Y1477314D01*
X-3424783Y1487474D01*
X-3422345Y1498142D01*
X-3421481Y1509369D01*
X-3421481Y1538630D01*
X-3422345Y1549857D01*
X-3424783Y1560525D01*
X-3428746Y1570685D01*
X-3434232Y1580083D01*
X-3440988Y1588617D01*
X-3449015Y1596034D01*
X-3458006Y1602181D01*
X-3467862Y1606905D01*
X-3478276Y1610156D01*
X-3489045Y1611782D01*
X-3499967Y1611782D01*
X-3510737Y1610156D01*
X-3521151Y1606905D01*
X-3531006Y1602181D01*
X-3537000Y1598117D01*
X-3540709Y1596542D01*
X-3544773Y1596542D01*
X-3548532Y1598168D01*
X-3552088Y1602384D01*
X-3556152Y1606397D01*
X-3560978Y1609394D01*
X-3566363Y1611325D01*
X-3572560Y1611985D01*
X-3666439Y1611985D01*
X-3672636Y1611325D01*
X-3678021Y1609394D01*
X-3682847Y1606397D01*
X-3686911Y1602384D01*
X-3689908Y1597558D01*
X-3691788Y1592173D01*
X-3692499Y1585925D01*
X-3692499Y1462074D01*
X-3691788Y1455826D01*
X-3689908Y1450441D01*
X-3686911Y1445615D01*
X-3682847Y1441602D01*
X-3678021Y1438605D01*
X-3673246Y1436014D01*
X-3670858Y1432610D01*
X-3669995Y1428546D01*
X-3669995Y467055D01*
X-3670757Y463194D01*
X-3672992Y459892D01*
X-3676294Y457657D01*
X-3680155Y456895D01*
X-5096713Y456895D01*
X-5100624Y457657D01*
X-5103926Y459892D01*
X-5106111Y463194D01*
X-5106873Y467055D01*
X-5106873Y505815D01*
X-5107584Y512064D01*
X-5109464Y517448D01*
X-5112512Y522274D01*
X-5116474Y526237D01*
X-5118658Y529488D01*
X-5119420Y533400D01*
X-5118658Y537311D01*
X-5116474Y540562D01*
X-5112512Y544525D01*
X-5109464Y549351D01*
X-5107584Y554736D01*
X-5106873Y560984D01*
X-5106873Y604062D01*
X-5176062Y604062D01*
X-5176062Y542036D01*
X-5176824Y538175D01*
X-5179009Y534873D01*
X-5182311Y532688D01*
X-5186222Y531876D01*
X-5278577Y531876D01*
X-5282488Y532688D01*
X-5285790Y534873D01*
X-5287975Y538175D01*
X-5288737Y542036D01*
X-5288737Y604062D01*
X-5357876Y604062D01*
X-5357876Y560984D01*
X-5357215Y554736D01*
X-5355336Y549351D01*
X-5352288Y544525D01*
X-5348325Y540562D01*
X-5346141Y537311D01*
X-5345379Y533400D01*
X-5346141Y529488D01*
X-5348325Y526237D01*
X-5352288Y522274D01*
X-5355336Y517448D01*
X-5357215Y512064D01*
X-5357876Y505815D01*
X-5357876Y306984D01*
X-5357215Y300736D01*
X-5355336Y295351D01*
X-5352288Y290525D01*
X-5348274Y286512D01*
X-5343448Y283464D01*
X-5338064Y281584D01*
X-5331815Y280873D01*
X-5132984Y280873D01*
X-5126736Y281584D01*
X-5121351Y283464D01*
X-5116525Y286512D01*
X-5112512Y290525D01*
X-5109464Y295351D01*
X-5107584Y300736D01*
X-5106873Y306984D01*
X-5106873Y345744D01*
X-5106111Y349605D01*
X-5103926Y352907D01*
X-5100624Y355142D01*
X-5096713Y355904D01*
X-3619957Y355904D01*
X-3610762Y356717D01*
X-3602228Y359003D01*
X-3594252Y362712D01*
X-3587038Y367741D01*
X-3580841Y373938D01*
X-3575812Y381152D01*
X-3572103Y389128D01*
X-3569817Y397662D01*
X-3569004Y406857D01*
X-3569004Y1428546D01*
X-3568242Y1432356D01*
X-3566160Y1435608D01*
X-3563010Y1437843D01*
X-3559352Y1439468D01*
X-3555441Y1440383D01*
X-3551478Y1439672D01*
X-3548126Y1437487D01*
X-3545840Y1434134D01*
X-3545027Y1430223D01*
X-3545027Y-343763D01*
X-3545789Y-347675D01*
X-3548024Y-350977D01*
X-3551275Y-353161D01*
X-3555187Y-353923D01*
X-5096713Y-355752D01*
X-5100624Y-354990D01*
X-5103926Y-352755D01*
X-5106111Y-349453D01*
X-5106873Y-345592D01*
X-5106873Y-306984D01*
X-5107584Y-300736D01*
X-5109464Y-295351D01*
X-5112512Y-290525D01*
X-5116525Y-286512D01*
X-5121351Y-283464D01*
X-5126736Y-281584D01*
X-5132984Y-280924D01*
X-5331815Y-280924D01*
X-5338064Y-281584D01*
X-5343448Y-283464D01*
X-5348274Y-286512D01*
X-5352288Y-290525D01*
X-5355336Y-295351D01*
X-5357215Y-300736D01*
X-5357876Y-306984D01*
X-5357876Y-505815D01*
X-5357215Y-512064D01*
X-5355336Y-517448D01*
X-5352288Y-522274D01*
X-5348325Y-526237D01*
X-5346141Y-529488D01*
X-5345379Y-533400D01*
X-5346141Y-537311D01*
X-5348325Y-540562D01*
X-5352288Y-544525D01*
X-5355336Y-549351D01*
X-5357215Y-554736D01*
X-5357876Y-560984D01*
X-5357876Y-759815D01*
X-5357215Y-766064D01*
X-5355336Y-771448D01*
X-5352288Y-776274D01*
X-5348274Y-780288D01*
X-5343448Y-783336D01*
X-5338064Y-785215D01*
G37*
G36*
X3168192Y-736447D02*
G01*
X3181807Y-736447D01*
X3195269Y-734618D01*
X3208375Y-731062D01*
X3220872Y-725728D01*
X3232556Y-718820D01*
X3243224Y-710387D01*
X3252622Y-700633D01*
X3260699Y-689711D01*
X3267252Y-677824D01*
X3272129Y-665124D01*
X3275279Y-651916D01*
X3276600Y-638403D01*
X3276193Y-624840D01*
X3273907Y-611428D01*
X3269894Y-598474D01*
X3264153Y-586130D01*
X3256838Y-574700D01*
X3248101Y-564337D01*
X3237992Y-555193D01*
X3226816Y-547522D01*
X3214674Y-541375D01*
X3201873Y-536956D01*
X3188563Y-534212D01*
X3175000Y-533298D01*
X3161436Y-534212D01*
X3148126Y-536956D01*
X3135325Y-541375D01*
X3123184Y-547522D01*
X3112008Y-555193D01*
X3101898Y-564337D01*
X3093161Y-574700D01*
X3085846Y-586130D01*
X3080105Y-598474D01*
X3076092Y-611428D01*
X3073857Y-624840D01*
X3073400Y-638403D01*
X3074720Y-651916D01*
X3077870Y-665124D01*
X3082747Y-677824D01*
X3089300Y-689711D01*
X3097377Y-700633D01*
X3106775Y-710387D01*
X3117443Y-718820D01*
X3129127Y-725728D01*
X3141624Y-731062D01*
X3154730Y-734618D01*
G37*
G36*
X4997450Y-726338D02*
G01*
X4998872Y-725728D01*
X5010556Y-718820D01*
X5021224Y-710387D01*
X5030622Y-700633D01*
X5038699Y-689711D01*
X5044338Y-679450D01*
X4997450Y-679450D01*
G37*
G36*
X4908550Y-726338D02*
G01*
X4908550Y-679450D01*
X4861661Y-679450D01*
X4867300Y-689711D01*
X4875377Y-700633D01*
X4884775Y-710387D01*
X4895443Y-718820D01*
X4907127Y-725728D01*
G37*
G36*
X4861763Y-590550D02*
G01*
X4908550Y-590550D01*
X4908550Y-543814D01*
X4901184Y-547522D01*
X4890008Y-555193D01*
X4879898Y-564337D01*
X4871161Y-574700D01*
X4863846Y-586130D01*
G37*
G36*
X4997450Y-590550D02*
G01*
X5044236Y-590550D01*
X5042154Y-586130D01*
X5034838Y-574700D01*
X5026101Y-564337D01*
X5015992Y-555193D01*
X5004816Y-547522D01*
X4997450Y-543814D01*
G37*
G36*
X4946192Y-482447D02*
G01*
X4959807Y-482447D01*
X4973269Y-480618D01*
X4986375Y-477062D01*
X4998872Y-471728D01*
X5010556Y-464820D01*
X5021224Y-456387D01*
X5030622Y-446633D01*
X5038699Y-435711D01*
X5045252Y-423824D01*
X5050129Y-411124D01*
X5053279Y-397916D01*
X5054600Y-384403D01*
X5054193Y-370840D01*
X5051907Y-357428D01*
X5047894Y-344474D01*
X5042154Y-332130D01*
X5034838Y-320700D01*
X5026101Y-310337D01*
X5015992Y-301193D01*
X5004816Y-293522D01*
X4992674Y-287375D01*
X4979873Y-282956D01*
X4966563Y-280212D01*
X4953000Y-279298D01*
X4939436Y-280212D01*
X4926126Y-282956D01*
X4913325Y-287375D01*
X4901184Y-293522D01*
X4890008Y-301193D01*
X4879898Y-310337D01*
X4871161Y-320700D01*
X4863846Y-332130D01*
X4858105Y-344474D01*
X4854092Y-357428D01*
X4851857Y-370840D01*
X4851400Y-384403D01*
X4852720Y-397916D01*
X4855870Y-411124D01*
X4860747Y-423824D01*
X4867300Y-435711D01*
X4875377Y-446633D01*
X4884775Y-456387D01*
X4895443Y-464820D01*
X4907127Y-471728D01*
X4919624Y-477062D01*
X4932730Y-480618D01*
G37*
G36*
X3168192Y-482447D02*
G01*
X3181807Y-482447D01*
X3195269Y-480618D01*
X3208375Y-477062D01*
X3220872Y-471728D01*
X3232556Y-464820D01*
X3243224Y-456387D01*
X3252622Y-446633D01*
X3260699Y-435711D01*
X3267252Y-423824D01*
X3272129Y-411124D01*
X3275279Y-397916D01*
X3276600Y-384403D01*
X3276193Y-370840D01*
X3273907Y-357428D01*
X3269894Y-344474D01*
X3264153Y-332130D01*
X3256838Y-320700D01*
X3248101Y-310337D01*
X3237992Y-301193D01*
X3226816Y-293522D01*
X3214674Y-287375D01*
X3201873Y-282956D01*
X3188563Y-280212D01*
X3175000Y-279298D01*
X3161436Y-280212D01*
X3148126Y-282956D01*
X3135325Y-287375D01*
X3123184Y-293522D01*
X3112008Y-301193D01*
X3101898Y-310337D01*
X3093161Y-320700D01*
X3085846Y-332130D01*
X3080105Y-344474D01*
X3076092Y-357428D01*
X3073857Y-370840D01*
X3073400Y-384403D01*
X3074720Y-397916D01*
X3077870Y-411124D01*
X3082747Y-423824D01*
X3089300Y-435711D01*
X3097377Y-446633D01*
X3106775Y-456387D01*
X3117443Y-464820D01*
X3129127Y-471728D01*
X3141624Y-477062D01*
X3154730Y-480618D01*
G37*
G36*
X-1904288Y4276699D02*
G01*
X-1845767Y4276699D01*
X-1845767Y4309160D01*
X-1846478Y4315409D01*
X-1848357Y4320794D01*
X-1851355Y4325620D01*
X-1855419Y4329633D01*
X-1860245Y4332681D01*
X-1865579Y4334560D01*
X-1871827Y4335221D01*
X-1904288Y4335221D01*
G37*
G36*
X1905000Y-305104D02*
G01*
X1914702Y-304292D01*
X1924151Y-301752D01*
X1932990Y-297637D01*
X1940966Y-292049D01*
X1947875Y-285140D01*
X1953463Y-277164D01*
X1957578Y-268325D01*
X1960118Y-258876D01*
X1960930Y-249174D01*
X1960118Y-239471D01*
X1957578Y-230022D01*
X1956460Y-227634D01*
X1955495Y-223367D01*
X1955495Y2285542D01*
X1954682Y2294737D01*
X1952396Y2303272D01*
X1948688Y2311247D01*
X1943658Y2318461D01*
X1937461Y2324658D01*
X1930247Y2329688D01*
X1922272Y2333396D01*
X1913737Y2335682D01*
X1904542Y2336495D01*
X1372006Y2336495D01*
X1367739Y2337460D01*
X1365351Y2338578D01*
X1355902Y2341118D01*
X1346200Y2341930D01*
X1336497Y2341118D01*
X1327048Y2338578D01*
X1318209Y2334463D01*
X1310233Y2328875D01*
X1303324Y2321966D01*
X1297736Y2313990D01*
X1293622Y2305151D01*
X1291082Y2295702D01*
X1290269Y2286000D01*
X1291082Y2276297D01*
X1293622Y2266848D01*
X1297736Y2258009D01*
X1303324Y2250033D01*
X1310233Y2243124D01*
X1318209Y2237536D01*
X1327048Y2233422D01*
X1336497Y2230882D01*
X1346200Y2230069D01*
X1355902Y2230882D01*
X1365351Y2233422D01*
X1367739Y2234539D01*
X1372006Y2235504D01*
X1844344Y2235504D01*
X1848205Y2234742D01*
X1851507Y2232507D01*
X1853742Y2229205D01*
X1854504Y2225344D01*
X1854504Y-223367D01*
X1853539Y-227634D01*
X1852422Y-230022D01*
X1849882Y-239471D01*
X1849069Y-249174D01*
X1849882Y-258876D01*
X1852422Y-268325D01*
X1856536Y-277164D01*
X1862124Y-285140D01*
X1869033Y-292049D01*
X1877009Y-297637D01*
X1885848Y-301752D01*
X1895297Y-304292D01*
G37*
G36*
X4946192Y-228447D02*
G01*
X4959807Y-228447D01*
X4973269Y-226618D01*
X4986375Y-223062D01*
X4998872Y-217728D01*
X5010556Y-210820D01*
X5021224Y-202387D01*
X5030622Y-192633D01*
X5038699Y-181711D01*
X5045252Y-169824D01*
X5050129Y-157124D01*
X5053279Y-143916D01*
X5054600Y-130403D01*
X5054193Y-116839D01*
X5051907Y-103428D01*
X5047894Y-90474D01*
X5042154Y-78130D01*
X5034838Y-66700D01*
X5026101Y-56337D01*
X5015992Y-47193D01*
X5004816Y-39522D01*
X4992674Y-33375D01*
X4979873Y-28956D01*
X4966563Y-26212D01*
X4953000Y-25298D01*
X4939436Y-26212D01*
X4926126Y-28956D01*
X4913325Y-33375D01*
X4901184Y-39522D01*
X4890008Y-47193D01*
X4879898Y-56337D01*
X4871161Y-66700D01*
X4863846Y-78130D01*
X4858105Y-90474D01*
X4854092Y-103428D01*
X4851857Y-116839D01*
X4851400Y-130403D01*
X4852720Y-143916D01*
X4855870Y-157124D01*
X4860747Y-169824D01*
X4867300Y-181711D01*
X4875377Y-192633D01*
X4884775Y-202387D01*
X4895443Y-210820D01*
X4907127Y-217728D01*
X4919624Y-223062D01*
X4932730Y-226618D01*
G37*
G36*
X3168192Y-228447D02*
G01*
X3181807Y-228447D01*
X3195269Y-226618D01*
X3208375Y-223062D01*
X3220872Y-217728D01*
X3232556Y-210820D01*
X3243224Y-202387D01*
X3252622Y-192633D01*
X3260699Y-181711D01*
X3267252Y-169824D01*
X3272129Y-157124D01*
X3275279Y-143916D01*
X3276600Y-130403D01*
X3276193Y-116839D01*
X3273907Y-103428D01*
X3269894Y-90474D01*
X3264153Y-78130D01*
X3256838Y-66700D01*
X3248101Y-56337D01*
X3237992Y-47193D01*
X3226816Y-39522D01*
X3214674Y-33375D01*
X3201873Y-28956D01*
X3188563Y-26212D01*
X3175000Y-25298D01*
X3161436Y-26212D01*
X3148126Y-28956D01*
X3135325Y-33375D01*
X3123184Y-39522D01*
X3112008Y-47193D01*
X3101898Y-56337D01*
X3093161Y-66700D01*
X3085846Y-78130D01*
X3080105Y-90474D01*
X3076092Y-103428D01*
X3073857Y-116839D01*
X3073400Y-130403D01*
X3074720Y-143916D01*
X3077870Y-157124D01*
X3082747Y-169824D01*
X3089300Y-181711D01*
X3097377Y-192633D01*
X3106775Y-202387D01*
X3117443Y-210820D01*
X3129127Y-217728D01*
X3141624Y-223062D01*
X3154730Y-226618D01*
G37*
G36*
X3168192Y25552D02*
G01*
X3181807Y25552D01*
X3195269Y27381D01*
X3208375Y30937D01*
X3220872Y36271D01*
X3232556Y43180D01*
X3243224Y51612D01*
X3252622Y61366D01*
X3260699Y72288D01*
X3267252Y84175D01*
X3272129Y96875D01*
X3275279Y110083D01*
X3276600Y123596D01*
X3276193Y137160D01*
X3273907Y150571D01*
X3269894Y163525D01*
X3264153Y175869D01*
X3256838Y187299D01*
X3248101Y197662D01*
X3237992Y206806D01*
X3226816Y214477D01*
X3214674Y220624D01*
X3201873Y225044D01*
X3188563Y227787D01*
X3175000Y228701D01*
X3161436Y227787D01*
X3148126Y225044D01*
X3135325Y220624D01*
X3123184Y214477D01*
X3112008Y206806D01*
X3101898Y197662D01*
X3093161Y187299D01*
X3085846Y175869D01*
X3080105Y163525D01*
X3076092Y150571D01*
X3073857Y137160D01*
X3073400Y123596D01*
X3074720Y110083D01*
X3077870Y96875D01*
X3082747Y84175D01*
X3089300Y72288D01*
X3097377Y61366D01*
X3106775Y51612D01*
X3117443Y43180D01*
X3129127Y36271D01*
X3141624Y30937D01*
X3154730Y27381D01*
G37*
G36*
X4946192Y25552D02*
G01*
X4959807Y25552D01*
X4973269Y27381D01*
X4986375Y30937D01*
X4998872Y36271D01*
X5010556Y43180D01*
X5021224Y51612D01*
X5030622Y61366D01*
X5038699Y72288D01*
X5045252Y84175D01*
X5050129Y96875D01*
X5053279Y110083D01*
X5054600Y123596D01*
X5054193Y137160D01*
X5051907Y150571D01*
X5047894Y163525D01*
X5042154Y175869D01*
X5034838Y187299D01*
X5026101Y197662D01*
X5015992Y206806D01*
X5004816Y214477D01*
X4992674Y220624D01*
X4979873Y225044D01*
X4966563Y227787D01*
X4953000Y228701D01*
X4939436Y227787D01*
X4926126Y225044D01*
X4913325Y220624D01*
X4901184Y214477D01*
X4890008Y206806D01*
X4879898Y197662D01*
X4871161Y187299D01*
X4863846Y175869D01*
X4858105Y163525D01*
X4854092Y150571D01*
X4851857Y137160D01*
X4851400Y123596D01*
X4852720Y110083D01*
X4855870Y96875D01*
X4860747Y84175D01*
X4867300Y72288D01*
X4875377Y61366D01*
X4884775Y51612D01*
X4895443Y43180D01*
X4907127Y36271D01*
X4919624Y30937D01*
X4932730Y27381D01*
G37*
G36*
X4946192Y279552D02*
G01*
X4959807Y279552D01*
X4973269Y281381D01*
X4986375Y284937D01*
X4998872Y290271D01*
X5010556Y297180D01*
X5021224Y305612D01*
X5030622Y315366D01*
X5038699Y326288D01*
X5045252Y338175D01*
X5050129Y350875D01*
X5053279Y364083D01*
X5054600Y377596D01*
X5054193Y391160D01*
X5051907Y404571D01*
X5047894Y417525D01*
X5042154Y429869D01*
X5034838Y441299D01*
X5026101Y451662D01*
X5015992Y460806D01*
X5004816Y468477D01*
X4992674Y474624D01*
X4979873Y479043D01*
X4966563Y481787D01*
X4953000Y482701D01*
X4939436Y481787D01*
X4926126Y479043D01*
X4913325Y474624D01*
X4901184Y468477D01*
X4890008Y460806D01*
X4879898Y451662D01*
X4871161Y441299D01*
X4863846Y429869D01*
X4858105Y417525D01*
X4854092Y404571D01*
X4851857Y391160D01*
X4851400Y377596D01*
X4852720Y364083D01*
X4855870Y350875D01*
X4860747Y338175D01*
X4867300Y326288D01*
X4875377Y315366D01*
X4884775Y305612D01*
X4895443Y297180D01*
X4907127Y290271D01*
X4919624Y284937D01*
X4932730Y281381D01*
G37*
G36*
X3168192Y279552D02*
G01*
X3181807Y279552D01*
X3195269Y281381D01*
X3208375Y284937D01*
X3220872Y290271D01*
X3232556Y297180D01*
X3243224Y305612D01*
X3252622Y315366D01*
X3260699Y326288D01*
X3267252Y338175D01*
X3272129Y350875D01*
X3275279Y364083D01*
X3276600Y377596D01*
X3276193Y391160D01*
X3273907Y404571D01*
X3269894Y417525D01*
X3264153Y429869D01*
X3256838Y441299D01*
X3248101Y451662D01*
X3237992Y460806D01*
X3226816Y468477D01*
X3214674Y474624D01*
X3201873Y479043D01*
X3188563Y481787D01*
X3175000Y482701D01*
X3161436Y481787D01*
X3148126Y479043D01*
X3135325Y474624D01*
X3123184Y468477D01*
X3112008Y460806D01*
X3101898Y451662D01*
X3093161Y441299D01*
X3085846Y429869D01*
X3080105Y417525D01*
X3076092Y404571D01*
X3073857Y391160D01*
X3073400Y377596D01*
X3074720Y364083D01*
X3077870Y350875D01*
X3082747Y338175D01*
X3089300Y326288D01*
X3097377Y315366D01*
X3106775Y305612D01*
X3117443Y297180D01*
X3129127Y290271D01*
X3141624Y284937D01*
X3154730Y281381D01*
G37*
G36*
X-2054250Y4276699D02*
G01*
X-1995728Y4276699D01*
X-1995728Y4335221D01*
X-2028189Y4335221D01*
X-2034387Y4334560D01*
X-2039772Y4332681D01*
X-2044598Y4329633D01*
X-2048611Y4325620D01*
X-2051659Y4320794D01*
X-2053539Y4315409D01*
X-2054250Y4309160D01*
G37*
G36*
X1600200Y4264558D02*
G01*
X1613814Y4265472D01*
X1627174Y4268114D01*
X1640078Y4272534D01*
X1652320Y4278528D01*
X1663649Y4286097D01*
X1673910Y4295089D01*
X1682902Y4305350D01*
X1690471Y4316679D01*
X1696466Y4328922D01*
X1700885Y4341825D01*
X1703527Y4355185D01*
X1704441Y4368800D01*
X1703527Y4382414D01*
X1700885Y4395774D01*
X1696466Y4408678D01*
X1690471Y4420920D01*
X1682902Y4432249D01*
X1673910Y4442510D01*
X1663649Y4451502D01*
X1652320Y4459071D01*
X1640078Y4465066D01*
X1627174Y4469485D01*
X1613814Y4472127D01*
X1600200Y4473041D01*
X1586585Y4472127D01*
X1573225Y4469485D01*
X1560322Y4465066D01*
X1548079Y4459071D01*
X1536750Y4451502D01*
X1526489Y4442510D01*
X1517497Y4432249D01*
X1509928Y4420920D01*
X1503934Y4408678D01*
X1499514Y4395774D01*
X1496872Y4382414D01*
X1495958Y4368800D01*
X1496872Y4355185D01*
X1499514Y4341825D01*
X1503934Y4328922D01*
X1509928Y4316679D01*
X1517497Y4305350D01*
X1526489Y4295089D01*
X1536750Y4286097D01*
X1548079Y4278528D01*
X1560322Y4272534D01*
X1573225Y4268114D01*
X1586585Y4265472D01*
G37*
G36*
X1346200Y4264558D02*
G01*
X1359814Y4265472D01*
X1373174Y4268114D01*
X1386078Y4272534D01*
X1398320Y4278528D01*
X1409649Y4286097D01*
X1419910Y4295089D01*
X1428902Y4305350D01*
X1436471Y4316679D01*
X1442466Y4328922D01*
X1446885Y4341825D01*
X1449527Y4355185D01*
X1450441Y4368800D01*
X1449527Y4382414D01*
X1446885Y4395774D01*
X1442466Y4408678D01*
X1436471Y4420920D01*
X1428902Y4432249D01*
X1419910Y4442510D01*
X1409649Y4451502D01*
X1398320Y4459071D01*
X1386078Y4465066D01*
X1373174Y4469485D01*
X1359814Y4472127D01*
X1346200Y4473041D01*
X1332585Y4472127D01*
X1319225Y4469485D01*
X1306322Y4465066D01*
X1294079Y4459071D01*
X1282750Y4451502D01*
X1272489Y4442510D01*
X1263497Y4432249D01*
X1255928Y4420920D01*
X1249934Y4408678D01*
X1245514Y4395774D01*
X1242872Y4382414D01*
X1241958Y4368800D01*
X1242872Y4355185D01*
X1245514Y4341825D01*
X1249934Y4328922D01*
X1255928Y4316679D01*
X1263497Y4305350D01*
X1272489Y4295089D01*
X1282750Y4286097D01*
X1294079Y4278528D01*
X1306322Y4272534D01*
X1319225Y4268114D01*
X1332585Y4265472D01*
G37*
G36*
X-3045815Y534873D02*
G01*
X-3002737Y534873D01*
X-3002737Y604062D01*
X-3071876Y604062D01*
X-3071876Y560984D01*
X-3071215Y554736D01*
X-3069336Y549351D01*
X-3066288Y544525D01*
X-3062274Y540512D01*
X-3057448Y537464D01*
X-3052064Y535584D01*
G37*
G36*
X-2890062Y534873D02*
G01*
X-2846984Y534873D01*
X-2840736Y535584D01*
X-2835351Y537464D01*
X-2830525Y540512D01*
X-2826512Y544525D01*
X-2823464Y549351D01*
X-2821584Y554736D01*
X-2820873Y560984D01*
X-2820873Y604062D01*
X-2890062Y604062D01*
G37*
G36*
X3219450Y543661D02*
G01*
X3220872Y544271D01*
X3232556Y551180D01*
X3243224Y559612D01*
X3252622Y569366D01*
X3260699Y580288D01*
X3266338Y590550D01*
X3219450Y590550D01*
G37*
G36*
X3130550Y543661D02*
G01*
X3130550Y590550D01*
X3083661Y590550D01*
X3089300Y580288D01*
X3097377Y569366D01*
X3106775Y559612D01*
X3117443Y551180D01*
X3129127Y544271D01*
G37*
G36*
X4997450Y543661D02*
G01*
X4998872Y544271D01*
X5010556Y551180D01*
X5021224Y559612D01*
X5030622Y569366D01*
X5038699Y580288D01*
X5044338Y590550D01*
X4997450Y590550D01*
G37*
G36*
X4908550Y543661D02*
G01*
X4908550Y590550D01*
X4861661Y590550D01*
X4867300Y580288D01*
X4875377Y569366D01*
X4884775Y559612D01*
X4895443Y551180D01*
X4907127Y544271D01*
G37*
G36*
X3083763Y679450D02*
G01*
X3130550Y679450D01*
X3130550Y726186D01*
X3123184Y722477D01*
X3112008Y714806D01*
X3101898Y705662D01*
X3093161Y695299D01*
X3085846Y683869D01*
G37*
G36*
X3219450Y679450D02*
G01*
X3266236Y679450D01*
X3264153Y683869D01*
X3256838Y695299D01*
X3248101Y705662D01*
X3237992Y714806D01*
X3226816Y722477D01*
X3219450Y726186D01*
G37*
G36*
X4861763Y679450D02*
G01*
X4908550Y679450D01*
X4908550Y726186D01*
X4901184Y722477D01*
X4890008Y714806D01*
X4879898Y705662D01*
X4871161Y695299D01*
X4863846Y683869D01*
G37*
G36*
X2207818Y-4930241D02*
G01*
X2364181Y-4930241D01*
X2370378Y-4929530D01*
X2375763Y-4927650D01*
X2380589Y-4924602D01*
X2384602Y-4920589D01*
X2387650Y-4915763D01*
X2389530Y-4910378D01*
X2390241Y-4904181D01*
X2390241Y-4747818D01*
X2389530Y-4741621D01*
X2387650Y-4736236D01*
X2384602Y-4731410D01*
X2380589Y-4727397D01*
X2375763Y-4724349D01*
X2370378Y-4722469D01*
X2364181Y-4721758D01*
X2207818Y-4721758D01*
X2201621Y-4722469D01*
X2196236Y-4724349D01*
X2191410Y-4727397D01*
X2187397Y-4731410D01*
X2184349Y-4736236D01*
X2182469Y-4741621D01*
X2181758Y-4747818D01*
X2181758Y-4904181D01*
X2182469Y-4910378D01*
X2184349Y-4915763D01*
X2187397Y-4920589D01*
X2191410Y-4924602D01*
X2196236Y-4927650D01*
X2201621Y-4929530D01*
G37*
G36*
X-3071876Y716737D02*
G01*
X-3002737Y716737D01*
X-3002737Y785876D01*
X-3045815Y785876D01*
X-3052064Y785215D01*
X-3057448Y783336D01*
X-3062274Y780288D01*
X-3066288Y776274D01*
X-3069336Y771448D01*
X-3071215Y766064D01*
X-3071876Y759815D01*
G37*
G36*
X-2890062Y716737D02*
G01*
X-2820873Y716737D01*
X-2820873Y759815D01*
X-2821584Y766064D01*
X-2823464Y771448D01*
X-2826512Y776274D01*
X-2830525Y780288D01*
X-2835351Y783336D01*
X-2840736Y785215D01*
X-2846984Y785876D01*
X-2890062Y785876D01*
G37*
G36*
X-5176062Y716737D02*
G01*
X-5106873Y716737D01*
X-5106873Y759815D01*
X-5107584Y766064D01*
X-5109464Y771448D01*
X-5112512Y776274D01*
X-5116525Y780288D01*
X-5121351Y783336D01*
X-5126736Y785215D01*
X-5132984Y785876D01*
X-5176062Y785876D01*
G37*
G36*
X-5357876Y716737D02*
G01*
X-5288737Y716737D01*
X-5288737Y785876D01*
X-5331815Y785876D01*
X-5338064Y785215D01*
X-5343448Y783336D01*
X-5348274Y780288D01*
X-5352288Y776274D01*
X-5355336Y771448D01*
X-5357215Y766064D01*
X-5357876Y759815D01*
G37*
G36*
X4946192Y787552D02*
G01*
X4959807Y787552D01*
X4973269Y789381D01*
X4986375Y792937D01*
X4998872Y798271D01*
X5010556Y805180D01*
X5021224Y813612D01*
X5030622Y823366D01*
X5038699Y834288D01*
X5045252Y846175D01*
X5050129Y858875D01*
X5053279Y872083D01*
X5054600Y885596D01*
X5054193Y899160D01*
X5051907Y912571D01*
X5047894Y925525D01*
X5042154Y937869D01*
X5034838Y949299D01*
X5026101Y959662D01*
X5015992Y968806D01*
X5004816Y976477D01*
X4992674Y982624D01*
X4979873Y987044D01*
X4966563Y989787D01*
X4953000Y990701D01*
X4939436Y989787D01*
X4926126Y987044D01*
X4913325Y982624D01*
X4901184Y976477D01*
X4890008Y968806D01*
X4879898Y959662D01*
X4871161Y949299D01*
X4863846Y937869D01*
X4858105Y925525D01*
X4854092Y912571D01*
X4851857Y899160D01*
X4851400Y885596D01*
X4852720Y872083D01*
X4855870Y858875D01*
X4860747Y846175D01*
X4867300Y834288D01*
X4875377Y823366D01*
X4884775Y813612D01*
X4895443Y805180D01*
X4907127Y798271D01*
X4919624Y792937D01*
X4932730Y789381D01*
G37*
G36*
X3168192Y787552D02*
G01*
X3181807Y787552D01*
X3195269Y789381D01*
X3208375Y792937D01*
X3220872Y798271D01*
X3232556Y805180D01*
X3243224Y813612D01*
X3252622Y823366D01*
X3260699Y834288D01*
X3267252Y846175D01*
X3272129Y858875D01*
X3275279Y872083D01*
X3276600Y885596D01*
X3276193Y899160D01*
X3273907Y912571D01*
X3269894Y925525D01*
X3264153Y937869D01*
X3256838Y949299D01*
X3248101Y959662D01*
X3237992Y968806D01*
X3226816Y976477D01*
X3214674Y982624D01*
X3201873Y987044D01*
X3188563Y989787D01*
X3175000Y990701D01*
X3161436Y989787D01*
X3148126Y987044D01*
X3135325Y982624D01*
X3123184Y976477D01*
X3112008Y968806D01*
X3101898Y959662D01*
X3093161Y949299D01*
X3085846Y937869D01*
X3080105Y925525D01*
X3076092Y912571D01*
X3073857Y899160D01*
X3073400Y885596D01*
X3074720Y872083D01*
X3077870Y858875D01*
X3082747Y846175D01*
X3089300Y834288D01*
X3097377Y823366D01*
X3106775Y813612D01*
X3117443Y805180D01*
X3129127Y798271D01*
X3141624Y792937D01*
X3154730Y789381D01*
G37*
G36*
X4946192Y1041552D02*
G01*
X4959807Y1041552D01*
X4973269Y1043381D01*
X4986375Y1046937D01*
X4998872Y1052271D01*
X5010556Y1059180D01*
X5021224Y1067612D01*
X5030622Y1077366D01*
X5038699Y1088288D01*
X5045252Y1100175D01*
X5050129Y1112875D01*
X5053279Y1126083D01*
X5054600Y1139596D01*
X5054193Y1153160D01*
X5051907Y1166571D01*
X5047894Y1179525D01*
X5042154Y1191869D01*
X5034838Y1203299D01*
X5026101Y1213662D01*
X5015992Y1222806D01*
X5004816Y1230477D01*
X4992674Y1236624D01*
X4979873Y1241044D01*
X4966563Y1243787D01*
X4953000Y1244701D01*
X4939436Y1243787D01*
X4926126Y1241044D01*
X4913325Y1236624D01*
X4901184Y1230477D01*
X4890008Y1222806D01*
X4879898Y1213662D01*
X4871161Y1203299D01*
X4863846Y1191869D01*
X4858105Y1179525D01*
X4854092Y1166571D01*
X4851857Y1153160D01*
X4851400Y1139596D01*
X4852720Y1126083D01*
X4855870Y1112875D01*
X4860747Y1100175D01*
X4867300Y1088288D01*
X4875377Y1077366D01*
X4884775Y1067612D01*
X4895443Y1059180D01*
X4907127Y1052271D01*
X4919624Y1046937D01*
X4932730Y1043381D01*
G37*
G36*
X3168192Y1041552D02*
G01*
X3181807Y1041552D01*
X3195269Y1043381D01*
X3208375Y1046937D01*
X3220872Y1052271D01*
X3232556Y1059180D01*
X3243224Y1067612D01*
X3252622Y1077366D01*
X3260699Y1088288D01*
X3267252Y1100175D01*
X3272129Y1112875D01*
X3275279Y1126083D01*
X3276600Y1139596D01*
X3276193Y1153160D01*
X3273907Y1166571D01*
X3269894Y1179525D01*
X3264153Y1191869D01*
X3256838Y1203299D01*
X3248101Y1213662D01*
X3237992Y1222806D01*
X3226816Y1230477D01*
X3214674Y1236624D01*
X3201873Y1241044D01*
X3188563Y1243787D01*
X3175000Y1244701D01*
X3161436Y1243787D01*
X3148126Y1241044D01*
X3135325Y1236624D01*
X3123184Y1230477D01*
X3112008Y1222806D01*
X3101898Y1213662D01*
X3093161Y1203299D01*
X3085846Y1191869D01*
X3080105Y1179525D01*
X3076092Y1166571D01*
X3073857Y1153160D01*
X3073400Y1139596D01*
X3074720Y1126083D01*
X3077870Y1112875D01*
X3082747Y1100175D01*
X3089300Y1088288D01*
X3097377Y1077366D01*
X3106775Y1067612D01*
X3117443Y1059180D01*
X3129127Y1052271D01*
X3141624Y1046937D01*
X3154730Y1043381D01*
G37*
G36*
X4946192Y1295552D02*
G01*
X4959807Y1295552D01*
X4973269Y1297381D01*
X4986375Y1300937D01*
X4998872Y1306271D01*
X5010556Y1313180D01*
X5021224Y1321612D01*
X5030622Y1331366D01*
X5038699Y1342288D01*
X5045252Y1354175D01*
X5050129Y1366875D01*
X5053279Y1380083D01*
X5054600Y1393596D01*
X5054193Y1407160D01*
X5051907Y1420571D01*
X5047894Y1433525D01*
X5042154Y1445869D01*
X5034838Y1457299D01*
X5026101Y1467662D01*
X5015992Y1476806D01*
X5004816Y1484477D01*
X4992674Y1490624D01*
X4979873Y1495044D01*
X4966563Y1497787D01*
X4953000Y1498701D01*
X4939436Y1497787D01*
X4926126Y1495044D01*
X4913325Y1490624D01*
X4901184Y1484477D01*
X4890008Y1476806D01*
X4879898Y1467662D01*
X4871161Y1457299D01*
X4863846Y1445869D01*
X4858105Y1433525D01*
X4854092Y1420571D01*
X4851857Y1407160D01*
X4851400Y1393596D01*
X4852720Y1380083D01*
X4855870Y1366875D01*
X4860747Y1354175D01*
X4867300Y1342288D01*
X4875377Y1331366D01*
X4884775Y1321612D01*
X4895443Y1313180D01*
X4907127Y1306271D01*
X4919624Y1300937D01*
X4932730Y1297381D01*
G37*
G36*
X3168192Y1295552D02*
G01*
X3181807Y1295552D01*
X3195269Y1297381D01*
X3208375Y1300937D01*
X3220872Y1306271D01*
X3232556Y1313180D01*
X3243224Y1321612D01*
X3252622Y1331366D01*
X3260699Y1342288D01*
X3267252Y1354175D01*
X3272129Y1366875D01*
X3275279Y1380083D01*
X3276600Y1393596D01*
X3276193Y1407160D01*
X3273907Y1420571D01*
X3269894Y1433525D01*
X3264153Y1445869D01*
X3256838Y1457299D01*
X3248101Y1467662D01*
X3237992Y1476806D01*
X3226816Y1484477D01*
X3214674Y1490624D01*
X3201873Y1495044D01*
X3188563Y1497787D01*
X3175000Y1498701D01*
X3161436Y1497787D01*
X3148126Y1495044D01*
X3135325Y1490624D01*
X3123184Y1484477D01*
X3112008Y1476806D01*
X3101898Y1467662D01*
X3093161Y1457299D01*
X3085846Y1445869D01*
X3080105Y1433525D01*
X3076092Y1420571D01*
X3073857Y1407160D01*
X3073400Y1393596D01*
X3074720Y1380083D01*
X3077870Y1366875D01*
X3082747Y1354175D01*
X3089300Y1342288D01*
X3097377Y1331366D01*
X3106775Y1321612D01*
X3117443Y1313180D01*
X3129127Y1306271D01*
X3141624Y1300937D01*
X3154730Y1297381D01*
G37*
G36*
X3168192Y1549552D02*
G01*
X3181807Y1549552D01*
X3195269Y1551381D01*
X3208375Y1554937D01*
X3220872Y1560271D01*
X3232556Y1567180D01*
X3243224Y1575612D01*
X3252622Y1585366D01*
X3260699Y1596288D01*
X3267252Y1608175D01*
X3272129Y1620875D01*
X3275279Y1634083D01*
X3276600Y1647596D01*
X3276193Y1661160D01*
X3273907Y1674571D01*
X3269894Y1687525D01*
X3264153Y1699869D01*
X3256838Y1711299D01*
X3248101Y1721662D01*
X3237992Y1730806D01*
X3226816Y1738477D01*
X3214674Y1744624D01*
X3201873Y1749043D01*
X3188563Y1751787D01*
X3175000Y1752701D01*
X3161436Y1751787D01*
X3148126Y1749043D01*
X3135325Y1744624D01*
X3123184Y1738477D01*
X3112008Y1730806D01*
X3101898Y1721662D01*
X3093161Y1711299D01*
X3085846Y1699869D01*
X3080105Y1687525D01*
X3076092Y1674571D01*
X3073857Y1661160D01*
X3073400Y1647596D01*
X3074720Y1634083D01*
X3077870Y1620875D01*
X3082747Y1608175D01*
X3089300Y1596288D01*
X3097377Y1585366D01*
X3106775Y1575612D01*
X3117443Y1567180D01*
X3129127Y1560271D01*
X3141624Y1554937D01*
X3154730Y1551381D01*
G37*
G36*
X4946192Y1549552D02*
G01*
X4959807Y1549552D01*
X4973269Y1551381D01*
X4986375Y1554937D01*
X4998872Y1560271D01*
X5010556Y1567180D01*
X5021224Y1575612D01*
X5030622Y1585366D01*
X5038699Y1596288D01*
X5045252Y1608175D01*
X5050129Y1620875D01*
X5053279Y1634083D01*
X5054600Y1647596D01*
X5054193Y1661160D01*
X5051907Y1674571D01*
X5047894Y1687525D01*
X5042154Y1699869D01*
X5034838Y1711299D01*
X5026101Y1721662D01*
X5015992Y1730806D01*
X5004816Y1738477D01*
X4992674Y1744624D01*
X4979873Y1749043D01*
X4966563Y1751787D01*
X4953000Y1752701D01*
X4939436Y1751787D01*
X4926126Y1749043D01*
X4913325Y1744624D01*
X4901184Y1738477D01*
X4890008Y1730806D01*
X4879898Y1721662D01*
X4871161Y1711299D01*
X4863846Y1699869D01*
X4858105Y1687525D01*
X4854092Y1674571D01*
X4851857Y1661160D01*
X4851400Y1647596D01*
X4852720Y1634083D01*
X4855870Y1620875D01*
X4860747Y1608175D01*
X4867300Y1596288D01*
X4875377Y1585366D01*
X4884775Y1575612D01*
X4895443Y1567180D01*
X4907127Y1560271D01*
X4919624Y1554937D01*
X4932730Y1551381D01*
G37*
G36*
X-2028189Y4126737D02*
G01*
X-1995728Y4126737D01*
X-1995728Y4185259D01*
X-2054250Y4185259D01*
X-2054250Y4152849D01*
X-2053539Y4146600D01*
X-2051659Y4141215D01*
X-2048611Y4136390D01*
X-2044598Y4132376D01*
X-2039772Y4129328D01*
X-2034387Y4127449D01*
G37*
G36*
X3219450Y1813661D02*
G01*
X3220872Y1814271D01*
X3232556Y1821180D01*
X3243224Y1829612D01*
X3252622Y1839366D01*
X3260699Y1850288D01*
X3266338Y1860550D01*
X3219450Y1860550D01*
G37*
G36*
X4908550Y1813661D02*
G01*
X4908550Y1860550D01*
X4861661Y1860550D01*
X4867300Y1850288D01*
X4875377Y1839366D01*
X4884775Y1829612D01*
X4895443Y1821180D01*
X4907127Y1814271D01*
G37*
G36*
X3130550Y1813661D02*
G01*
X3130550Y1860550D01*
X3083661Y1860550D01*
X3089300Y1850288D01*
X3097377Y1839366D01*
X3106775Y1829612D01*
X3117443Y1821180D01*
X3129127Y1814271D01*
G37*
G36*
X4997450Y1813661D02*
G01*
X4998872Y1814271D01*
X5010556Y1821180D01*
X5021224Y1829612D01*
X5030622Y1839366D01*
X5038699Y1850288D01*
X5044338Y1860550D01*
X4997450Y1860550D01*
G37*
G36*
X3083763Y1949450D02*
G01*
X3130550Y1949450D01*
X3130550Y1996186D01*
X3123184Y1992477D01*
X3112008Y1984806D01*
X3101898Y1975662D01*
X3093161Y1965299D01*
X3085846Y1953869D01*
G37*
G36*
X3219450Y1949450D02*
G01*
X3266236Y1949450D01*
X3264153Y1953869D01*
X3256838Y1965299D01*
X3248101Y1975662D01*
X3237992Y1984806D01*
X3226816Y1992477D01*
X3219450Y1996186D01*
G37*
G36*
X4861763Y1949450D02*
G01*
X4908550Y1949450D01*
X4908550Y1996186D01*
X4901184Y1992477D01*
X4890008Y1984806D01*
X4879898Y1975662D01*
X4871161Y1965299D01*
X4863846Y1953869D01*
G37*
G36*
X4997450Y1949450D02*
G01*
X5044236Y1949450D01*
X5042154Y1953869D01*
X5034838Y1965299D01*
X5026101Y1975662D01*
X5015992Y1984806D01*
X5004816Y1992477D01*
X4997450Y1996186D01*
G37*
G36*
X3168192Y2057552D02*
G01*
X3181807Y2057552D01*
X3195269Y2059381D01*
X3208375Y2062937D01*
X3220872Y2068271D01*
X3232556Y2075180D01*
X3243224Y2083612D01*
X3252622Y2093366D01*
X3260699Y2104288D01*
X3267252Y2116175D01*
X3272129Y2128875D01*
X3275279Y2142083D01*
X3276600Y2155596D01*
X3276193Y2169160D01*
X3273907Y2182571D01*
X3269894Y2195525D01*
X3264153Y2207869D01*
X3256838Y2219299D01*
X3248101Y2229662D01*
X3237992Y2238806D01*
X3226816Y2246477D01*
X3214674Y2252624D01*
X3201873Y2257044D01*
X3188563Y2259787D01*
X3175000Y2260701D01*
X3161436Y2259787D01*
X3148126Y2257044D01*
X3135325Y2252624D01*
X3123184Y2246477D01*
X3112008Y2238806D01*
X3101898Y2229662D01*
X3093161Y2219299D01*
X3085846Y2207869D01*
X3080105Y2195525D01*
X3076092Y2182571D01*
X3073857Y2169160D01*
X3073400Y2155596D01*
X3074720Y2142083D01*
X3077870Y2128875D01*
X3082747Y2116175D01*
X3089300Y2104288D01*
X3097377Y2093366D01*
X3106775Y2083612D01*
X3117443Y2075180D01*
X3129127Y2068271D01*
X3141624Y2062937D01*
X3154730Y2059381D01*
G37*
G36*
X4946192Y2057552D02*
G01*
X4959807Y2057552D01*
X4973269Y2059381D01*
X4986375Y2062937D01*
X4998872Y2068271D01*
X5010556Y2075180D01*
X5021224Y2083612D01*
X5030622Y2093366D01*
X5038699Y2104288D01*
X5045252Y2116175D01*
X5050129Y2128875D01*
X5053279Y2142083D01*
X5054600Y2155596D01*
X5054193Y2169160D01*
X5051907Y2182571D01*
X5047894Y2195525D01*
X5042154Y2207869D01*
X5034838Y2219299D01*
X5026101Y2229662D01*
X5015992Y2238806D01*
X5004816Y2246477D01*
X4992674Y2252624D01*
X4979873Y2257044D01*
X4966563Y2259787D01*
X4953000Y2260701D01*
X4939436Y2259787D01*
X4926126Y2257044D01*
X4913325Y2252624D01*
X4901184Y2246477D01*
X4890008Y2238806D01*
X4879898Y2229662D01*
X4871161Y2219299D01*
X4863846Y2207869D01*
X4858105Y2195525D01*
X4854092Y2182571D01*
X4851857Y2169160D01*
X4851400Y2155596D01*
X4852720Y2142083D01*
X4855870Y2128875D01*
X4860747Y2116175D01*
X4867300Y2104288D01*
X4875377Y2093366D01*
X4884775Y2083612D01*
X4895443Y2075180D01*
X4907127Y2068271D01*
X4919624Y2062937D01*
X4932730Y2059381D01*
G37*
G36*
X-1904288Y4126737D02*
G01*
X-1871827Y4126737D01*
X-1865579Y4127449D01*
X-1860245Y4129328D01*
X-1855419Y4132376D01*
X-1851355Y4136390D01*
X-1848357Y4141215D01*
X-1846478Y4146600D01*
X-1845767Y4152849D01*
X-1845767Y4185259D01*
X-1904288Y4185259D01*
G37*
G36*
X3810000Y2282139D02*
G01*
X3823766Y2283002D01*
X3837279Y2285695D01*
X3850386Y2290165D01*
X3862730Y2296261D01*
X3874211Y2303932D01*
X3884574Y2313025D01*
X3893667Y2323388D01*
X3901338Y2334869D01*
X3907434Y2347214D01*
X3911904Y2360320D01*
X3914597Y2373833D01*
X3915460Y2387600D01*
X3914597Y2401366D01*
X3911904Y2414879D01*
X3907434Y2427986D01*
X3901338Y2440330D01*
X3893667Y2451811D01*
X3884574Y2462174D01*
X3874211Y2471267D01*
X3862730Y2478938D01*
X3850386Y2485034D01*
X3837279Y2489504D01*
X3823766Y2492197D01*
X3810000Y2493060D01*
X3796233Y2492197D01*
X3782720Y2489504D01*
X3769614Y2485034D01*
X3757269Y2478938D01*
X3745788Y2471267D01*
X3735425Y2462174D01*
X3726332Y2451811D01*
X3718661Y2440330D01*
X3712565Y2427986D01*
X3708095Y2414879D01*
X3705402Y2401366D01*
X3704539Y2387600D01*
X3705402Y2373833D01*
X3708095Y2360320D01*
X3712565Y2347214D01*
X3718661Y2334869D01*
X3726332Y2323388D01*
X3735425Y2313025D01*
X3745788Y2303932D01*
X3757269Y2296261D01*
X3769614Y2290165D01*
X3782720Y2285695D01*
X3796233Y2283002D01*
G37*
G36*
X4318000Y2282139D02*
G01*
X4331766Y2283002D01*
X4345279Y2285695D01*
X4358386Y2290165D01*
X4370730Y2296261D01*
X4382211Y2303932D01*
X4392574Y2313025D01*
X4401667Y2323388D01*
X4409338Y2334869D01*
X4415434Y2347214D01*
X4419904Y2360320D01*
X4422597Y2373833D01*
X4423460Y2387600D01*
X4422597Y2401366D01*
X4419904Y2414879D01*
X4415434Y2427986D01*
X4409338Y2440330D01*
X4401667Y2451811D01*
X4392574Y2462174D01*
X4382211Y2471267D01*
X4370730Y2478938D01*
X4358386Y2485034D01*
X4345279Y2489504D01*
X4331766Y2492197D01*
X4318000Y2493060D01*
X4304233Y2492197D01*
X4290720Y2489504D01*
X4277614Y2485034D01*
X4265269Y2478938D01*
X4253788Y2471267D01*
X4243425Y2462174D01*
X4234332Y2451811D01*
X4226661Y2440330D01*
X4220565Y2427986D01*
X4216095Y2414879D01*
X4213402Y2401366D01*
X4212539Y2387600D01*
X4213402Y2373833D01*
X4216095Y2360320D01*
X4220565Y2347214D01*
X4226661Y2334869D01*
X4234332Y2323388D01*
X4243425Y2313025D01*
X4253788Y2303932D01*
X4265269Y2296261D01*
X4277614Y2290165D01*
X4290720Y2285695D01*
X4304233Y2283002D01*
G37*
G36*
X4017670Y2293112D02*
G01*
X4017670Y2341270D01*
X3969512Y2341270D01*
X3972661Y2334869D01*
X3980332Y2323388D01*
X3989425Y2313025D01*
X3999788Y2303932D01*
X4011269Y2296261D01*
G37*
G36*
X4110329Y2293112D02*
G01*
X4116730Y2296261D01*
X4128211Y2303932D01*
X4138574Y2313025D01*
X4147667Y2323388D01*
X4155338Y2334869D01*
X4158487Y2341270D01*
X4110329Y2341270D01*
G37*
G36*
X4946192Y2311552D02*
G01*
X4959807Y2311552D01*
X4973269Y2313381D01*
X4986375Y2316937D01*
X4998872Y2322271D01*
X5010556Y2329180D01*
X5021224Y2337612D01*
X5030622Y2347366D01*
X5038699Y2358288D01*
X5045252Y2370175D01*
X5050129Y2382875D01*
X5053279Y2396083D01*
X5054600Y2409596D01*
X5054193Y2423160D01*
X5051907Y2436571D01*
X5047894Y2449525D01*
X5042154Y2461869D01*
X5034838Y2473299D01*
X5026101Y2483662D01*
X5015992Y2492806D01*
X5004816Y2500477D01*
X4992674Y2506624D01*
X4979873Y2511044D01*
X4966563Y2513787D01*
X4953000Y2514701D01*
X4939436Y2513787D01*
X4926126Y2511044D01*
X4913325Y2506624D01*
X4901184Y2500477D01*
X4890008Y2492806D01*
X4879898Y2483662D01*
X4871161Y2473299D01*
X4863846Y2461869D01*
X4858105Y2449525D01*
X4854092Y2436571D01*
X4851857Y2423160D01*
X4851400Y2409596D01*
X4852720Y2396083D01*
X4855870Y2382875D01*
X4860747Y2370175D01*
X4867300Y2358288D01*
X4875377Y2347366D01*
X4884775Y2337612D01*
X4895443Y2329180D01*
X4907127Y2322271D01*
X4919624Y2316937D01*
X4932730Y2313381D01*
G37*
G36*
X3168192Y2311552D02*
G01*
X3181807Y2311552D01*
X3195269Y2313381D01*
X3208375Y2316937D01*
X3220872Y2322271D01*
X3232556Y2329180D01*
X3243224Y2337612D01*
X3252622Y2347366D01*
X3260699Y2358288D01*
X3267252Y2370175D01*
X3272129Y2382875D01*
X3275279Y2396083D01*
X3276600Y2409596D01*
X3276193Y2423160D01*
X3273907Y2436571D01*
X3269894Y2449525D01*
X3264153Y2461869D01*
X3256838Y2473299D01*
X3248101Y2483662D01*
X3237992Y2492806D01*
X3226816Y2500477D01*
X3214674Y2506624D01*
X3201873Y2511044D01*
X3188563Y2513787D01*
X3175000Y2514701D01*
X3161436Y2513787D01*
X3148126Y2511044D01*
X3135325Y2506624D01*
X3123184Y2500477D01*
X3112008Y2492806D01*
X3101898Y2483662D01*
X3093161Y2473299D01*
X3085846Y2461869D01*
X3080105Y2449525D01*
X3076092Y2436571D01*
X3073857Y2423160D01*
X3073400Y2409596D01*
X3074720Y2396083D01*
X3077870Y2382875D01*
X3082747Y2370175D01*
X3089300Y2358288D01*
X3097377Y2347366D01*
X3106775Y2337612D01*
X3117443Y2329180D01*
X3129127Y2322271D01*
X3141624Y2316937D01*
X3154730Y2313381D01*
G37*
G36*
X4110329Y2433929D02*
G01*
X4158487Y2433929D01*
X4155338Y2440330D01*
X4147667Y2451811D01*
X4138574Y2462174D01*
X4128211Y2471267D01*
X4116730Y2478938D01*
X4110329Y2482088D01*
G37*
G36*
X3969512Y2433929D02*
G01*
X4017670Y2433929D01*
X4017670Y2482088D01*
X4011269Y2478938D01*
X3999788Y2471267D01*
X3989425Y2462174D01*
X3980332Y2451811D01*
X3972661Y2440330D01*
G37*
G36*
X1522018Y2740558D02*
G01*
X1554480Y2740558D01*
X1554480Y2799080D01*
X1495958Y2799080D01*
X1495958Y2766618D01*
X1496669Y2760421D01*
X1498549Y2755036D01*
X1501597Y2750210D01*
X1505610Y2746197D01*
X1510436Y2743149D01*
X1515821Y2741269D01*
G37*
G36*
X1645920Y2740558D02*
G01*
X1678381Y2740558D01*
X1684578Y2741269D01*
X1689963Y2743149D01*
X1694789Y2746197D01*
X1698802Y2750210D01*
X1701850Y2755036D01*
X1703730Y2760421D01*
X1704441Y2766618D01*
X1704441Y2799080D01*
X1645920Y2799080D01*
G37*
G36*
X1346200Y2740558D02*
G01*
X1359814Y2741472D01*
X1373174Y2744114D01*
X1386078Y2748534D01*
X1398320Y2754528D01*
X1409649Y2762097D01*
X1419910Y2771089D01*
X1428902Y2781350D01*
X1436471Y2792679D01*
X1442466Y2804922D01*
X1446885Y2817825D01*
X1449527Y2831185D01*
X1450441Y2844800D01*
X1449527Y2858414D01*
X1446885Y2871774D01*
X1442466Y2884678D01*
X1436471Y2896920D01*
X1428902Y2908249D01*
X1419910Y2918510D01*
X1409649Y2927502D01*
X1398320Y2935071D01*
X1386078Y2941066D01*
X1373174Y2945485D01*
X1359814Y2948127D01*
X1346200Y2949041D01*
X1332585Y2948127D01*
X1319225Y2945485D01*
X1306322Y2941066D01*
X1294079Y2935071D01*
X1282750Y2927502D01*
X1272489Y2918510D01*
X1263497Y2908249D01*
X1255928Y2896920D01*
X1249934Y2884678D01*
X1245514Y2871774D01*
X1242872Y2858414D01*
X1241958Y2844800D01*
X1242872Y2831185D01*
X1245514Y2817825D01*
X1249934Y2804922D01*
X1255928Y2792679D01*
X1263497Y2781350D01*
X1272489Y2771089D01*
X1282750Y2762097D01*
X1294079Y2754528D01*
X1306322Y2748534D01*
X1319225Y2744114D01*
X1332585Y2741472D01*
G37*
G36*
X1495958Y2890520D02*
G01*
X1554480Y2890520D01*
X1554480Y2949041D01*
X1522018Y2949041D01*
X1515821Y2948330D01*
X1510436Y2946450D01*
X1505610Y2943402D01*
X1501597Y2939389D01*
X1498549Y2934563D01*
X1496669Y2929178D01*
X1495958Y2922981D01*
G37*
G36*
X1645920Y2890520D02*
G01*
X1704441Y2890520D01*
X1704441Y2922981D01*
X1703730Y2929178D01*
X1701850Y2934563D01*
X1698802Y2939389D01*
X1694789Y2943402D01*
X1689963Y2946450D01*
X1684578Y2948330D01*
X1678381Y2949041D01*
X1645920Y2949041D01*
G37*
G36*
X1600200Y2994558D02*
G01*
X1613814Y2995472D01*
X1627174Y2998114D01*
X1640078Y3002534D01*
X1652320Y3008528D01*
X1663649Y3016097D01*
X1673910Y3025089D01*
X1682902Y3035350D01*
X1690471Y3046679D01*
X1696466Y3058922D01*
X1700885Y3071825D01*
X1703527Y3085185D01*
X1704441Y3098800D01*
X1703527Y3112414D01*
X1700885Y3125774D01*
X1696466Y3138678D01*
X1690471Y3150920D01*
X1682902Y3162249D01*
X1673910Y3172510D01*
X1663649Y3181502D01*
X1652320Y3189071D01*
X1640078Y3195066D01*
X1627174Y3199485D01*
X1613814Y3202127D01*
X1600200Y3203041D01*
X1586585Y3202127D01*
X1573225Y3199485D01*
X1560322Y3195066D01*
X1548079Y3189071D01*
X1536750Y3181502D01*
X1526489Y3172510D01*
X1517497Y3162249D01*
X1509928Y3150920D01*
X1503934Y3138678D01*
X1499514Y3125774D01*
X1496872Y3112414D01*
X1495958Y3098800D01*
X1496872Y3085185D01*
X1499514Y3071825D01*
X1503934Y3058922D01*
X1509928Y3046679D01*
X1517497Y3035350D01*
X1526489Y3025089D01*
X1536750Y3016097D01*
X1548079Y3008528D01*
X1560322Y3002534D01*
X1573225Y2998114D01*
X1586585Y2995472D01*
G37*
G36*
X1346200Y2994558D02*
G01*
X1359814Y2995472D01*
X1373174Y2998114D01*
X1386078Y3002534D01*
X1398320Y3008528D01*
X1409649Y3016097D01*
X1419910Y3025089D01*
X1428902Y3035350D01*
X1436471Y3046679D01*
X1442466Y3058922D01*
X1446885Y3071825D01*
X1449527Y3085185D01*
X1450441Y3098800D01*
X1449527Y3112414D01*
X1446885Y3125774D01*
X1442466Y3138678D01*
X1436471Y3150920D01*
X1428902Y3162249D01*
X1419910Y3172510D01*
X1409649Y3181502D01*
X1398320Y3189071D01*
X1386078Y3195066D01*
X1373174Y3199485D01*
X1359814Y3202127D01*
X1346200Y3203041D01*
X1332585Y3202127D01*
X1319225Y3199485D01*
X1306322Y3195066D01*
X1294079Y3189071D01*
X1282750Y3181502D01*
X1272489Y3172510D01*
X1263497Y3162249D01*
X1255928Y3150920D01*
X1249934Y3138678D01*
X1245514Y3125774D01*
X1242872Y3112414D01*
X1241958Y3098800D01*
X1242872Y3085185D01*
X1245514Y3071825D01*
X1249934Y3058922D01*
X1255928Y3046679D01*
X1263497Y3035350D01*
X1272489Y3025089D01*
X1282750Y3016097D01*
X1294079Y3008528D01*
X1306322Y3002534D01*
X1319225Y2998114D01*
X1332585Y2995472D01*
G37*
G36*
X1600200Y3248558D02*
G01*
X1613814Y3249472D01*
X1627174Y3252114D01*
X1640078Y3256534D01*
X1652320Y3262528D01*
X1663649Y3270097D01*
X1673910Y3279089D01*
X1682902Y3289350D01*
X1690471Y3300679D01*
X1696466Y3312922D01*
X1700885Y3325825D01*
X1703527Y3339185D01*
X1704441Y3352800D01*
X1703527Y3366414D01*
X1700885Y3379774D01*
X1696466Y3392678D01*
X1690471Y3404920D01*
X1682902Y3416249D01*
X1673910Y3426510D01*
X1663649Y3435502D01*
X1652320Y3443071D01*
X1640078Y3449065D01*
X1627174Y3453485D01*
X1613814Y3456127D01*
X1600200Y3457041D01*
X1586585Y3456127D01*
X1573225Y3453485D01*
X1560322Y3449065D01*
X1548079Y3443071D01*
X1536750Y3435502D01*
X1526489Y3426510D01*
X1517497Y3416249D01*
X1509928Y3404920D01*
X1503934Y3392678D01*
X1499514Y3379774D01*
X1496872Y3366414D01*
X1495958Y3352800D01*
X1496872Y3339185D01*
X1499514Y3325825D01*
X1503934Y3312922D01*
X1509928Y3300679D01*
X1517497Y3289350D01*
X1526489Y3279089D01*
X1536750Y3270097D01*
X1548079Y3262528D01*
X1560322Y3256534D01*
X1573225Y3252114D01*
X1586585Y3249472D01*
G37*
G36*
X1346200Y3248558D02*
G01*
X1359814Y3249472D01*
X1373174Y3252114D01*
X1386078Y3256534D01*
X1398320Y3262528D01*
X1409649Y3270097D01*
X1419910Y3279089D01*
X1428902Y3289350D01*
X1436471Y3300679D01*
X1442466Y3312922D01*
X1446885Y3325825D01*
X1449527Y3339185D01*
X1450441Y3352800D01*
X1449527Y3366414D01*
X1446885Y3379774D01*
X1442466Y3392678D01*
X1436471Y3404920D01*
X1428902Y3416249D01*
X1419910Y3426510D01*
X1409649Y3435502D01*
X1398320Y3443071D01*
X1386078Y3449065D01*
X1373174Y3453485D01*
X1359814Y3456127D01*
X1346200Y3457041D01*
X1332585Y3456127D01*
X1319225Y3453485D01*
X1306322Y3449065D01*
X1294079Y3443071D01*
X1282750Y3435502D01*
X1272489Y3426510D01*
X1263497Y3416249D01*
X1255928Y3404920D01*
X1249934Y3392678D01*
X1245514Y3379774D01*
X1242872Y3366414D01*
X1241958Y3352800D01*
X1242872Y3339185D01*
X1245514Y3325825D01*
X1249934Y3312922D01*
X1255928Y3300679D01*
X1263497Y3289350D01*
X1272489Y3279089D01*
X1282750Y3270097D01*
X1294079Y3262528D01*
X1306322Y3256534D01*
X1319225Y3252114D01*
X1332585Y3249472D01*
G37*
G36*
X-1950008Y3364788D02*
G01*
X-1936394Y3365652D01*
X-1923034Y3368344D01*
X-1910130Y3372713D01*
X-1897888Y3378758D01*
X-1886559Y3386328D01*
X-1876298Y3395319D01*
X-1867306Y3405530D01*
X-1859737Y3416909D01*
X-1853692Y3429101D01*
X-1849323Y3442004D01*
X-1846681Y3455415D01*
X-1845767Y3468979D01*
X-1846681Y3482594D01*
X-1849323Y3495954D01*
X-1853692Y3508857D01*
X-1859737Y3521100D01*
X-1867306Y3532428D01*
X-1876298Y3542690D01*
X-1886559Y3551682D01*
X-1897888Y3559251D01*
X-1910130Y3565296D01*
X-1923034Y3569665D01*
X-1936394Y3572306D01*
X-1950008Y3573221D01*
X-1963623Y3572306D01*
X-1976983Y3569665D01*
X-1989886Y3565296D01*
X-2002129Y3559251D01*
X-2013457Y3551682D01*
X-2023719Y3542690D01*
X-2032660Y3532428D01*
X-2040280Y3521100D01*
X-2046274Y3508857D01*
X-2050694Y3495954D01*
X-2053336Y3482594D01*
X-2054199Y3468979D01*
X-2053336Y3455415D01*
X-2050694Y3442004D01*
X-2046274Y3429101D01*
X-2040280Y3416909D01*
X-2032660Y3405530D01*
X-2023719Y3395319D01*
X-2013457Y3386328D01*
X-2002129Y3378758D01*
X-1989886Y3372713D01*
X-1976983Y3368344D01*
X-1963623Y3365652D01*
G37*
G36*
X-3545738Y3394557D02*
G01*
X-3528669Y3395979D01*
X-3511854Y3399282D01*
X-3495497Y3404412D01*
X-3479800Y3411270D01*
X-3464966Y3419856D01*
X-3451148Y3429965D01*
X-3438550Y3441598D01*
X-3427323Y3454501D01*
X-3417519Y3468573D01*
X-3409391Y3483660D01*
X-3402939Y3499510D01*
X-3398265Y3516020D01*
X-3395472Y3532886D01*
X-3394506Y3550005D01*
X-3395472Y3567125D01*
X-3398265Y3583990D01*
X-3402939Y3600500D01*
X-3409391Y3616350D01*
X-3417519Y3631437D01*
X-3427323Y3645509D01*
X-3438550Y3658412D01*
X-3451148Y3670046D01*
X-3464966Y3680155D01*
X-3479800Y3688740D01*
X-3495497Y3695598D01*
X-3511854Y3700729D01*
X-3528669Y3704031D01*
X-3545738Y3705453D01*
X-3562858Y3704945D01*
X-3579825Y3702608D01*
X-3596436Y3698392D01*
X-3612438Y3692398D01*
X-3627729Y3684676D01*
X-3642106Y3675278D01*
X-3655314Y3664407D01*
X-3667251Y3652113D01*
X-3677767Y3638600D01*
X-3686759Y3624021D01*
X-3694074Y3608527D01*
X-3699611Y3592322D01*
X-3703370Y3575608D01*
X-3705250Y3558590D01*
X-3705250Y3541420D01*
X-3703370Y3524402D01*
X-3699611Y3507689D01*
X-3694074Y3491484D01*
X-3686759Y3475990D01*
X-3677767Y3461410D01*
X-3667251Y3447897D01*
X-3655314Y3435604D01*
X-3642106Y3424732D01*
X-3627729Y3415334D01*
X-3612438Y3407613D01*
X-3596436Y3401618D01*
X-3579825Y3397402D01*
X-3562858Y3395065D01*
G37*
G36*
X3554272Y3394557D02*
G01*
X3571341Y3395979D01*
X3588156Y3399282D01*
X3604514Y3404412D01*
X3620211Y3411270D01*
X3635044Y3419856D01*
X3648862Y3429965D01*
X3661460Y3441598D01*
X3672687Y3454501D01*
X3682492Y3468573D01*
X3690620Y3483660D01*
X3697071Y3499510D01*
X3701745Y3516020D01*
X3704539Y3532886D01*
X3705504Y3550005D01*
X3704539Y3567125D01*
X3701745Y3583990D01*
X3697071Y3600500D01*
X3690620Y3616350D01*
X3682492Y3631437D01*
X3672687Y3645509D01*
X3661460Y3658412D01*
X3648862Y3670046D01*
X3635044Y3680155D01*
X3620211Y3688740D01*
X3604514Y3695598D01*
X3588156Y3700729D01*
X3571341Y3704031D01*
X3554272Y3705453D01*
X3537153Y3704945D01*
X3520186Y3702608D01*
X3503574Y3698392D01*
X3487572Y3692398D01*
X3472281Y3684676D01*
X3457905Y3675278D01*
X3444697Y3664407D01*
X3432759Y3652113D01*
X3422243Y3638600D01*
X3413251Y3624021D01*
X3405936Y3608527D01*
X3400399Y3592322D01*
X3396640Y3575608D01*
X3394760Y3558590D01*
X3394760Y3541420D01*
X3396640Y3524402D01*
X3400399Y3507689D01*
X3405936Y3491484D01*
X3413251Y3475990D01*
X3422243Y3461410D01*
X3432759Y3447897D01*
X3444697Y3435604D01*
X3457905Y3424732D01*
X3472281Y3415334D01*
X3487572Y3407613D01*
X3503574Y3401618D01*
X3520186Y3397402D01*
X3537153Y3395065D01*
G37*
G36*
X1346200Y3502558D02*
G01*
X1359814Y3503472D01*
X1373174Y3506114D01*
X1386078Y3510534D01*
X1398320Y3516528D01*
X1409649Y3524097D01*
X1419910Y3533089D01*
X1428902Y3543350D01*
X1436471Y3554679D01*
X1442466Y3566922D01*
X1446885Y3579825D01*
X1449527Y3593185D01*
X1450441Y3606800D01*
X1449527Y3620414D01*
X1446885Y3633774D01*
X1442466Y3646678D01*
X1436471Y3658920D01*
X1428902Y3670249D01*
X1419910Y3680510D01*
X1409649Y3689502D01*
X1398320Y3697071D01*
X1386078Y3703065D01*
X1373174Y3707485D01*
X1359814Y3710127D01*
X1346200Y3711041D01*
X1332585Y3710127D01*
X1319225Y3707485D01*
X1306322Y3703065D01*
X1294079Y3697071D01*
X1282750Y3689502D01*
X1272489Y3680510D01*
X1263497Y3670249D01*
X1255928Y3658920D01*
X1249934Y3646678D01*
X1245514Y3633774D01*
X1242872Y3620414D01*
X1241958Y3606800D01*
X1242872Y3593185D01*
X1245514Y3579825D01*
X1249934Y3566922D01*
X1255928Y3554679D01*
X1263497Y3543350D01*
X1272489Y3533089D01*
X1282750Y3524097D01*
X1294079Y3516528D01*
X1306322Y3510534D01*
X1319225Y3506114D01*
X1332585Y3503472D01*
G37*
G36*
X1600200Y3502558D02*
G01*
X1613814Y3503472D01*
X1627174Y3506114D01*
X1640078Y3510534D01*
X1652320Y3516528D01*
X1663649Y3524097D01*
X1673910Y3533089D01*
X1682902Y3543350D01*
X1690471Y3554679D01*
X1696466Y3566922D01*
X1700885Y3579825D01*
X1703527Y3593185D01*
X1704441Y3606800D01*
X1703527Y3620414D01*
X1700885Y3633774D01*
X1696466Y3646678D01*
X1690471Y3658920D01*
X1682902Y3670249D01*
X1673910Y3680510D01*
X1663649Y3689502D01*
X1652320Y3697071D01*
X1640078Y3703065D01*
X1627174Y3707485D01*
X1613814Y3710127D01*
X1600200Y3711041D01*
X1586585Y3710127D01*
X1573225Y3707485D01*
X1560322Y3703065D01*
X1548079Y3697071D01*
X1536750Y3689502D01*
X1526489Y3680510D01*
X1517497Y3670249D01*
X1509928Y3658920D01*
X1503934Y3646678D01*
X1499514Y3633774D01*
X1496872Y3620414D01*
X1495958Y3606800D01*
X1496872Y3593185D01*
X1499514Y3579825D01*
X1503934Y3566922D01*
X1509928Y3554679D01*
X1517497Y3543350D01*
X1526489Y3533089D01*
X1536750Y3524097D01*
X1548079Y3516528D01*
X1560322Y3510534D01*
X1573225Y3506114D01*
X1586585Y3503472D01*
G37*
G36*
X-1950008Y3618788D02*
G01*
X-1936394Y3619652D01*
X-1923034Y3622344D01*
X-1910130Y3626713D01*
X-1897888Y3632758D01*
X-1886559Y3640328D01*
X-1876298Y3649319D01*
X-1867306Y3659530D01*
X-1859737Y3670909D01*
X-1853692Y3683101D01*
X-1849323Y3696004D01*
X-1846681Y3709415D01*
X-1845767Y3722979D01*
X-1846681Y3736594D01*
X-1849323Y3749954D01*
X-1853692Y3762857D01*
X-1859737Y3775100D01*
X-1867306Y3786428D01*
X-1876298Y3796690D01*
X-1886559Y3805682D01*
X-1897888Y3813251D01*
X-1910130Y3819296D01*
X-1923034Y3823665D01*
X-1936394Y3826306D01*
X-1950008Y3827221D01*
X-1963623Y3826306D01*
X-1976983Y3823665D01*
X-1989886Y3819296D01*
X-2002129Y3813251D01*
X-2013457Y3805682D01*
X-2023719Y3796690D01*
X-2032660Y3786428D01*
X-2040280Y3775100D01*
X-2046274Y3762857D01*
X-2050694Y3749954D01*
X-2053336Y3736594D01*
X-2054199Y3722979D01*
X-2053336Y3709415D01*
X-2050694Y3696004D01*
X-2046274Y3683101D01*
X-2040280Y3670909D01*
X-2032660Y3659530D01*
X-2023719Y3649319D01*
X-2013457Y3640328D01*
X-2002129Y3632758D01*
X-1989886Y3626713D01*
X-1976983Y3622344D01*
X-1963623Y3619652D01*
G37*
G36*
X1600200Y3756558D02*
G01*
X1613814Y3757472D01*
X1627174Y3760114D01*
X1640078Y3764534D01*
X1652320Y3770528D01*
X1663649Y3778097D01*
X1673910Y3787089D01*
X1682902Y3797350D01*
X1690471Y3808679D01*
X1696466Y3820922D01*
X1700885Y3833825D01*
X1703527Y3847185D01*
X1704441Y3860800D01*
X1703527Y3874414D01*
X1700885Y3887774D01*
X1696466Y3900678D01*
X1690471Y3912920D01*
X1682902Y3924249D01*
X1673910Y3934510D01*
X1663649Y3943502D01*
X1652320Y3951071D01*
X1640078Y3957065D01*
X1627174Y3961485D01*
X1613814Y3964127D01*
X1600200Y3965041D01*
X1586585Y3964127D01*
X1573225Y3961485D01*
X1560322Y3957065D01*
X1548079Y3951071D01*
X1536750Y3943502D01*
X1526489Y3934510D01*
X1517497Y3924249D01*
X1509928Y3912920D01*
X1503934Y3900678D01*
X1499514Y3887774D01*
X1496872Y3874414D01*
X1495958Y3860800D01*
X1496872Y3847185D01*
X1499514Y3833825D01*
X1503934Y3820922D01*
X1509928Y3808679D01*
X1517497Y3797350D01*
X1526489Y3787089D01*
X1536750Y3778097D01*
X1548079Y3770528D01*
X1560322Y3764534D01*
X1573225Y3760114D01*
X1586585Y3757472D01*
G37*
G36*
X1346200Y3756558D02*
G01*
X1359814Y3757472D01*
X1373174Y3760114D01*
X1386078Y3764534D01*
X1398320Y3770528D01*
X1409649Y3778097D01*
X1419910Y3787089D01*
X1428902Y3797350D01*
X1436471Y3808679D01*
X1442466Y3820922D01*
X1446885Y3833825D01*
X1449527Y3847185D01*
X1450441Y3860800D01*
X1449527Y3874414D01*
X1446885Y3887774D01*
X1442466Y3900678D01*
X1436471Y3912920D01*
X1428902Y3924249D01*
X1419910Y3934510D01*
X1409649Y3943502D01*
X1398320Y3951071D01*
X1386078Y3957065D01*
X1373174Y3961485D01*
X1359814Y3964127D01*
X1346200Y3965041D01*
X1332585Y3964127D01*
X1319225Y3961485D01*
X1306322Y3957065D01*
X1294079Y3951071D01*
X1282750Y3943502D01*
X1272489Y3934510D01*
X1263497Y3924249D01*
X1255928Y3912920D01*
X1249934Y3900678D01*
X1245514Y3887774D01*
X1242872Y3874414D01*
X1241958Y3860800D01*
X1242872Y3847185D01*
X1245514Y3833825D01*
X1249934Y3820922D01*
X1255928Y3808679D01*
X1263497Y3797350D01*
X1272489Y3787089D01*
X1282750Y3778097D01*
X1294079Y3770528D01*
X1306322Y3764534D01*
X1319225Y3760114D01*
X1332585Y3757472D01*
G37*
G36*
X-1950008Y3872788D02*
G01*
X-1936394Y3873652D01*
X-1923034Y3876344D01*
X-1910130Y3880713D01*
X-1897888Y3886758D01*
X-1886559Y3894328D01*
X-1876298Y3903319D01*
X-1867306Y3913530D01*
X-1859737Y3924909D01*
X-1853692Y3937101D01*
X-1849323Y3950004D01*
X-1846681Y3963415D01*
X-1845767Y3976979D01*
X-1846681Y3990594D01*
X-1849323Y4003954D01*
X-1853692Y4016857D01*
X-1859737Y4029100D01*
X-1867306Y4040428D01*
X-1876298Y4050690D01*
X-1886559Y4059682D01*
X-1897888Y4067251D01*
X-1910130Y4073296D01*
X-1923034Y4077665D01*
X-1936394Y4080306D01*
X-1950008Y4081221D01*
X-1963623Y4080306D01*
X-1976983Y4077665D01*
X-1989886Y4073296D01*
X-2002129Y4067251D01*
X-2013457Y4059682D01*
X-2023719Y4050690D01*
X-2032660Y4040428D01*
X-2040280Y4029100D01*
X-2046274Y4016857D01*
X-2050694Y4003954D01*
X-2053336Y3990594D01*
X-2054199Y3976979D01*
X-2053336Y3963415D01*
X-2050694Y3950004D01*
X-2046274Y3937101D01*
X-2040280Y3924909D01*
X-2032660Y3913530D01*
X-2023719Y3903319D01*
X-2013457Y3894328D01*
X-2002129Y3886758D01*
X-1989886Y3880713D01*
X-1976983Y3876344D01*
X-1963623Y3873652D01*
G37*
G36*
X1346200Y4010558D02*
G01*
X1359814Y4011472D01*
X1373174Y4014114D01*
X1386078Y4018534D01*
X1398320Y4024528D01*
X1409649Y4032097D01*
X1419910Y4041089D01*
X1428902Y4051350D01*
X1436471Y4062679D01*
X1442466Y4074922D01*
X1446885Y4087825D01*
X1449527Y4101185D01*
X1450441Y4114800D01*
X1449527Y4128414D01*
X1446885Y4141774D01*
X1442466Y4154678D01*
X1436471Y4166920D01*
X1428902Y4178249D01*
X1419910Y4188510D01*
X1409649Y4197502D01*
X1398320Y4205071D01*
X1386078Y4211066D01*
X1373174Y4215485D01*
X1359814Y4218127D01*
X1346200Y4219041D01*
X1332585Y4218127D01*
X1319225Y4215485D01*
X1306322Y4211066D01*
X1294079Y4205071D01*
X1282750Y4197502D01*
X1272489Y4188510D01*
X1263497Y4178249D01*
X1255928Y4166920D01*
X1249934Y4154678D01*
X1245514Y4141774D01*
X1242872Y4128414D01*
X1241958Y4114800D01*
X1242872Y4101185D01*
X1245514Y4087825D01*
X1249934Y4074922D01*
X1255928Y4062679D01*
X1263497Y4051350D01*
X1272489Y4041089D01*
X1282750Y4032097D01*
X1294079Y4024528D01*
X1306322Y4018534D01*
X1319225Y4014114D01*
X1332585Y4011472D01*
G37*
G36*
X1600200Y4010558D02*
G01*
X1613814Y4011472D01*
X1627174Y4014114D01*
X1640078Y4018534D01*
X1652320Y4024528D01*
X1663649Y4032097D01*
X1673910Y4041089D01*
X1682902Y4051350D01*
X1690471Y4062679D01*
X1696466Y4074922D01*
X1700885Y4087825D01*
X1703527Y4101185D01*
X1704441Y4114800D01*
X1703527Y4128414D01*
X1700885Y4141774D01*
X1696466Y4154678D01*
X1690471Y4166920D01*
X1682902Y4178249D01*
X1673910Y4188510D01*
X1663649Y4197502D01*
X1652320Y4205071D01*
X1640078Y4211066D01*
X1627174Y4215485D01*
X1613814Y4218127D01*
X1600200Y4219041D01*
X1586585Y4218127D01*
X1573225Y4215485D01*
X1560322Y4211066D01*
X1548079Y4205071D01*
X1536750Y4197502D01*
X1526489Y4188510D01*
X1517497Y4178249D01*
X1509928Y4166920D01*
X1503934Y4154678D01*
X1499514Y4141774D01*
X1496872Y4128414D01*
X1495958Y4114800D01*
X1496872Y4101185D01*
X1499514Y4087825D01*
X1503934Y4074922D01*
X1509928Y4062679D01*
X1517497Y4051350D01*
X1526489Y4041089D01*
X1536750Y4032097D01*
X1548079Y4024528D01*
X1560322Y4018534D01*
X1573225Y4014114D01*
X1586585Y4011472D01*
G37*
G36*
X2540000Y4058869D02*
G01*
X2549702Y4059682D01*
X2559151Y4062222D01*
X2567990Y4066336D01*
X2575966Y4071924D01*
X2582875Y4078833D01*
X2588463Y4086809D01*
X2592578Y4095648D01*
X2595118Y4105097D01*
X2595930Y4114800D01*
X2595118Y4124502D01*
X2592578Y4133951D01*
X2591460Y4136339D01*
X2590495Y4140606D01*
X2590495Y4685842D01*
X2589682Y4695037D01*
X2587396Y4703572D01*
X2583688Y4711547D01*
X2578658Y4718761D01*
X2572461Y4724958D01*
X2565247Y4729988D01*
X2557272Y4733696D01*
X2548737Y4735982D01*
X2539542Y4736795D01*
X1041806Y4736795D01*
X1037539Y4737760D01*
X1035151Y4738878D01*
X1025702Y4741418D01*
X1016000Y4742230D01*
X1006297Y4741418D01*
X996848Y4738878D01*
X988009Y4734763D01*
X980033Y4729175D01*
X973124Y4722266D01*
X967536Y4714290D01*
X963421Y4705451D01*
X960882Y4696002D01*
X960069Y4686300D01*
X960882Y4676597D01*
X963421Y4667148D01*
X967536Y4658309D01*
X973124Y4650333D01*
X980033Y4643424D01*
X988009Y4637836D01*
X996848Y4633722D01*
X1006297Y4631182D01*
X1016000Y4630369D01*
X1025702Y4631182D01*
X1035151Y4633722D01*
X1037539Y4634839D01*
X1041806Y4635804D01*
X2479344Y4635804D01*
X2483205Y4635042D01*
X2486507Y4632807D01*
X2488742Y4629505D01*
X2489504Y4625644D01*
X2489504Y4140606D01*
X2488539Y4136339D01*
X2487422Y4133951D01*
X2484882Y4124502D01*
X2484069Y4114800D01*
X2484882Y4105097D01*
X2487422Y4095648D01*
X2491536Y4086809D01*
X2497124Y4078833D01*
X2504033Y4071924D01*
X2512009Y4066336D01*
X2520848Y4062222D01*
X2530297Y4059682D01*
G37*
G36*
X4997450Y679450D02*
G01*
X5044236Y679450D01*
X5042154Y683869D01*
X5034838Y695299D01*
X5026101Y705662D01*
X5015992Y714806D01*
X5004816Y722477D01*
X4997450Y726186D01*
G37*

%LPD*%
D11*
X-5232400Y-406400D02*
G01*
X-3494531Y-404368D01*
X-3494531Y1524000D01*
X-5232400Y406400D02*
G01*
X-3619500Y406400D01*
X-3619500Y1524000D01*
X-3200400Y-1397000D02*
G01*
X-3200400Y660400D01*
X-2946400Y660400D01*
X-2946400Y-1397000D02*
G01*
X-2946400Y-660400D01*
X1905000Y-249173D02*
G01*
X1905000Y2286000D01*
X1346200Y2286000D01*
X4064000Y-889000D02*
G01*
X4064000Y-2794000D01*
X1016000Y4686300D02*
G01*
X2540000Y4686300D01*
X2540000Y4114800D01*
G75*
G01
X6000013Y0D02*
G03X6000013Y0I-6000013J0D01*
D15*
G01*
X-1950008Y4231004D03*
D16*
G01*
X-1950008Y3977004D03*
G01*
X-1950008Y3723004D03*
G01*
X-1950008Y3469004D03*
G36*
X-3285398Y-1318260D02*
G01*
X-3115398Y-1318260D01*
X-3115398Y-1475739D01*
X-3285398Y-1475739D01*
G37*
D18*
G01*
X-2946400Y-1397000D03*
D15*
G01*
X2286000Y-4826000D03*
D19*
G01*
X-2946400Y-660400D03*
G01*
X-2946400Y660400D03*
G01*
X-5232400Y-406400D03*
G01*
X-5232400Y406400D03*
G01*
X-5232400Y-660400D03*
G01*
X-5232400Y660400D03*
D15*
G01*
X1600200Y2844800D03*
D16*
G01*
X1346200Y2844800D03*
G01*
X1600200Y3098800D03*
G01*
X1346200Y3098800D03*
G01*
X1600200Y3352800D03*
G01*
X1346200Y3352800D03*
G01*
X1600200Y3606800D03*
G01*
X1346200Y3606800D03*
G01*
X1600200Y3860800D03*
G01*
X1346200Y3860800D03*
G01*
X1600200Y4114800D03*
G01*
X1346200Y4114800D03*
G01*
X1600200Y4368800D03*
G01*
X1346200Y4368800D03*
G36*
X-3666997Y1586499D02*
G01*
X-3571999Y1586499D01*
X-3571999Y1461498D01*
X-3666997Y1461498D01*
G37*
G36*
X-4479198Y-1064260D02*
G01*
X-4309198Y-1064260D01*
X-4309198Y-1221739D01*
X-4479198Y-1221739D01*
G37*
D18*
G01*
X-4140200Y-1143000D03*
D21*
G01*
X3175000Y2413000D03*
G01*
X3175000Y2159000D03*
G01*
X3175000Y1905000D03*
G01*
X3175000Y1651000D03*
G01*
X3175000Y1397000D03*
G01*
X3175000Y1143000D03*
G01*
X3175000Y889000D03*
G01*
X3175000Y635000D03*
G01*
X3175000Y381000D03*
G01*
X3175000Y127000D03*
G01*
X3175000Y-127000D03*
G01*
X3175000Y-381000D03*
G01*
X3175000Y-635000D03*
G01*
X3175000Y-889000D03*
G01*
X3175000Y-1143000D03*
G01*
X3175000Y-1397000D03*
G01*
X3175000Y-1651000D03*
G01*
X3175000Y-1905000D03*
G01*
X3175000Y-2159000D03*
G01*
X3175000Y-2413000D03*
G01*
X4953000Y-2413000D03*
G01*
X4953000Y-2159000D03*
G01*
X4953000Y-1905000D03*
G01*
X4953000Y-1651000D03*
G01*
X4953000Y-1397000D03*
G01*
X4953000Y-1143000D03*
G01*
X4953000Y-889000D03*
G01*
X4953000Y-635000D03*
G01*
X4953000Y-381000D03*
G01*
X4953000Y-127000D03*
G01*
X4953000Y127000D03*
G01*
X4953000Y381000D03*
G01*
X4953000Y635000D03*
G01*
X4953000Y889000D03*
G01*
X4953000Y1143000D03*
G01*
X4953000Y1397000D03*
G01*
X4953000Y1651000D03*
G01*
X4953000Y1905000D03*
G01*
X4953000Y2159000D03*
G01*
X4953000Y2413000D03*
D22*
G01*
X3810000Y2387600D03*
G01*
X4064000Y2387600D03*
G01*
X4318000Y2387600D03*
D21*
G01*
X2794000Y-3302000D03*
D23*
G01*
X1905000Y-249173D03*
G01*
X1346200Y2286000D03*
G01*
X4064000Y-2794000D03*
G01*
X4064000Y-889000D03*
G01*
X1016000Y4686300D03*
G01*
X2540000Y4114800D03*
D24*
X-3494506Y1539001D02*
G01*
X-3494506Y1508998D01*
M02*
