G04 Layer: TopSolderMaskLayer*
G04 EasyEDA v6.5.1, 2022-05-20 13:09:05*
G04 9a472788fb3748f5b1af1517000a09b8,10*
G04 Gerber Generator version 0.2*
G04 Scale: 100 percent, Rotated: No, Reflected: No *
G04 Dimensions in millimeters *
G04 leading zeros omitted , absolute positions ,4 integer and 5 decimal *
%FSLAX45Y45*%
%MOMM*%

%ADD32C,1.1532*%
%ADD33R,1.6764X1.6764*%
%ADD34C,1.6764*%
%ADD37C,1.8016*%
%ADD42C,1.7272*%
%ADD43C,1.8032*%
%ADD44C,0.8128*%

%LPD*%
D32*
X-3494506Y1539001D02*
G01*
X-3494506Y1508998D01*
G36*
X-2033778Y4147057D02*
G01*
X-2033778Y4314697D01*
X-1866137Y4314697D01*
X-1866137Y4147057D01*
G37*
D34*
G01*
X-1950008Y3977004D03*
G01*
X-1950008Y3723004D03*
G01*
X-1950008Y3469004D03*
G36*
X2212340Y1844039D02*
G01*
X2212340Y2118360D01*
X2740659Y2118360D01*
X2740659Y1844039D01*
G37*
G36*
X2212340Y929639D02*
G01*
X2212340Y1203960D01*
X2740659Y1203960D01*
X2740659Y929639D01*
G37*
G36*
X2212340Y1234439D02*
G01*
X2212340Y1508760D01*
X2740659Y1508760D01*
X2740659Y1234439D01*
G37*
G36*
X2212340Y1539239D02*
G01*
X2212340Y1813560D01*
X2740659Y1813560D01*
X2740659Y1539239D01*
G37*
G36*
X-1711960Y-886460D02*
G01*
X-1711960Y-612139D01*
X-1183639Y-612139D01*
X-1183639Y-886460D01*
G37*
G36*
X-1711960Y613663D02*
G01*
X-1711960Y887984D01*
X-1183639Y887984D01*
X-1183639Y613663D01*
G37*
G36*
X1188212Y-386334D02*
G01*
X1188212Y-112013D01*
X1716531Y-112013D01*
X1716531Y-386334D01*
G37*
G36*
X1188212Y113537D02*
G01*
X1188212Y387857D01*
X1716531Y387857D01*
X1716531Y113537D01*
G37*
G36*
X-3337560Y2415539D02*
G01*
X-3337560Y2689860D01*
X-2809239Y2689860D01*
X-2809239Y2415539D01*
G37*
G36*
X-4302760Y2415539D02*
G01*
X-4302760Y2689860D01*
X-3774439Y2689860D01*
X-3774439Y2415539D01*
G37*
G36*
X-3290570Y-1480820D02*
G01*
X-3290570Y-1313179D01*
X-3110229Y-1313179D01*
X-3110229Y-1480820D01*
G37*
D37*
G01*
X-2946400Y-1397000D03*
G36*
X2202179Y-4909820D02*
G01*
X2202179Y-4742179D01*
X2369820Y-4742179D01*
X2369820Y-4909820D01*
G37*
G36*
X-3056636Y-770636D02*
G01*
X-3056636Y-550163D01*
X-2836163Y-550163D01*
X-2836163Y-770636D01*
G37*
G36*
X-3056636Y550163D02*
G01*
X-3056636Y770636D01*
X-2836163Y770636D01*
X-2836163Y550163D01*
G37*
G36*
X-5342636Y-516636D02*
G01*
X-5342636Y-296163D01*
X-5122163Y-296163D01*
X-5122163Y-516636D01*
G37*
G36*
X-5342636Y296163D02*
G01*
X-5342636Y516636D01*
X-5122163Y516636D01*
X-5122163Y296163D01*
G37*
G36*
X-5342636Y-770636D02*
G01*
X-5342636Y-550163D01*
X-5122163Y-550163D01*
X-5122163Y-770636D01*
G37*
G36*
X-5342636Y550163D02*
G01*
X-5342636Y770636D01*
X-5122163Y770636D01*
X-5122163Y550163D01*
G37*
D33*
G01*
X1600200Y2844800D03*
D34*
G01*
X1346200Y2844800D03*
G01*
X1600200Y3098800D03*
G01*
X1346200Y3098800D03*
G01*
X1600200Y3352800D03*
G01*
X1346200Y3352800D03*
G01*
X1600200Y3606800D03*
G01*
X1346200Y3606800D03*
G01*
X1600200Y3860800D03*
G01*
X1346200Y3860800D03*
G01*
X1600200Y4114800D03*
G01*
X1346200Y4114800D03*
G01*
X1600200Y4368800D03*
G01*
X1346200Y4368800D03*
G36*
X-3677157Y1451355D02*
G01*
X-3677157Y1596644D01*
X-3561842Y1596644D01*
X-3561842Y1451355D01*
G37*
G36*
X-4484370Y-1226820D02*
G01*
X-4484370Y-1059179D01*
X-4304029Y-1059179D01*
X-4304029Y-1226820D01*
G37*
D37*
G01*
X-4140200Y-1143000D03*
G36*
X630173Y-4281423D02*
G01*
X630173Y-4121404D01*
X760221Y-4121404D01*
X760221Y-4281423D01*
G37*
G36*
X480313Y-4281423D02*
G01*
X480313Y-4121404D01*
X610107Y-4121404D01*
X610107Y-4281423D01*
G37*
G36*
X330200Y-4281423D02*
G01*
X330200Y-4121404D01*
X460247Y-4121404D01*
X460247Y-4281423D01*
G37*
G36*
X180339Y-4281423D02*
G01*
X180339Y-4121404D01*
X310134Y-4121404D01*
X310134Y-4281423D01*
G37*
G36*
X30226Y-4281423D02*
G01*
X30226Y-4121404D01*
X160273Y-4121404D01*
X160273Y-4281423D01*
G37*
G36*
X-119887Y-4281423D02*
G01*
X-119887Y-4121404D01*
X10160Y-4121404D01*
X10160Y-4281423D01*
G37*
G36*
X-269747Y-4281423D02*
G01*
X-269747Y-4121404D01*
X-139700Y-4121404D01*
X-139700Y-4281423D01*
G37*
G36*
X-419862Y-4281423D02*
G01*
X-419862Y-4121404D01*
X-289813Y-4121404D01*
X-289813Y-4281423D01*
G37*
G36*
X-569721Y-4281423D02*
G01*
X-569721Y-4121404D01*
X-439673Y-4121404D01*
X-439673Y-4281423D01*
G37*
G36*
X-719836Y-4281423D02*
G01*
X-719836Y-4121404D01*
X-589787Y-4121404D01*
X-589787Y-4281423D01*
G37*
G36*
X-869695Y-4281423D02*
G01*
X-869695Y-4121404D01*
X-739902Y-4121404D01*
X-739902Y-4281423D01*
G37*
G36*
X-1019810Y-4281423D02*
G01*
X-1019810Y-4121404D01*
X-889762Y-4121404D01*
X-889762Y-4281423D01*
G37*
G36*
X-1169670Y-4281423D02*
G01*
X-1169670Y-4121404D01*
X-1039876Y-4121404D01*
X-1039876Y-4281423D01*
G37*
G36*
X-1384807Y-4391405D02*
G01*
X-1384807Y-4261357D01*
X-1224787Y-4261357D01*
X-1224787Y-4391405D01*
G37*
G36*
X-1384807Y-4541520D02*
G01*
X-1384807Y-4411471D01*
X-1224787Y-4411471D01*
X-1224787Y-4541520D01*
G37*
G36*
X-1384807Y-4691379D02*
G01*
X-1384807Y-4561331D01*
X-1224787Y-4561331D01*
X-1224787Y-4691379D01*
G37*
G36*
X-1384807Y-4841494D02*
G01*
X-1384807Y-4711445D01*
X-1224787Y-4711445D01*
X-1224787Y-4841494D01*
G37*
G36*
X-1384807Y-4991354D02*
G01*
X-1384807Y-4861305D01*
X-1224787Y-4861305D01*
X-1224787Y-4991354D01*
G37*
G36*
X-1384807Y-5141468D02*
G01*
X-1384807Y-5011420D01*
X-1224787Y-5011420D01*
X-1224787Y-5141468D01*
G37*
G36*
X-1384807Y-5291328D02*
G01*
X-1384807Y-5161279D01*
X-1224787Y-5161279D01*
X-1224787Y-5291328D01*
G37*
G36*
X-1384807Y-5441442D02*
G01*
X-1384807Y-5311394D01*
X-1224787Y-5311394D01*
X-1224787Y-5441442D01*
G37*
G36*
X-1169670Y-5581395D02*
G01*
X-1169670Y-5421376D01*
X-1039876Y-5421376D01*
X-1039876Y-5581395D01*
G37*
G36*
X-1019810Y-5581395D02*
G01*
X-1019810Y-5421376D01*
X-889762Y-5421376D01*
X-889762Y-5581395D01*
G37*
G36*
X-869695Y-5581395D02*
G01*
X-869695Y-5421376D01*
X-739902Y-5421376D01*
X-739902Y-5581395D01*
G37*
G36*
X-719836Y-5581395D02*
G01*
X-719836Y-5421376D01*
X-589787Y-5421376D01*
X-589787Y-5581395D01*
G37*
G36*
X-569721Y-5581395D02*
G01*
X-569721Y-5421376D01*
X-439673Y-5421376D01*
X-439673Y-5581395D01*
G37*
G36*
X-419862Y-5581395D02*
G01*
X-419862Y-5421376D01*
X-289813Y-5421376D01*
X-289813Y-5581395D01*
G37*
G36*
X-269747Y-5581395D02*
G01*
X-269747Y-5421376D01*
X-139700Y-5421376D01*
X-139700Y-5581395D01*
G37*
G36*
X-119887Y-5581395D02*
G01*
X-119887Y-5421376D01*
X10160Y-5421376D01*
X10160Y-5581395D01*
G37*
G36*
X30226Y-5581395D02*
G01*
X30226Y-5421376D01*
X160273Y-5421376D01*
X160273Y-5581395D01*
G37*
G36*
X180339Y-5581395D02*
G01*
X180339Y-5421376D01*
X310134Y-5421376D01*
X310134Y-5581395D01*
G37*
G36*
X330200Y-5581395D02*
G01*
X330200Y-5421376D01*
X460247Y-5421376D01*
X460247Y-5581395D01*
G37*
G36*
X480313Y-5581395D02*
G01*
X480313Y-5421376D01*
X610107Y-5421376D01*
X610107Y-5581395D01*
G37*
G36*
X630173Y-5581395D02*
G01*
X630173Y-5421376D01*
X760221Y-5421376D01*
X760221Y-5581395D01*
G37*
D42*
G01*
X3175000Y2413000D03*
G01*
X3175000Y2159000D03*
G01*
X3175000Y1905000D03*
G01*
X3175000Y1651000D03*
G01*
X3175000Y1397000D03*
G01*
X3175000Y1143000D03*
G01*
X3175000Y889000D03*
G01*
X3175000Y635000D03*
G01*
X3175000Y381000D03*
G01*
X3175000Y127000D03*
G01*
X3175000Y-127000D03*
G01*
X3175000Y-381000D03*
G01*
X3175000Y-635000D03*
G01*
X3175000Y-889000D03*
G01*
X3175000Y-1143000D03*
G01*
X3175000Y-1397000D03*
G01*
X3175000Y-1651000D03*
G01*
X3175000Y-1905000D03*
G01*
X3175000Y-2159000D03*
G01*
X3175000Y-2413000D03*
G01*
X4953000Y-2413000D03*
G01*
X4953000Y-2159000D03*
G01*
X4953000Y-1905000D03*
G01*
X4953000Y-1651000D03*
G01*
X4953000Y-1397000D03*
G01*
X4953000Y-1143000D03*
G01*
X4953000Y-889000D03*
G01*
X4953000Y-635000D03*
G01*
X4953000Y-381000D03*
G01*
X4953000Y-127000D03*
G01*
X4953000Y127000D03*
G01*
X4953000Y381000D03*
G01*
X4953000Y635000D03*
G01*
X4953000Y889000D03*
G01*
X4953000Y1143000D03*
G01*
X4953000Y1397000D03*
G01*
X4953000Y1651000D03*
G01*
X4953000Y1905000D03*
G01*
X4953000Y2159000D03*
G01*
X4953000Y2413000D03*
D43*
G01*
X3810000Y2387600D03*
G01*
X4064000Y2387600D03*
G01*
X4318000Y2387600D03*
D42*
G01*
X2794000Y-3302000D03*
D44*
G01*
X1905000Y-249173D03*
G01*
X1346200Y2286000D03*
G01*
X4064000Y-2794000D03*
G01*
X4064000Y-889000D03*
G01*
X1016000Y4686300D03*
G01*
X2540000Y4114800D03*
M02*
