G04 Layer: TopSilkscreenLayer*
G04 EasyEDA v6.5.1, 2022-05-20 13:09:05*
G04 9a472788fb3748f5b1af1517000a09b8,10*
G04 Gerber Generator version 0.2*
G04 Scale: 100 percent, Rotated: No, Reflected: No *
G04 Dimensions in millimeters *
G04 leading zeros omitted , absolute positions ,4 integer and 5 decimal *
%FSLAX45Y45*%
%MOMM*%

%ADD10C,0.2540*%
%ADD25C,0.2032*%
%ADD26C,0.2030*%
%ADD27C,0.1500*%
%ADD28C,0.2000*%
%ADD29C,0.1524*%
%ADD30C,0.3200*%
%ADD31C,0.2500*%

%LPD*%
D28*
X-469900Y100329D02*
G01*
X-469900Y-90678D01*
X-469900Y100329D02*
G01*
X-406145Y100329D01*
X-378968Y91186D01*
X-360934Y72897D01*
X-351789Y54863D01*
X-342645Y27431D01*
X-342645Y-18034D01*
X-351789Y-45212D01*
X-360934Y-63500D01*
X-378968Y-81534D01*
X-406145Y-90678D01*
X-469900Y-90678D01*
X-146304Y54863D02*
G01*
X-155447Y72897D01*
X-173481Y91186D01*
X-191770Y100329D01*
X-228092Y100329D01*
X-246379Y91186D01*
X-264413Y72897D01*
X-273557Y54863D01*
X-282702Y27431D01*
X-282702Y-18034D01*
X-273557Y-45212D01*
X-264413Y-63500D01*
X-246379Y-81534D01*
X-228092Y-90678D01*
X-191770Y-90678D01*
X-173481Y-81534D01*
X-155447Y-63500D01*
X-146304Y-45212D01*
X-86360Y-8889D02*
G01*
X77470Y-8889D01*
X137413Y100329D02*
G01*
X137413Y-90678D01*
X137413Y100329D02*
G01*
X200913Y100329D01*
X228345Y91186D01*
X246379Y72897D01*
X255523Y54863D01*
X264668Y27431D01*
X264668Y-18034D01*
X255523Y-45212D01*
X246379Y-63500D01*
X228345Y-81534D01*
X200913Y-90678D01*
X137413Y-90678D01*
X461010Y54863D02*
G01*
X451865Y72897D01*
X433831Y91186D01*
X415544Y100329D01*
X379221Y100329D01*
X360934Y91186D01*
X342900Y72897D01*
X333755Y54863D01*
X324612Y27431D01*
X324612Y-18034D01*
X333755Y-45212D01*
X342900Y-63500D01*
X360934Y-81534D01*
X379221Y-90678D01*
X415544Y-90678D01*
X433831Y-81534D01*
X451865Y-63500D01*
X461010Y-45212D01*
X-469900Y3808476D02*
G01*
X-469900Y3717544D01*
X-460755Y3690365D01*
X-442721Y3681221D01*
X-415289Y3681221D01*
X-397255Y3690365D01*
X-369823Y3717544D01*
X-369823Y3808476D02*
G01*
X-369823Y3681221D01*
X-309879Y3763010D02*
G01*
X-146304Y3763010D01*
X-86360Y3872229D02*
G01*
X-86360Y3681221D01*
X-86360Y3781297D02*
G01*
X-68071Y3799331D01*
X-49784Y3808476D01*
X-22605Y3808476D01*
X-4571Y3799331D01*
X13715Y3781297D01*
X22860Y3753865D01*
X22860Y3735831D01*
X13715Y3708400D01*
X-4571Y3690365D01*
X-22605Y3681221D01*
X-49784Y3681221D01*
X-68071Y3690365D01*
X-86360Y3708400D01*
X82804Y3872229D02*
G01*
X82804Y3681221D01*
X188213Y3808476D02*
G01*
X170179Y3799331D01*
X151892Y3781297D01*
X142747Y3753865D01*
X142747Y3735831D01*
X151892Y3708400D01*
X170179Y3690365D01*
X188213Y3681221D01*
X215645Y3681221D01*
X233679Y3690365D01*
X251968Y3708400D01*
X261112Y3735831D01*
X261112Y3753865D01*
X251968Y3781297D01*
X233679Y3799331D01*
X215645Y3808476D01*
X188213Y3808476D01*
X321055Y3808476D02*
G01*
X421131Y3681221D01*
X421131Y3808476D02*
G01*
X321055Y3681221D01*
X2348229Y-3061462D02*
G01*
X2410713Y-3061462D01*
X2376677Y-3106928D01*
X2393695Y-3106928D01*
X2404872Y-3112770D01*
X2410713Y-3118357D01*
X2416302Y-3135376D01*
X2416302Y-3146805D01*
X2410713Y-3163823D01*
X2399284Y-3175254D01*
X2382265Y-3180842D01*
X2365247Y-3180842D01*
X2348229Y-3175254D01*
X2342388Y-3169412D01*
X2336800Y-3158236D01*
X2459481Y-3152394D02*
G01*
X2453893Y-3158236D01*
X2459481Y-3163823D01*
X2465324Y-3158236D01*
X2459481Y-3152394D01*
X2514091Y-3061462D02*
G01*
X2576575Y-3061462D01*
X2542540Y-3106928D01*
X2559558Y-3106928D01*
X2570988Y-3112770D01*
X2576575Y-3118357D01*
X2582163Y-3135376D01*
X2582163Y-3146805D01*
X2576575Y-3163823D01*
X2565145Y-3175254D01*
X2548127Y-3180842D01*
X2531109Y-3180842D01*
X2514091Y-3175254D01*
X2508504Y-3169412D01*
X2502661Y-3158236D01*
X2619756Y-3101339D02*
G01*
X2653791Y-3180842D01*
X2687827Y-3101339D02*
G01*
X2653791Y-3180842D01*
D25*
X-3505200Y-1402587D02*
G01*
X-3402837Y-1402587D01*
X-2692145Y-1351534D02*
G01*
X-2692145Y-1453642D01*
X-2743200Y-1402587D02*
G01*
X-2640837Y-1402587D01*
D29*
X-1599692Y4214621D02*
G01*
X-1589278Y4219955D01*
X-1578863Y4230370D01*
X-1573784Y4240529D01*
X-1573784Y4261357D01*
X-1578863Y4271771D01*
X-1589278Y4282186D01*
X-1599692Y4287520D01*
X-1615439Y4292600D01*
X-1641347Y4292600D01*
X-1656842Y4287520D01*
X-1667255Y4282186D01*
X-1677670Y4271771D01*
X-1682750Y4261357D01*
X-1682750Y4240529D01*
X-1677670Y4230370D01*
X-1667255Y4219955D01*
X-1656842Y4214621D01*
X-1641347Y4214621D01*
X-1641347Y4240529D02*
G01*
X-1641347Y4214621D01*
X-1573784Y4180331D02*
G01*
X-1625600Y4138929D01*
X-1682750Y4138929D01*
X-1573784Y4097273D02*
G01*
X-1625600Y4138929D01*
X-1636013Y4062984D02*
G01*
X-1636013Y3969512D01*
X-1599692Y3857244D02*
G01*
X-1589278Y3862323D01*
X-1578863Y3872737D01*
X-1573784Y3883152D01*
X-1573784Y3903979D01*
X-1578863Y3914394D01*
X-1589278Y3924807D01*
X-1599692Y3929887D01*
X-1615439Y3935221D01*
X-1641347Y3935221D01*
X-1656842Y3929887D01*
X-1667255Y3924807D01*
X-1677670Y3914394D01*
X-1682750Y3903979D01*
X-1682750Y3883152D01*
X-1677670Y3872737D01*
X-1667255Y3862323D01*
X-1656842Y3857244D01*
X-1641347Y3857244D01*
X-1641347Y3883152D02*
G01*
X-1641347Y3857244D01*
X-1573784Y3822954D02*
G01*
X-1682750Y3822954D01*
X-1573784Y3822954D02*
G01*
X-1573784Y3776218D01*
X-1578863Y3760470D01*
X-1584197Y3755389D01*
X-1594612Y3750310D01*
X-1610105Y3750310D01*
X-1620520Y3755389D01*
X-1625600Y3760470D01*
X-1630934Y3776218D01*
X-1630934Y3822954D01*
X-1589278Y3643121D02*
G01*
X-1578863Y3653536D01*
X-1573784Y3669029D01*
X-1573784Y3689857D01*
X-1578863Y3705605D01*
X-1589278Y3716020D01*
X-1599692Y3716020D01*
X-1610105Y3710686D01*
X-1615439Y3705605D01*
X-1620520Y3695192D01*
X-1630934Y3663950D01*
X-1636013Y3653536D01*
X-1641347Y3648455D01*
X-1651762Y3643121D01*
X-1667255Y3643121D01*
X-1677670Y3653536D01*
X-1682750Y3669029D01*
X-1682750Y3689857D01*
X-1677670Y3705605D01*
X-1667255Y3716020D01*
X-1573784Y3608831D02*
G01*
X-1682750Y3567429D01*
X-1573784Y3525773D02*
G01*
X-1682750Y3567429D01*
X-1573784Y3481070D02*
G01*
X-1573784Y3423920D01*
X-1615439Y3455162D01*
X-1615439Y3439413D01*
X-1620520Y3429000D01*
X-1625600Y3423920D01*
X-1641347Y3418839D01*
X-1651762Y3418839D01*
X-1667255Y3423920D01*
X-1677670Y3434334D01*
X-1682750Y3449828D01*
X-1682750Y3465576D01*
X-1677670Y3481070D01*
X-1672589Y3486150D01*
X-1662176Y3491484D01*
X1826513Y2033015D02*
G01*
X1883663Y2033015D01*
X1852421Y1991360D01*
X1868170Y1991360D01*
X1878329Y1986279D01*
X1883663Y1981200D01*
X1888744Y1965452D01*
X1888744Y1955037D01*
X1883663Y1939544D01*
X1873250Y1929129D01*
X1857755Y1924050D01*
X1842007Y1924050D01*
X1826513Y1929129D01*
X1821179Y1934210D01*
X1816100Y1944623D01*
X1928368Y1949957D02*
G01*
X1923034Y1944623D01*
X1928368Y1939544D01*
X1933447Y1944623D01*
X1928368Y1949957D01*
X1978152Y2033015D02*
G01*
X2035302Y2033015D01*
X2004059Y1991360D01*
X2019808Y1991360D01*
X2030222Y1986279D01*
X2035302Y1981200D01*
X2040636Y1965452D01*
X2040636Y1955037D01*
X2035302Y1939544D01*
X2024888Y1929129D01*
X2009393Y1924050D01*
X1993900Y1924050D01*
X1978152Y1929129D01*
X1973072Y1934210D01*
X1967738Y1944623D01*
X2074925Y2033015D02*
G01*
X2116327Y1924050D01*
X2157984Y2033015D02*
G01*
X2116327Y1924050D01*
X1932177Y1092707D02*
G01*
X1926844Y1103121D01*
X1916429Y1113536D01*
X1906270Y1118615D01*
X1885442Y1118615D01*
X1875028Y1113536D01*
X1864613Y1103121D01*
X1859279Y1092707D01*
X1854200Y1076960D01*
X1854200Y1051052D01*
X1859279Y1035557D01*
X1864613Y1025144D01*
X1875028Y1014729D01*
X1885442Y1009650D01*
X1906270Y1009650D01*
X1916429Y1014729D01*
X1926844Y1025144D01*
X1932177Y1035557D01*
X1932177Y1051052D01*
X1906270Y1051052D02*
G01*
X1932177Y1051052D01*
X1966468Y1118615D02*
G01*
X1966468Y1009650D01*
X1966468Y1118615D02*
G01*
X2039111Y1009650D01*
X2039111Y1118615D02*
G01*
X2039111Y1009650D01*
X2073402Y1118615D02*
G01*
X2073402Y1009650D01*
X2073402Y1118615D02*
G01*
X2109724Y1118615D01*
X2125472Y1113536D01*
X2135886Y1103121D01*
X2140965Y1092707D01*
X2146300Y1076960D01*
X2146300Y1051052D01*
X2140965Y1035557D01*
X2135886Y1025144D01*
X2125472Y1014729D01*
X2109724Y1009650D01*
X2073402Y1009650D01*
X1939543Y1407921D02*
G01*
X1929129Y1418336D01*
X1913636Y1423415D01*
X1892807Y1423415D01*
X1877313Y1418336D01*
X1866900Y1407921D01*
X1866900Y1397507D01*
X1871979Y1387094D01*
X1877313Y1381760D01*
X1887728Y1376679D01*
X1918970Y1366265D01*
X1929129Y1361186D01*
X1934463Y1355852D01*
X1939543Y1345437D01*
X1939543Y1329944D01*
X1929129Y1319529D01*
X1913636Y1314450D01*
X1892807Y1314450D01*
X1877313Y1319529D01*
X1866900Y1329944D01*
X2051811Y1397507D02*
G01*
X2046731Y1407921D01*
X2036318Y1418336D01*
X2025904Y1423415D01*
X2005075Y1423415D01*
X1994661Y1418336D01*
X1984247Y1407921D01*
X1979168Y1397507D01*
X1973834Y1381760D01*
X1973834Y1355852D01*
X1979168Y1340357D01*
X1984247Y1329944D01*
X1994661Y1319529D01*
X2005075Y1314450D01*
X2025904Y1314450D01*
X2036318Y1319529D01*
X2046731Y1329944D01*
X2051811Y1340357D01*
X2086102Y1423415D02*
G01*
X2086102Y1314450D01*
X2086102Y1314450D02*
G01*
X2148586Y1314450D01*
X1926844Y1700021D02*
G01*
X1916429Y1710436D01*
X1900936Y1715515D01*
X1880107Y1715515D01*
X1864613Y1710436D01*
X1854200Y1700021D01*
X1854200Y1689607D01*
X1859279Y1679194D01*
X1864613Y1673860D01*
X1875028Y1668779D01*
X1906270Y1658365D01*
X1916429Y1653286D01*
X1921763Y1647952D01*
X1926844Y1637537D01*
X1926844Y1622044D01*
X1916429Y1611629D01*
X1900936Y1606550D01*
X1880107Y1606550D01*
X1864613Y1611629D01*
X1854200Y1622044D01*
X1961134Y1715515D02*
G01*
X1961134Y1606550D01*
X1961134Y1715515D02*
G01*
X1997709Y1715515D01*
X2013204Y1710436D01*
X2023618Y1700021D01*
X2028697Y1689607D01*
X2034031Y1673860D01*
X2034031Y1647952D01*
X2028697Y1632457D01*
X2023618Y1622044D01*
X2013204Y1611629D01*
X1997709Y1606550D01*
X1961134Y1606550D01*
X2109724Y1715515D02*
G01*
X2068322Y1606550D01*
X2109724Y1715515D02*
G01*
X2151379Y1606550D01*
X2083815Y1642871D02*
G01*
X2135886Y1642871D01*
X-1079500Y-684784D02*
G01*
X-1037844Y-793750D01*
X-996442Y-684784D02*
G01*
X-1037844Y-793750D01*
X-962152Y-684784D02*
G01*
X-962152Y-793750D01*
X-927862Y-684784D02*
G01*
X-927862Y-793750D01*
X-927862Y-684784D02*
G01*
X-854963Y-793750D01*
X-854963Y-684784D02*
G01*
X-854963Y-793750D01*
X-773937Y-700278D02*
G01*
X-773937Y-793750D01*
X-820673Y-747013D02*
G01*
X-727202Y-747013D01*
X-1104900Y801115D02*
G01*
X-1063244Y692150D01*
X-1021842Y801115D02*
G01*
X-1063244Y692150D01*
X-987552Y801115D02*
G01*
X-987552Y692150D01*
X-953262Y801115D02*
G01*
X-953262Y692150D01*
X-953262Y801115D02*
G01*
X-880363Y692150D01*
X-880363Y801115D02*
G01*
X-880363Y692150D01*
X-846073Y738886D02*
G01*
X-752602Y738886D01*
X596900Y-189484D02*
G01*
X638555Y-298450D01*
X679957Y-189484D02*
G01*
X638555Y-298450D01*
X745489Y-189484D02*
G01*
X735076Y-194563D01*
X724662Y-204978D01*
X719581Y-215392D01*
X714247Y-231139D01*
X714247Y-257047D01*
X719581Y-272542D01*
X724662Y-282955D01*
X735076Y-293370D01*
X745489Y-298450D01*
X766318Y-298450D01*
X776731Y-293370D01*
X787145Y-282955D01*
X792226Y-272542D01*
X797560Y-257047D01*
X797560Y-231139D01*
X792226Y-215392D01*
X787145Y-204978D01*
X776731Y-194563D01*
X766318Y-189484D01*
X745489Y-189484D01*
X831850Y-189484D02*
G01*
X831850Y-267462D01*
X836929Y-282955D01*
X847344Y-293370D01*
X862837Y-298450D01*
X873252Y-298450D01*
X889000Y-293370D01*
X899160Y-282955D01*
X904494Y-267462D01*
X904494Y-189484D01*
X975105Y-189484D02*
G01*
X975105Y-298450D01*
X938784Y-189484D02*
G01*
X1011428Y-189484D01*
X1092454Y-204978D02*
G01*
X1092454Y-298450D01*
X1045718Y-251713D02*
G01*
X1139189Y-251713D01*
X596900Y305815D02*
G01*
X638555Y196850D01*
X679957Y305815D02*
G01*
X638555Y196850D01*
X745489Y305815D02*
G01*
X735076Y300736D01*
X724662Y290321D01*
X719581Y279907D01*
X714247Y264160D01*
X714247Y238252D01*
X719581Y222757D01*
X724662Y212344D01*
X735076Y201929D01*
X745489Y196850D01*
X766318Y196850D01*
X776731Y201929D01*
X787145Y212344D01*
X792226Y222757D01*
X797560Y238252D01*
X797560Y264160D01*
X792226Y279907D01*
X787145Y290321D01*
X776731Y300736D01*
X766318Y305815D01*
X745489Y305815D01*
X831850Y305815D02*
G01*
X831850Y227837D01*
X836929Y212344D01*
X847344Y201929D01*
X862837Y196850D01*
X873252Y196850D01*
X889000Y201929D01*
X899160Y212344D01*
X904494Y227837D01*
X904494Y305815D01*
X975105Y305815D02*
G01*
X975105Y196850D01*
X938784Y305815D02*
G01*
X1011428Y305815D01*
X1045718Y243586D02*
G01*
X1139189Y243586D01*
X-3111500Y2871215D02*
G01*
X-3111500Y2762250D01*
X-3111500Y2871215D02*
G01*
X-3064763Y2871215D01*
X-3049270Y2866136D01*
X-3043936Y2860802D01*
X-3038855Y2850387D01*
X-3038855Y2839973D01*
X-3043936Y2829560D01*
X-3049270Y2824479D01*
X-3064763Y2819400D01*
X-3111500Y2819400D02*
G01*
X-3064763Y2819400D01*
X-3049270Y2814065D01*
X-3043936Y2808986D01*
X-3038855Y2798571D01*
X-3038855Y2782823D01*
X-3043936Y2772410D01*
X-3049270Y2767329D01*
X-3064763Y2762250D01*
X-3111500Y2762250D01*
X-2957829Y2855721D02*
G01*
X-2957829Y2762250D01*
X-3004565Y2808986D02*
G01*
X-2910839Y2808986D01*
X-4076700Y2871215D02*
G01*
X-4076700Y2762250D01*
X-4076700Y2871215D02*
G01*
X-4029963Y2871215D01*
X-4014470Y2866136D01*
X-4009136Y2860802D01*
X-4004055Y2850387D01*
X-4004055Y2839973D01*
X-4009136Y2829560D01*
X-4014470Y2824479D01*
X-4029963Y2819400D01*
X-4076700Y2819400D02*
G01*
X-4029963Y2819400D01*
X-4014470Y2814065D01*
X-4009136Y2808986D01*
X-4004055Y2798571D01*
X-4004055Y2782823D01*
X-4009136Y2772410D01*
X-4014470Y2767329D01*
X-4029963Y2762250D01*
X-4076700Y2762250D01*
X-3969765Y2808986D02*
G01*
X-3876039Y2808986D01*
X-3287521Y-1599692D02*
G01*
X-3292855Y-1589278D01*
X-3303270Y-1578863D01*
X-3313429Y-1573784D01*
X-3334257Y-1573784D01*
X-3344671Y-1578863D01*
X-3355086Y-1589278D01*
X-3360420Y-1599692D01*
X-3365500Y-1615439D01*
X-3365500Y-1641347D01*
X-3360420Y-1656842D01*
X-3355086Y-1667255D01*
X-3344671Y-1677670D01*
X-3334257Y-1682750D01*
X-3313429Y-1682750D01*
X-3303270Y-1677670D01*
X-3292855Y-1667255D01*
X-3287521Y-1656842D01*
X-3253231Y-1573784D02*
G01*
X-3253231Y-1682750D01*
X-3180587Y-1573784D02*
G01*
X-3180587Y-1682750D01*
X-3253231Y-1625600D02*
G01*
X-3180587Y-1625600D01*
X-3104642Y-1573784D02*
G01*
X-3146297Y-1682750D01*
X-3104642Y-1573784D02*
G01*
X-3063239Y-1682750D01*
X-3130550Y-1646428D02*
G01*
X-3078734Y-1646428D01*
X-3028950Y-1573784D02*
G01*
X-3028950Y-1682750D01*
X-3028950Y-1573784D02*
G01*
X-2981960Y-1573784D01*
X-2966465Y-1578863D01*
X-2961386Y-1584197D01*
X-2956052Y-1594612D01*
X-2956052Y-1605026D01*
X-2961386Y-1615439D01*
X-2966465Y-1620520D01*
X-2981960Y-1625600D01*
X-3028950Y-1625600D01*
X-2992373Y-1625600D02*
G01*
X-2956052Y-1682750D01*
X-2843784Y-1599692D02*
G01*
X-2849118Y-1589278D01*
X-2859531Y-1578863D01*
X-2869945Y-1573784D01*
X-2890520Y-1573784D01*
X-2900934Y-1578863D01*
X-2911347Y-1589278D01*
X-2916681Y-1599692D01*
X-2921762Y-1615439D01*
X-2921762Y-1641347D01*
X-2916681Y-1656842D01*
X-2911347Y-1667255D01*
X-2900934Y-1677670D01*
X-2890520Y-1682750D01*
X-2869945Y-1682750D01*
X-2859531Y-1677670D01*
X-2849118Y-1667255D01*
X-2843784Y-1656842D01*
X-2843784Y-1641347D01*
X-2869945Y-1641347D02*
G01*
X-2843784Y-1641347D01*
X-2809494Y-1573784D02*
G01*
X-2809494Y-1682750D01*
X-2809494Y-1573784D02*
G01*
X-2741929Y-1573784D01*
X-2809494Y-1625600D02*
G01*
X-2768092Y-1625600D01*
X-2809494Y-1682750D02*
G01*
X-2741929Y-1682750D01*
D28*
X2489200Y-4763262D02*
G01*
X2489200Y-4882642D01*
X2568702Y-4763262D02*
G01*
X2489200Y-4843018D01*
X2517647Y-4814570D02*
G01*
X2568702Y-4882642D01*
X2606293Y-4763262D02*
G01*
X2606293Y-4882642D01*
X2606293Y-4763262D02*
G01*
X2680208Y-4763262D01*
X2606293Y-4820157D02*
G01*
X2651759Y-4820157D01*
X2606293Y-4882642D02*
G01*
X2680208Y-4882642D01*
X2717545Y-4763262D02*
G01*
X2763011Y-4820157D01*
X2763011Y-4882642D01*
X2808477Y-4763262D02*
G01*
X2763011Y-4820157D01*
D25*
X-3185668Y-716277D02*
G01*
X-3185668Y-593341D01*
X-3124200Y-654809D02*
G01*
X-3246881Y-654809D01*
X-3291839Y-736597D02*
G01*
X-3291839Y-593341D01*
X-3337052Y-736597D02*
G01*
X-3337052Y-593341D01*
X-3337052Y-736597D02*
G01*
X-3432302Y-593341D01*
X-3432302Y-736597D02*
G01*
X-3432302Y-593341D01*
X-3098545Y660145D02*
G01*
X-3221228Y660145D01*
X-3266186Y578357D02*
G01*
X-3266186Y721613D01*
X-3311397Y578357D02*
G01*
X-3311397Y721613D01*
X-3311397Y578357D02*
G01*
X-3406647Y721613D01*
X-3406647Y578357D02*
G01*
X-3406647Y721613D01*
X-4536694Y-711200D02*
G01*
X-4522978Y-704342D01*
X-4509515Y-690879D01*
X-4502657Y-677163D01*
X-4495800Y-656589D01*
X-4495800Y-622554D01*
X-4502657Y-602234D01*
X-4509515Y-588518D01*
X-4522978Y-574802D01*
X-4536694Y-567944D01*
X-4563871Y-567944D01*
X-4577587Y-574802D01*
X-4591304Y-588518D01*
X-4598162Y-602234D01*
X-4604765Y-622554D01*
X-4604765Y-656589D01*
X-4598162Y-677163D01*
X-4591304Y-690879D01*
X-4577587Y-704342D01*
X-4563871Y-711200D01*
X-4536694Y-711200D01*
X-4649978Y-711200D02*
G01*
X-4649978Y-608837D01*
X-4656581Y-588518D01*
X-4670297Y-574802D01*
X-4690871Y-567944D01*
X-4704334Y-567944D01*
X-4724907Y-574802D01*
X-4738623Y-588518D01*
X-4745228Y-608837D01*
X-4745228Y-711200D01*
X-4838192Y-711200D02*
G01*
X-4838192Y-567944D01*
X-4790439Y-711200D02*
G01*
X-4885689Y-711200D01*
X-4992115Y-690879D02*
G01*
X-4992115Y-567944D01*
X-4930902Y-629412D02*
G01*
X-5053584Y-629412D01*
X-4800600Y-457200D02*
G01*
X-4800600Y-313944D01*
X-4800600Y-457200D02*
G01*
X-4862068Y-457200D01*
X-4882387Y-450342D01*
X-4889245Y-443484D01*
X-4896104Y-430021D01*
X-4896104Y-416305D01*
X-4889245Y-402589D01*
X-4882387Y-395986D01*
X-4862068Y-389128D01*
X-4800600Y-389128D02*
G01*
X-4862068Y-389128D01*
X-4882387Y-382270D01*
X-4889245Y-375412D01*
X-4896104Y-361695D01*
X-4896104Y-341376D01*
X-4889245Y-327660D01*
X-4882387Y-320802D01*
X-4862068Y-313944D01*
X-4800600Y-313944D01*
X-5002529Y-436879D02*
G01*
X-5002529Y-313944D01*
X-4941062Y-375412D02*
G01*
X-5063744Y-375412D01*
X-4775200Y330200D02*
G01*
X-4775200Y473455D01*
X-4775200Y330200D02*
G01*
X-4836668Y330200D01*
X-4856987Y337057D01*
X-4863845Y343915D01*
X-4870704Y357378D01*
X-4870704Y371094D01*
X-4863845Y384810D01*
X-4856987Y391413D01*
X-4836668Y398271D01*
X-4775200Y398271D02*
G01*
X-4836668Y398271D01*
X-4856987Y405129D01*
X-4863845Y411987D01*
X-4870704Y425704D01*
X-4870704Y446023D01*
X-4863845Y459739D01*
X-4856987Y466597D01*
X-4836668Y473455D01*
X-4775200Y473455D01*
X-4915662Y411987D02*
G01*
X-5038344Y411987D01*
X-4511294Y584200D02*
G01*
X-4497578Y591057D01*
X-4484115Y604520D01*
X-4477257Y618236D01*
X-4470400Y638810D01*
X-4470400Y672845D01*
X-4477257Y693165D01*
X-4484115Y706881D01*
X-4497578Y720597D01*
X-4511294Y727455D01*
X-4538471Y727455D01*
X-4552187Y720597D01*
X-4565904Y706881D01*
X-4572762Y693165D01*
X-4579365Y672845D01*
X-4579365Y638810D01*
X-4572762Y618236D01*
X-4565904Y604520D01*
X-4552187Y591057D01*
X-4538471Y584200D01*
X-4511294Y584200D01*
X-4624578Y584200D02*
G01*
X-4624578Y686562D01*
X-4631181Y706881D01*
X-4644897Y720597D01*
X-4665471Y727455D01*
X-4678934Y727455D01*
X-4699507Y720597D01*
X-4713223Y706881D01*
X-4719828Y686562D01*
X-4719828Y584200D01*
X-4812792Y584200D02*
G01*
X-4812792Y727455D01*
X-4765039Y584200D02*
G01*
X-4860289Y584200D01*
X-4905502Y665987D02*
G01*
X-5028184Y665987D01*
D28*
X-4546345Y87629D02*
G01*
X-4546345Y-103378D01*
X-4610100Y87629D02*
G01*
X-4482845Y87629D01*
X-4422902Y87629D02*
G01*
X-4422902Y-103378D01*
X-4422902Y87629D02*
G01*
X-4341113Y87629D01*
X-4313681Y78486D01*
X-4304537Y69342D01*
X-4295647Y51054D01*
X-4295647Y23876D01*
X-4304537Y5587D01*
X-4313681Y-3302D01*
X-4341113Y-12445D01*
X-4422902Y-12445D01*
X-4144771Y87629D02*
G01*
X-4235450Y-39878D01*
X-4099305Y-39878D01*
X-4144771Y87629D02*
G01*
X-4144771Y-103378D01*
X-3984752Y87629D02*
G01*
X-4011929Y78486D01*
X-4030218Y51054D01*
X-4039107Y5587D01*
X-4039107Y-21589D01*
X-4030218Y-67055D01*
X-4011929Y-94234D01*
X-3984752Y-103378D01*
X-3966463Y-103378D01*
X-3939286Y-94234D01*
X-3920997Y-67055D01*
X-3911854Y-21589D01*
X-3911854Y5587D01*
X-3920997Y51054D01*
X-3939286Y78486D01*
X-3966463Y87629D01*
X-3984752Y87629D01*
X-3742944Y87629D02*
G01*
X-3833621Y87629D01*
X-3842765Y5587D01*
X-3833621Y14731D01*
X-3806444Y23876D01*
X-3779265Y23876D01*
X-3751834Y14731D01*
X-3733800Y-3302D01*
X-3724655Y-30734D01*
X-3724655Y-48768D01*
X-3733800Y-76200D01*
X-3751834Y-94234D01*
X-3779265Y-103378D01*
X-3806444Y-103378D01*
X-3833621Y-94234D01*
X-3842765Y-85089D01*
X-3851910Y-67055D01*
X-3555492Y60197D02*
G01*
X-3564636Y78486D01*
X-3591813Y87629D01*
X-3610102Y87629D01*
X-3637279Y78486D01*
X-3655568Y51054D01*
X-3664712Y5587D01*
X-3664712Y-39878D01*
X-3655568Y-76200D01*
X-3637279Y-94234D01*
X-3610102Y-103378D01*
X-3600957Y-103378D01*
X-3573779Y-94234D01*
X-3555492Y-76200D01*
X-3546347Y-48768D01*
X-3546347Y-39878D01*
X-3555492Y-12445D01*
X-3573779Y5587D01*
X-3600957Y14731D01*
X-3610102Y14731D01*
X-3637279Y5587D01*
X-3655568Y-12445D01*
X-3664712Y-39878D01*
D29*
X1053592Y3265678D02*
G01*
X1043178Y3260344D01*
X1032763Y3249929D01*
X1027684Y3239770D01*
X1027684Y3218942D01*
X1032763Y3208528D01*
X1043178Y3198113D01*
X1053592Y3192779D01*
X1069339Y3187700D01*
X1095247Y3187700D01*
X1110742Y3192779D01*
X1121155Y3198113D01*
X1131570Y3208528D01*
X1136650Y3218942D01*
X1136650Y3239770D01*
X1131570Y3249929D01*
X1121155Y3260344D01*
X1110742Y3265678D01*
X1095247Y3265678D01*
X1095247Y3239770D02*
G01*
X1095247Y3265678D01*
X1027684Y3299968D02*
G01*
X1136650Y3299968D01*
X1027684Y3299968D02*
G01*
X1027684Y3346704D01*
X1032763Y3362197D01*
X1038097Y3367531D01*
X1048512Y3372612D01*
X1064005Y3372612D01*
X1074420Y3367531D01*
X1079500Y3362197D01*
X1084834Y3346704D01*
X1084834Y3299968D01*
X1043178Y3479800D02*
G01*
X1032763Y3469386D01*
X1027684Y3453637D01*
X1027684Y3432810D01*
X1032763Y3417315D01*
X1043178Y3406902D01*
X1053592Y3406902D01*
X1064005Y3412236D01*
X1069339Y3417315D01*
X1074420Y3427729D01*
X1084834Y3458971D01*
X1089913Y3469386D01*
X1095247Y3474465D01*
X1105662Y3479800D01*
X1121155Y3479800D01*
X1131570Y3469386D01*
X1136650Y3453637D01*
X1136650Y3432810D01*
X1131570Y3417315D01*
X1121155Y3406902D01*
X-3213100Y2145284D02*
G01*
X-3213100Y2254250D01*
X-3213100Y2145284D02*
G01*
X-3259836Y2145284D01*
X-3275329Y2150363D01*
X-3280663Y2155697D01*
X-3285744Y2166112D01*
X-3285744Y2176526D01*
X-3280663Y2186939D01*
X-3275329Y2192020D01*
X-3259836Y2197100D01*
X-3213100Y2197100D02*
G01*
X-3259836Y2197100D01*
X-3275329Y2202434D01*
X-3280663Y2207513D01*
X-3285744Y2217928D01*
X-3285744Y2233676D01*
X-3280663Y2244089D01*
X-3275329Y2249170D01*
X-3259836Y2254250D01*
X-3213100Y2254250D01*
X-3361689Y2145284D02*
G01*
X-3320034Y2254250D01*
X-3361689Y2145284D02*
G01*
X-3403345Y2254250D01*
X-3335781Y2217928D02*
G01*
X-3387597Y2217928D01*
X-3473957Y2145284D02*
G01*
X-3473957Y2254250D01*
X-3437636Y2145284D02*
G01*
X-3510279Y2145284D01*
X-3580892Y2145284D02*
G01*
X-3580892Y2254250D01*
X-3544570Y2145284D02*
G01*
X-3617213Y2145284D01*
X-3651504Y2145284D02*
G01*
X-3651504Y2254250D01*
X-3651504Y2145284D02*
G01*
X-3719068Y2145284D01*
X-3651504Y2197100D02*
G01*
X-3693160Y2197100D01*
X-3651504Y2254250D02*
G01*
X-3719068Y2254250D01*
X-3753357Y2145284D02*
G01*
X-3753357Y2254250D01*
X-3753357Y2145284D02*
G01*
X-3800094Y2145284D01*
X-3815842Y2150363D01*
X-3820921Y2155697D01*
X-3826255Y2166112D01*
X-3826255Y2176526D01*
X-3820921Y2186939D01*
X-3815842Y2192020D01*
X-3800094Y2197100D01*
X-3753357Y2197100D01*
X-3789679Y2197100D02*
G01*
X-3826255Y2254250D01*
X-3860545Y2145284D02*
G01*
X-3901947Y2197100D01*
X-3901947Y2254250D01*
X-3943604Y2145284D02*
G01*
X-3901947Y2197100D01*
X-4473955Y-1335278D02*
G01*
X-4484370Y-1324863D01*
X-4499863Y-1319784D01*
X-4520692Y-1319784D01*
X-4536186Y-1324863D01*
X-4546600Y-1335278D01*
X-4546600Y-1345692D01*
X-4541520Y-1356105D01*
X-4536186Y-1361439D01*
X-4525771Y-1366520D01*
X-4494529Y-1376934D01*
X-4484370Y-1382013D01*
X-4479036Y-1387347D01*
X-4473955Y-1397762D01*
X-4473955Y-1413255D01*
X-4484370Y-1423670D01*
X-4499863Y-1428750D01*
X-4520692Y-1428750D01*
X-4536186Y-1423670D01*
X-4546600Y-1413255D01*
X-4439665Y-1319784D02*
G01*
X-4413504Y-1428750D01*
X-4387595Y-1319784D02*
G01*
X-4413504Y-1428750D01*
X-4387595Y-1319784D02*
G01*
X-4361687Y-1428750D01*
X-4335779Y-1319784D02*
G01*
X-4361687Y-1428750D01*
X-4301489Y-1319784D02*
G01*
X-4301489Y-1428750D01*
X-4230623Y-1319784D02*
G01*
X-4230623Y-1428750D01*
X-4267200Y-1319784D02*
G01*
X-4194302Y-1319784D01*
X-4082034Y-1345692D02*
G01*
X-4087368Y-1335278D01*
X-4097781Y-1324863D01*
X-4108195Y-1319784D01*
X-4128770Y-1319784D01*
X-4139184Y-1324863D01*
X-4149597Y-1335278D01*
X-4154931Y-1345692D01*
X-4160012Y-1361439D01*
X-4160012Y-1387347D01*
X-4154931Y-1402842D01*
X-4149597Y-1413255D01*
X-4139184Y-1423670D01*
X-4128770Y-1428750D01*
X-4108195Y-1428750D01*
X-4097781Y-1423670D01*
X-4087368Y-1413255D01*
X-4082034Y-1402842D01*
X-4047744Y-1319784D02*
G01*
X-4047744Y-1428750D01*
X-3975100Y-1319784D02*
G01*
X-3975100Y-1428750D01*
X-4047744Y-1371600D02*
G01*
X-3975100Y-1371600D01*
D28*
X-469900Y-4725670D02*
G01*
X-469900Y-4916678D01*
X-342645Y-4725670D02*
G01*
X-342645Y-4916678D01*
X-469900Y-4816602D02*
G01*
X-342645Y-4816602D01*
X-146304Y-4771136D02*
G01*
X-155447Y-4753102D01*
X-173481Y-4734813D01*
X-191770Y-4725670D01*
X-228092Y-4725670D01*
X-246379Y-4734813D01*
X-264413Y-4753102D01*
X-273557Y-4771136D01*
X-282702Y-4798568D01*
X-282702Y-4844034D01*
X-273557Y-4871212D01*
X-264413Y-4889500D01*
X-246379Y-4907534D01*
X-228092Y-4916678D01*
X-191770Y-4916678D01*
X-173481Y-4907534D01*
X-155447Y-4889500D01*
X-146304Y-4871212D01*
X-86360Y-4834889D02*
G01*
X77470Y-4834889D01*
X192023Y-4725670D02*
G01*
X164592Y-4734813D01*
X146557Y-4762245D01*
X137413Y-4807712D01*
X137413Y-4834889D01*
X146557Y-4880355D01*
X164592Y-4907534D01*
X192023Y-4916678D01*
X210057Y-4916678D01*
X237489Y-4907534D01*
X255523Y-4880355D01*
X264668Y-4834889D01*
X264668Y-4807712D01*
X255523Y-4762245D01*
X237489Y-4734813D01*
X210057Y-4725670D01*
X192023Y-4725670D01*
X433831Y-4725670D02*
G01*
X342900Y-4725670D01*
X333755Y-4807712D01*
X342900Y-4798568D01*
X370078Y-4789423D01*
X397255Y-4789423D01*
X424687Y-4798568D01*
X442721Y-4816602D01*
X451865Y-4844034D01*
X451865Y-4862068D01*
X442721Y-4889500D01*
X424687Y-4907534D01*
X397255Y-4916678D01*
X370078Y-4916678D01*
X342900Y-4907534D01*
X333755Y-4898389D01*
X324612Y-4880355D01*
D29*
X2856484Y-76200D02*
G01*
X2934461Y-76200D01*
X2949956Y-71120D01*
X2960370Y-60705D01*
X2965450Y-44957D01*
X2965450Y-34544D01*
X2960370Y-19050D01*
X2949956Y-8636D01*
X2934461Y-3555D01*
X2856484Y-3555D01*
X2882391Y36068D02*
G01*
X2877311Y36068D01*
X2866897Y41147D01*
X2861563Y46481D01*
X2856484Y56895D01*
X2856484Y77470D01*
X2861563Y87884D01*
X2866897Y93218D01*
X2877311Y98297D01*
X2887725Y98297D01*
X2898140Y93218D01*
X2913634Y82804D01*
X2965450Y30734D01*
X2965450Y103631D01*
D30*
X3900931Y-419100D02*
G01*
X4187443Y-419100D01*
X3900931Y-419100D02*
G01*
X3900931Y-296418D01*
X3914647Y-255523D01*
X3928363Y-241807D01*
X3955541Y-228092D01*
X3996436Y-228092D01*
X4023613Y-241807D01*
X4037329Y-255523D01*
X4051045Y-296418D01*
X4051045Y-419100D01*
X3900931Y-138176D02*
G01*
X4187443Y-138176D01*
X3969258Y156463D02*
G01*
X3941825Y142747D01*
X3914647Y115570D01*
X3900931Y88137D01*
X3900931Y33528D01*
X3914647Y6350D01*
X3941825Y-20828D01*
X3969258Y-34544D01*
X4010152Y-48260D01*
X4078224Y-48260D01*
X4119118Y-34544D01*
X4146550Y-20828D01*
X4173727Y6350D01*
X4187443Y33528D01*
X4187443Y88137D01*
X4173727Y115570D01*
X4146550Y142747D01*
X4119118Y156463D01*
X3900931Y328168D02*
G01*
X3914647Y300989D01*
X3941825Y273557D01*
X3969258Y260095D01*
X4010152Y246379D01*
X4078224Y246379D01*
X4119118Y260095D01*
X4146550Y273557D01*
X4173727Y300989D01*
X4187443Y328168D01*
X4187443Y382778D01*
X4173727Y409955D01*
X4146550Y437387D01*
X4119118Y450850D01*
X4078224Y464565D01*
X4010152Y464565D01*
X3969258Y450850D01*
X3941825Y437387D01*
X3914647Y409955D01*
X3900931Y382778D01*
X3900931Y328168D01*
D25*
X-1823001Y3341999D02*
G01*
X-2077001Y3341999D01*
X-2077001Y4357999D01*
X-1823001Y4357999D01*
X-1823001Y4167499D01*
D26*
X-1823001Y3341999D02*
G01*
X-1823001Y4167499D01*
X-2819400Y-1270000D02*
G01*
X-3136900Y-1270000D01*
D25*
X-2819400Y-1270000D02*
G01*
X-2819400Y-1524000D01*
X-3327400Y-1524000D01*
X-3327400Y-1270000D01*
X-3136900Y-1270000D01*
X2413000Y-4953000D02*
G01*
X2159000Y-4953000D01*
X2159000Y-4699000D01*
X2413000Y-4699000D01*
X2413000Y-4889500D01*
D26*
X2413000Y-4953000D02*
G01*
X2413000Y-4889500D01*
D10*
X-5410200Y-863600D02*
G01*
X-2794000Y-863600D01*
X-2794000Y838200D01*
X-5410200Y838200D01*
X-5410200Y-863600D01*
D25*
X1219200Y2717800D02*
G01*
X1727200Y2717800D01*
X1727200Y4495800D01*
X1219200Y4495800D01*
X1219200Y2717800D01*
D27*
X-3644501Y1438998D02*
G01*
X-3644501Y1424000D01*
X-3774498Y1424000D01*
X-3774498Y1983999D01*
X-3339500Y1983999D01*
X-3339500Y1424000D01*
X-3469500Y1424000D01*
X-3469500Y1438998D01*
X-3719499Y1773999D02*
G01*
X-3394501Y1773999D01*
X-3719499Y1623999D02*
G01*
X-3394501Y1623999D01*
X-3719499Y1983999D02*
G01*
X-3719499Y1424000D01*
X-3394501Y1983999D02*
G01*
X-3394501Y1424000D01*
X-3619500Y1773999D02*
G01*
X-3634498Y1773999D01*
X-3634498Y1920250D01*
X-3619500Y1923999D01*
X-3604498Y1920250D01*
X-3604498Y1773999D01*
X-3619500Y1773999D01*
X-3494498Y1773999D02*
G01*
X-3509500Y1773999D01*
X-3509500Y1920250D01*
X-3494498Y1923999D01*
X-3479500Y1920250D01*
X-3479500Y1773999D01*
X-3494498Y1773999D01*
X-3594498Y1438998D02*
G01*
X-3594498Y1424000D01*
X-3519500Y1424000D01*
X-3519500Y1438998D01*
X-3619500Y1374000D02*
G01*
X-3649499Y1314000D01*
X-3589500Y1314000D01*
X-3619500Y1374000D01*
D26*
X-4013200Y-1016000D02*
G01*
X-4330700Y-1016000D01*
D25*
X-4013200Y-1016000D02*
G01*
X-4013200Y-1270000D01*
X-4521200Y-1270000D01*
X-4521200Y-1016000D01*
X-4330700Y-1016000D01*
D10*
X-1304785Y-4243290D02*
G01*
X-1304785Y-4201401D01*
X-1187897Y-4201401D01*
X-1187897Y-5501403D02*
G01*
X-1304785Y-5501403D01*
X-1304785Y-5459519D01*
X778329Y-4201401D02*
G01*
X1395216Y-4201401D01*
X1395216Y-5501403D01*
X778329Y-5501403D01*
X5114000Y2549999D02*
G01*
X5114000Y-2549999D01*
X3013999Y-2549999D02*
G01*
X3013999Y2549999D01*
X3013999Y2549999D02*
G01*
X5114000Y2549999D01*
X3664000Y-2616319D02*
G01*
X4463999Y-2616319D01*
X3664000Y-2108200D02*
G01*
X4463999Y-2108200D01*
X3664000Y-2679999D02*
G01*
X4445000Y-2679999D01*
X3664000Y-2679999D02*
G01*
X3664000Y-2108200D01*
X4463999Y-2679999D02*
G01*
X4463999Y-2108200D01*
X5114000Y-2549999D02*
G01*
X3013999Y-2549999D01*
G75*
G01
X847573Y-4101414D02*
G03X847573Y-4101414I-22352J0D01*
D31*
X-2550007Y2550007D02*
G01*
X2949981Y2550007D01*
X2949981Y-2949981D01*
X-2550007Y-2949981D01*
X-2550007Y2550007D01*
D10*
X-1750009Y4999989D02*
G01*
X1749983Y4999989D01*
X1749983Y2699994D01*
X-1750009Y2699994D01*
X-1750009Y4999989D01*
X-1589989Y889990D02*
G01*
X1590014Y889990D01*
X1590014Y-890015D01*
X-1589989Y-890015D01*
X-1589989Y889990D01*
M02*
